<?xml version="1.0" encoding="utf-8"?>
<!-- Generator: Adobe Illustrator 24.0.1, SVG Export Plug-In . SVG Version: 6.00 Build 0)  -->
<svg version="1.1" id="레이어_1" xmlns="http://www.w3.org/2000/svg" xmlns:xlink="http://www.w3.org/1999/xlink" x="0px"
	 y="0px" viewBox="0 0 2160 70" style="enable-background:new 0 0 2160 70;" xml:space="preserve">
<style type="text/css">
	.st0{fill:#454859;}
	.st1{fill:#FFFFFF;}
</style>
<title>top</title>
<rect class="st0" width="2160" height="70"/>
<g>
	<path class="st1" d="M976.6,35.1c0-0.1,0.1-0.3,0.2-0.4c0.1-0.1,0.2-0.2,0.3-0.2c0.6-0.3,1.2-0.5,1.8-0.7s1.2-0.3,1.7-0.4
		c0.6-0.1,1.2-0.2,1.8-0.2s1.3-0.1,2-0.1h1.5c0.6,0,1.2,0,1.6,0.1s0.9,0.1,1.2,0.2c0.3,0.1,0.6,0.2,0.9,0.4c0.3,0.2,0.3,0.4,0.2,0.7
		c0,0.1-0.1,0.1-0.2,0.1c-0.1,0-0.2,0-0.3,0c-0.2,0-0.6,0-1-0.1c-0.4,0-0.8-0.1-1.2-0.1c-0.5-0.1-1.1-0.1-1.6-0.1
		c-1.1,0-2.1,0.1-3.1,0.2c-1,0.1-2,0.3-3,0.6c-0.3,0.1-0.7,0.2-1.1,0.4c-0.4,0.2-0.7,0.3-1,0.4c-0.3,0-0.5,0-0.6-0.3
		C976.7,35.5,976.6,35.3,976.6,35.1z M980.2,29.4c0-0.4,0.1-0.8,0.2-1.2c0.1-0.4,0.3-0.8,0.5-1.1s0.4-0.7,0.7-1
		c0.2-0.3,0.5-0.5,0.7-0.7c0.1-0.1,0.2-0.1,0.3-0.1s0.2,0,0.4-0.1c0.1,0,0.1-0.1,0.2-0.1c0.1,0,0.2-0.1,0.3-0.1c0.4,0,0.7,0.2,1,0.6
		c0.3,0.4,0.4,0.8,0.4,1.2s-0.1,0.9-0.2,1.3c-0.1,0.4-0.4,0.8-0.7,1.2s-0.6,0.7-1.1,0.9c-0.4,0.2-0.9,0.4-1.4,0.4
		c-0.4,0-0.7-0.1-1-0.3C980.4,30,980.2,29.8,980.2,29.4z M980.6,42.2c0-0.2,0-0.5,0.1-0.7c0.1-0.3,0.1-0.5,0.2-0.7
		c0-0.1,0.1-0.3,0.2-0.4c0.1-0.2,0.2-0.4,0.3-0.5c0.1-0.2,0.2-0.3,0.3-0.5s0.2-0.3,0.2-0.4c0.2-0.4,0.5-0.7,0.8-1.1
		c0.3-0.4,0.6-0.5,0.9-0.5c0.3,0,0.5,0.1,0.6,0.3s0.1,0.4,0,0.7c0,0,0,0.1-0.1,0.2c0,0.1-0.1,0.2-0.1,0.3c0.2,0.1,0.4,0.3,0.5,0.6
		s0.2,0.6,0.2,0.9c0,0.5,0,1-0.3,1.4c-0.2,0.4-0.5,0.8-0.8,1.1c-0.1,0.1-0.2,0.2-0.4,0.3c-0.1,0.1-0.3,0.2-0.5,0.3s-0.4,0.1-0.6,0.2
		c-0.2,0-0.4,0-0.7,0c-0.4-0.1-0.6-0.2-0.7-0.5C980.7,42.7,980.6,42.5,980.6,42.2z M983.6,26.2c-0.2,0.1-0.4,0.3-0.5,0.5
		c-0.2,0.2-0.4,0.5-0.5,0.8c-0.2,0.3-0.3,0.6-0.4,0.9c-0.1,0.3-0.2,0.6-0.2,0.9c0.2,0,0.4-0.1,0.6-0.2c0.2-0.1,0.4-0.3,0.6-0.6
		c0.2-0.2,0.3-0.5,0.4-0.8c0.1-0.3,0.2-0.6,0.2-0.8C983.8,26.6,983.7,26.4,983.6,26.2z M983.3,39.6c-0.1,0.1-0.2,0.2-0.4,0.4
		c-0.1,0.2-0.3,0.5-0.4,0.7c-0.1,0.3-0.3,0.5-0.4,0.8c-0.1,0.3-0.1,0.5-0.1,0.7c0.3,0,0.7-0.2,1-0.6c0.3-0.4,0.5-0.8,0.5-1.3
		c0-0.1,0-0.3,0-0.4C983.4,39.8,983.4,39.7,983.3,39.6z"/>
	<path class="st1" d="M999,33.9c0-0.3-0.1-0.6-0.1-1.1s0-1,0-1.6c0-0.6,0.1-1.2,0.2-1.8c0.1-0.6,0.2-1.2,0.3-1.7
		c0-0.1,0-0.2,0.1-0.3c0-0.1,0.1-0.2,0.1-0.3c0.1-0.1,0.1-0.2,0.3-0.3c0.1-0.1,0.3-0.1,0.5-0.1s0.3,0.1,0.5,0.2
		c0.2,0.2,0.2,0.4,0.2,0.6c-0.1,0.4-0.1,0.8-0.2,1.3c-0.1,0.5-0.1,0.9-0.2,1.3c0,0.3-0.1,0.7-0.1,1.1c0,0.4-0.1,0.9-0.1,1.3
		c0,0.3,0,0.4,0.2,0.5c0.1,0.1,0.3,0.1,0.4,0.1c0.8-0.3,1.6-0.6,2.4-0.9s1.4-0.6,1.9-0.7c0.2,0,0.4,0,0.5,0.3c0,0.1,0,0.2,0,0.4
		c0,0.2-0.1,0.3-0.3,0.4c-0.1,0.1-0.3,0.3-0.5,0.4s-0.4,0.2-0.5,0.3s-0.4,0.2-0.7,0.4s-0.6,0.3-1,0.5s-0.7,0.3-1.1,0.5
		c-0.4,0.1-0.7,0.2-1,0.3c-0.4,0.1-0.7,0-1.1-0.2C999.3,34.7,999.1,34.3,999,33.9z M1007.2,42.8c0-0.1,0.1-0.3,0.2-0.4
		c0.1-0.1,0.3-0.2,0.4-0.3c0.1-0.1,0.3-0.2,0.5-0.2s0.3-0.2,0.4-0.3c0.1,0,0.1-0.1,0.2-0.2c0.1-0.1,0.1-0.1,0.1-0.2
		c0.3-0.4,0.5-0.9,0.6-1.3s0.2-0.9,0.2-1.4c0-0.4-0.2-0.6-0.6-0.6c-0.2,0-0.3,0-0.5,0s-0.3,0-0.5,0.1c-0.6,0.2-1,0.4-1.2,0.6
		c-0.3,0.2-0.5,0.6-0.8,1c-0.1,0.2-0.2,0.5-0.3,0.9c0,0.4-0.1,0.8-0.1,1.3c0,0.1-0.1,0.3-0.2,0.4c-0.1,0.1-0.3,0.1-0.6,0.1
		c-0.2,0-0.4-0.1-0.5-0.2c-0.1-0.1-0.2-0.3-0.2-0.4c0-0.2-0.1-0.4,0-0.5c0-0.2,0-0.4,0-0.5s0-0.3,0-0.6c0-0.2,0-0.5,0.1-0.7
		c0-0.3,0.1-0.5,0.1-0.7s0.1-0.5,0.1-0.6c0.1-0.3,0.2-0.6,0.2-0.8s0.1-0.4,0.2-0.8c0.1-0.4,0.3-0.7,0.5-0.9s0.5-0.3,0.9-0.3
		c0.1,0,0.3,0.1,0.4,0.2c0.1,0.1,0.2,0.2,0.2,0.4c-0.1,0.3-0.2,0.6-0.3,0.9s-0.1,0.5-0.2,0.8c0.1-0.1,0.3-0.2,0.4-0.3
		s0.3-0.2,0.4-0.3c0.3-0.1,0.6-0.3,0.8-0.4c0.2-0.1,0.5-0.1,0.8-0.2c0.4,0,0.9,0,1.2,0.1c0.4,0.1,0.7,0.3,0.9,0.7
		c0.1,0.3,0.2,0.6,0.2,1.1s-0.1,0.9-0.2,1.4c0,0.1-0.1,0.1-0.1,0.3c0,0.1-0.1,0.3-0.2,0.4c-0.1,0.1-0.1,0.3-0.2,0.4
		c-0.1,0.1-0.1,0.2-0.1,0.3c0.3-0.1,0.6-0.2,0.9-0.2s0.5-0.1,0.8-0.2c0.4,0,0.7-0.1,1.1-0.1c0.3,0,0.7,0,1,0c0.1,0,0.2,0.1,0.3,0.2
		c0.1,0.1,0.1,0.2,0.1,0.4c0,0.1,0,0.2-0.1,0.4c-0.1,0.1-0.2,0.2-0.3,0.2c-0.6,0.1-1.1,0.2-1.7,0.3c-0.6,0.2-1.2,0.3-1.8,0.5
		c-0.2,0.1-0.5,0.1-0.7,0.2s-0.5,0.2-0.7,0.3c-0.3,0.1-0.5,0.3-0.8,0.5s-0.6,0.2-0.9,0.2c-0.2,0-0.4-0.1-0.5-0.3
		C1007.2,43.2,1007.2,43,1007.2,42.8z M1009.6,33.1c0-0.4,0-0.7,0.1-0.9c0-0.2,0.1-0.5,0.1-0.9c0.1-0.4,0.1-0.8,0.2-1.2
		c0.1-0.4,0.1-0.9,0.2-1.3c0.1-0.4,0.2-0.9,0.3-1.3c0.1-0.4,0.2-0.8,0.3-1.2c0.1-0.3,0.2-0.6,0.3-0.9s0.2-0.5,0.3-0.7
		c0.1-0.1,0.3-0.2,0.5-0.2s0.5,0,0.6,0.1c0.1,0.1,0.1,0.1,0.2,0.2c0.1,0.1,0.1,0.2,0.1,0.2c0,0.3-0.1,0.5-0.2,0.7
		c-0.1,0.2-0.2,0.4-0.3,0.6c-0.3,0.8-0.5,1.8-0.7,2.8s-0.4,2-0.6,3c-0.1,0.3-0.1,0.6-0.2,0.8c-0.1,0.2-0.1,0.5-0.1,0.8
		c0,0.2-0.1,0.4-0.2,0.6c-0.1,0.2-0.3,0.3-0.4,0.2c-0.2,0-0.3-0.1-0.4-0.2c-0.1-0.1-0.2-0.2-0.2-0.4c0-0.1-0.1-0.3-0.1-0.4
		S1009.6,33.2,1009.6,33.1z"/>
	<path class="st1" d="M1015.4,32.8c0-0.1,0-0.2,0.1-0.4c0.1-0.1,0.1-0.2,0.2-0.3c0.1-0.1,0.4-0.1,0.7-0.3c0.4-0.1,0.8-0.2,1.2-0.4
		c0.4-0.1,0.8-0.2,1.2-0.3s0.6-0.2,0.8-0.2c0.4-0.1,0.9-0.2,1.5-0.3c0.5-0.1,1.1-0.2,1.6-0.3c0.6-0.1,1.1-0.1,1.6-0.2
		c0.5,0,1-0.1,1.5-0.1c0.2,0,0.5,0,0.8,0s0.5,0.1,0.6,0.2c0.1,0,0.2,0.1,0.2,0.1c0,0.1,0.1,0.1,0.1,0.1c0,0.1,0,0.3,0,0.4
		c-0.1,0.1-0.1,0.2-0.2,0.2c-0.4,0.1-0.7,0.2-1,0.2s-0.7,0.1-1.1,0.1c-0.3,0-0.6,0-0.9,0.1c-0.4,0-0.7,0.1-1.1,0.1
		c-0.4,0.1-0.8,0.1-1.1,0.2c-0.4,0.1-0.7,0.1-1,0.2c-0.2,0.1-0.5,0.1-0.9,0.3c-0.4,0.1-0.8,0.2-1.3,0.4c-0.4,0.1-0.9,0.3-1.3,0.4
		c-0.4,0.1-0.7,0.2-0.9,0.3s-0.4,0.2-0.6,0.2c-0.2,0-0.4-0.1-0.5-0.3C1015.4,33.2,1015.4,33,1015.4,32.8z M1016.4,24
		c0-0.3,0.2-0.6,0.6-0.9c0.3-0.2,0.6-0.4,1-0.6s0.8-0.3,1.2-0.4c0.4-0.1,0.8-0.2,1.2-0.3s0.7-0.1,0.9-0.1c0.1,0,0.3,0,0.4,0
		c0.2,0,0.3,0,0.4,0c0.2,0,0.4,0.1,0.5,0.2c0.1,0.1,0.1,0.2,0.1,0.4c0,0.3-0.1,0.4-0.3,0.5c-0.1,0-0.3,0-0.5,0.1
		c-0.2,0-0.4,0.1-0.6,0.1c-0.4,0.1-0.8,0.2-1.1,0.3c-0.4,0.1-0.7,0.2-1.2,0.3c-0.4,0.1-0.7,0.3-0.9,0.5s-0.4,0.4-0.5,0.5
		c-0.1,0.1-0.3,0.2-0.5,0.2c-0.3,0-0.5-0.1-0.6-0.2C1016.5,24.5,1016.4,24.3,1016.4,24z M1019.5,46.8c0-0.3,0.1-0.6,0.3-1
		c0.2-0.3,0.4-0.7,0.7-1s0.5-0.6,0.8-0.8s0.4-0.4,0.6-0.6c0.1-0.1,0.2-0.2,0.4-0.4s0.4-0.4,0.6-0.7c0.2-0.2,0.4-0.5,0.6-0.7
		c0.2-0.2,0.4-0.4,0.5-0.5c-0.2,0-0.5,0-0.8,0s-0.8,0-1.4,0c-0.5,0-0.8-0.1-1.1-0.4c-0.3-0.3-0.4-0.6-0.3-1c0-0.2,0.2-0.5,0.4-0.9
		c0.3-0.3,0.6-0.7,0.9-1s0.7-0.7,1-1s0.6-0.5,0.8-0.7c0.1-0.1,0.2-0.2,0.3-0.3s0.2-0.2,0.3-0.3s0.2-0.2,0.2-0.2l0.1-0.1
		c0-0.1,0-0.1,0-0.2s-0.1-0.1-0.2-0.1c-0.6,0.1-1.3,0.2-2,0.3c-0.7,0.2-1.3,0.4-1.8,0.6c-0.2,0.1-0.5,0.2-0.7,0.3s-0.5,0.2-0.7,0.4
		c-0.2,0.1-0.4,0.3-0.6,0.4c-0.2,0.1-0.3,0.2-0.5,0.2c-0.3,0-0.5-0.1-0.6-0.2c-0.1-0.2-0.2-0.3-0.2-0.5s0.1-0.4,0.3-0.6
		c0.3-0.3,0.8-0.6,1.5-0.8c0.7-0.3,1.4-0.5,2.2-0.7s1.5-0.4,2.3-0.5c0.7-0.1,1.4-0.2,1.8-0.2s0.7,0.1,0.9,0.3
		c0.3,0.2,0.4,0.5,0.4,0.8c0,0.2-0.1,0.5-0.3,0.8c-0.2,0.3-0.5,0.6-0.8,0.9c-0.3,0.3-0.6,0.6-0.9,0.9c-0.3,0.3-0.6,0.5-0.8,0.7
		s-0.4,0.4-0.7,0.7s-0.5,0.6-0.7,0.8c0,0.1,0,0.1,0,0.2c0,0.1,0.1,0.1,0.2,0.1c0.4,0,0.8,0,1.1,0c0.4,0,0.8,0,1.2,0
		c0.3,0,0.6,0.1,0.8,0.3s0.4,0.4,0.4,0.6c0,0.2,0,0.4-0.1,0.5s-0.2,0.2-0.2,0.3c0,0-0.1,0.1-0.4,0.4c-0.2,0.2-0.4,0.4-0.6,0.6
		c-0.6,0.6-1.1,1.2-1.7,1.8c-0.6,0.6-1.1,1.2-1.6,1.8c-0.1,0.2-0.2,0.4-0.1,0.6c0.1,0.2,0.3,0.3,0.8,0.3c0.3,0,0.7-0.1,1.2-0.2
		c0.4-0.1,0.9-0.2,1.4-0.3s0.9-0.2,1.4-0.3s0.9-0.2,1.2-0.3c0.1,0,0.3,0,0.4,0s0.1,0.1,0.2,0.1c0.1,0.1,0.1,0.2,0.1,0.4
		s-0.1,0.3-0.4,0.5c-0.4,0.2-0.9,0.4-1.5,0.5c-0.6,0.2-1.3,0.3-1.9,0.5c-0.6,0.2-1.2,0.2-1.8,0.3c-0.5,0.1-0.9,0.1-1.1,0.1
		c-0.6,0-1-0.2-1.3-0.5C1019.6,47.8,1019.5,47.3,1019.5,46.8z M1017.4,28.2c0-0.1,0-0.2,0-0.3c0-0.1,0-0.3,0-0.3
		c0-0.4,0.1-0.8,0.2-1.1c0.1-0.3,0.3-0.6,0.4-0.9c0-0.1,0.1-0.2,0.3-0.3c0.1-0.1,0.3-0.2,0.4-0.2c0.3,0,0.5,0.1,0.7,0.2
		c0.2,0.1,0.2,0.3,0.1,0.6c-0.1,0.2-0.2,0.5-0.3,0.8s-0.2,0.5-0.2,0.8c0.4,0,0.8-0.1,1.2-0.2c0.4-0.1,0.9-0.2,1.3-0.3
		c0.4-0.1,0.8-0.2,1.3-0.3c0.4-0.1,0.8-0.2,1.2-0.2c0.4,0,0.6,0.1,0.6,0.5v0.1c0,0.1-0.1,0.2-0.2,0.3c-0.1,0.1-0.3,0.2-0.6,0.3
		c-0.2,0.1-0.6,0.2-1,0.4c-0.4,0.2-0.9,0.3-1.4,0.5c-0.5,0.1-1,0.3-1.4,0.4c-0.4,0.1-0.8,0.2-1.1,0.2c-0.4,0-0.7-0.1-0.9-0.2
		C1017.6,28.8,1017.5,28.6,1017.4,28.2z"/>
	<path class="st1" d="M1037.4,31c0.3-0.1,0.6-0.1,0.9-0.2c0.3-0.1,0.7-0.1,1.1-0.2c0.4-0.1,0.8-0.1,1.1-0.2c0.4,0,0.8,0,1.1,0
		c0.3,0,0.6,0,0.8,0.1c0.2,0,0.5,0.1,0.7,0.2c0.4,0.1,0.6,0.4,0.6,0.8c0,0.2-0.3,0.3-0.7,0.3c-1.2-0.1-2.3,0-3.5,0.3
		c-1.1,0.2-2.2,0.6-3.2,1.1c-0.4,0.2-0.7,0.2-0.9,0.1c-0.2-0.1-0.3-0.3-0.4-0.5c0-0.2,0-0.4,0.1-0.5c0.1-0.2,0.2-0.3,0.3-0.4
		c0.2-0.2,0.5-0.3,0.9-0.4C1036.9,31.2,1037.2,31.1,1037.4,31z M1036.9,38.8c-0.1-0.1-0.1-0.3-0.2-0.5c0-0.2,0-0.5,0-0.9
		c0-0.2,0.1-0.5,0.2-0.8s0.3-0.6,0.4-0.9c0.1-0.2,0.2-0.4,0.4-0.7c0.2-0.3,0.3-0.5,0.5-0.8c0.2-0.2,0.4-0.4,0.5-0.6
		c0.2-0.2,0.3-0.3,0.5-0.3s0.5,0,0.7,0.1s0.3,0.3,0.3,0.5c0,0.1-0.1,0.3-0.1,0.4s-0.1,0.2-0.2,0.4c0.2,0.1,0.4,0.2,0.5,0.4
		c0.2,0.2,0.3,0.4,0.4,0.7s0.1,0.6,0.1,0.8s-0.1,0.5-0.2,0.7c-0.3,0.8-0.8,1.3-1.5,1.7c-0.1,0.1-0.3,0.2-0.6,0.2
		c-0.2,0.1-0.5,0.1-0.7,0.1s-0.4-0.1-0.6-0.2C1037.1,39.1,1036.9,39,1036.9,38.8z M1039.4,28.7c0,0.3-0.1,0.5-0.2,0.6
		c-0.1,0.1-0.3,0.2-0.4,0.3c-0.2,0-0.3,0-0.5-0.1c-0.2-0.1-0.2-0.2-0.3-0.4c0-0.3,0-0.7,0-1.1c0-0.4,0.1-0.8,0.1-1.2
		c0.1-0.4,0.1-0.7,0.2-0.9c0-0.2,0.1-0.4,0.1-0.5c0.1-0.4,0.2-0.8,0.4-1.3s0.3-0.9,0.5-1.2c0.1-0.3,0.3-0.5,0.6-0.6
		c0.3-0.1,0.5-0.1,0.8,0.1c0.2,0.1,0.3,0.3,0.3,0.7c0,0.1-0.1,0.3-0.2,0.4c-0.1,0.1-0.1,0.3-0.2,0.4c-0.2,0.6-0.5,1.2-0.6,1.7
		c-0.2,0.5-0.3,1.1-0.5,1.7c0,0.2-0.1,0.4-0.1,0.7C1039.5,28.3,1039.4,28.5,1039.4,28.7z M1039.5,35.7c-0.4,0.2-0.7,0.6-1,1.1
		c-0.1,0.2-0.2,0.4-0.2,0.5s-0.1,0.3-0.1,0.5c0.3-0.1,0.5-0.2,0.8-0.3c0.2-0.2,0.4-0.4,0.5-0.8c0.1-0.2,0.1-0.4,0.1-0.6
		C1039.6,36,1039.5,35.8,1039.5,35.7z M1042.5,41.3c0-0.4,0.1-0.8,0.2-1.1s0.2-0.7,0.4-1.1c0.1-0.1,0.2-0.4,0.3-0.7
		c0.1-0.3,0.3-0.7,0.5-1s0.4-0.6,0.6-0.9c0.2-0.3,0.4-0.4,0.5-0.4c0.2,0,0.4,0,0.6,0.1s0.4,0.2,0.4,0.4s-0.1,0.4-0.2,0.6
		c-0.2,0.2-0.3,0.5-0.5,0.7c-0.3,0.4-0.5,0.8-0.6,1.2c-0.2,0.4-0.3,0.8-0.4,1.4c0,0.1,0,0.2,0,0.3s0,0.2,0.1,0.2
		c0.1,0.1,0.1,0.1,0.3,0.1c0.1,0,0.3,0,0.4,0s0.2-0.1,0.4-0.1c0.1,0,0.2-0.1,0.2-0.1c0.7-0.3,1.5-0.6,2.4-0.9
		c0.9-0.3,1.8-0.5,2.8-0.6c0.3-0.1,0.5-0.1,0.7-0.1s0.4,0.1,0.6,0.1c0.1,0,0.1,0.1,0.1,0.2c0,0.1,0,0.2,0,0.3s0,0.2-0.1,0.3
		c0,0.1-0.1,0.2-0.2,0.2s-0.3,0.1-0.7,0.1c-0.3,0.1-0.6,0.1-0.9,0.2c-0.5,0.1-1.1,0.3-1.8,0.5c-0.6,0.2-1.3,0.4-2,0.7
		c-0.4,0.2-0.8,0.3-1.3,0.5s-1,0.2-1.7,0.2c-0.3,0-0.5-0.2-0.7-0.4C1042.6,41.9,1042.5,41.6,1042.5,41.3z M1047,30.4
		c0.1-0.4,0.1-0.7,0.2-1s0.1-0.6,0.2-0.9s0.1-0.6,0.2-1c0.1-0.3,0.2-0.7,0.3-1.2c0-0.2,0.1-0.5,0.2-0.8s0.1-0.6,0.2-0.8
		c0-0.1,0.1-0.2,0.3-0.2c0.1,0,0.2-0.1,0.3-0.1c0.2,0,0.4,0.1,0.6,0.2c0.1,0.1,0.2,0.3,0.2,0.5c0,0.3,0,0.7-0.1,1
		c-0.2,0.7-0.3,1.4-0.5,2.2c-0.1,0.8-0.3,1.5-0.4,2.1c0.2-0.1,0.5-0.2,0.8-0.3c0.3-0.1,0.6-0.2,0.9-0.3c0.3-0.1,0.6-0.2,0.8-0.2
		c0.3-0.1,0.4-0.1,0.6-0.1c0.3-0.1,0.7-0.2,1.1-0.2s0.8,0,1.3,0c0.1,0,0.2,0.1,0.3,0.2c0,0.1,0.1,0.3,0,0.4
		c-0.1,0.1-0.1,0.2-0.2,0.2c-0.3,0.1-0.5,0.2-0.7,0.2s-0.5,0.1-0.8,0.2c-0.7,0.2-1.4,0.4-2,0.6c-0.7,0.2-1.3,0.5-2,0.9
		c0,0.6-0.1,1.2-0.1,1.8c0,0.6,0,1.2,0.1,1.6c0,0.1,0,0.3,0.1,0.4c0,0.2,0.1,0.3,0.1,0.4v0.4c0,0.2-0.1,0.3-0.3,0.4
		c-0.2,0.1-0.3,0.1-0.4,0.1s-0.3,0-0.4-0.2c-0.1-0.1-0.2-0.3-0.3-0.5c-0.1-0.3-0.2-0.6-0.3-1c0-0.3-0.1-0.5-0.1-0.8s0-0.6,0-0.9
		c0,0,0-0.2,0-0.5s0-0.6,0-0.9s0-0.7,0.1-1C1046.9,31,1047,30.7,1047,30.4z"/>
	<path class="st1" d="M1054.7,33.4c0-0.4,0.1-0.8,0.2-1.2c0.1-0.4,0.2-0.8,0.4-1.1c0.2-0.4,0.3-0.7,0.5-1s0.3-0.5,0.4-0.7
		c0.2-0.3,0.4-0.6,0.7-1c0.3-0.4,0.6-0.7,0.9-1.1c0.3-0.4,0.6-0.8,0.9-1.2c0.3-0.4,0.6-0.8,0.9-1.2c0.1-0.2,0.2-0.4,0.3-0.6
		c0.1-0.2,0.3-0.3,0.5-0.4c0.3,0,0.6,0.1,0.8,0.2c0.2,0.2,0.3,0.4,0.3,0.7s-0.1,0.5-0.2,0.6c-0.1,0.1-0.1,0.1-0.3,0.3
		c-0.1,0.1-0.3,0.3-0.4,0.4l-0.2,0.2c0,0.1-0.1,0.1-0.1,0.2c-0.1,0.1-0.1,0.1-0.1,0.2c-0.1,0.2-0.3,0.4-0.5,0.7
		c-0.2,0.2-0.4,0.5-0.6,0.8s-0.4,0.5-0.6,0.8s-0.3,0.5-0.4,0.8c0.3,0.3,0.6,0.6,1,0.8c0.3,0.2,0.7,0.5,1,0.7
		c0.4,0.2,0.7,0.5,1.1,0.8s0.8,0.6,1.2,0.9c0.2,0.1,0.3,0.3,0.3,0.4c0,0.1,0,0.2,0,0.3c-0.1,0.1-0.1,0.1-0.3,0.2c-0.1,0-0.3,0-0.5,0
		c-0.7-0.2-1.3-0.5-1.8-0.8s-0.9-0.6-1.3-0.8c-0.3-0.1-0.6-0.3-0.9-0.5s-0.6-0.4-0.9-0.6c-0.1,0.1-0.2,0.2-0.3,0.3
		c-0.1,0.1-0.2,0.3-0.3,0.5c-0.1,0.2-0.2,0.4-0.3,0.5c-0.1,0.2-0.1,0.3-0.2,0.4c0,0.1-0.1,0.2-0.1,0.3s-0.1,0.3-0.2,0.4
		c-0.1,0.1-0.1,0.2-0.2,0.4c-0.1,0.1-0.2,0.2-0.3,0.2c-0.3,0-0.5-0.1-0.6-0.2C1054.8,33.8,1054.7,33.6,1054.7,33.4z M1065.2,47.4
		c0-0.2,0.1-0.4,0.3-0.7c0.1-0.2,0.3-0.5,0.5-0.7s0.4-0.4,0.6-0.6c0.2-0.2,0.4-0.4,0.5-0.5s0.3-0.3,0.5-0.5s0.4-0.4,0.6-0.6
		c0.2-0.2,0.4-0.4,0.6-0.6s0.3-0.3,0.3-0.3c0.1-0.1,0.2-0.2,0.3-0.3s0.1-0.2,0.2-0.4c-0.2,0-0.5-0.1-1-0.1s-0.9,0-1.3-0.1
		c-0.4,0-0.7-0.2-1-0.4s-0.4-0.6-0.3-1c0-0.4,0.2-0.9,0.4-1.2c0.3-0.4,0.5-0.7,0.8-1.1c0.3-0.5,0.7-0.9,1.1-1.4
		c0.4-0.4,0.7-0.8,1-1.3c0.1-0.1,0.1-0.2,0.2-0.3c0-0.1,0.1-0.2,0.1-0.2c-0.9,0-1.8,0.2-2.9,0.7c-1,0.5-1.9,1-2.7,1.7
		c-0.2,0.2-0.4,0.2-0.7,0c-0.3-0.2-0.4-0.5-0.4-0.8s0.1-0.5,0.4-0.7s0.5-0.4,0.7-0.6c0.3-0.2,0.7-0.4,1.2-0.7
		c0.4-0.2,0.9-0.4,1.4-0.6s1-0.3,1.4-0.4c0.5-0.1,0.9-0.2,1.3-0.2c0.1,0,0.3,0,0.5,0s0.4,0.1,0.6,0.2c0.2,0.1,0.3,0.2,0.5,0.3
		c0.1,0.1,0.2,0.3,0.2,0.6s-0.1,0.7-0.3,1.1c-0.2,0.4-0.5,0.8-0.8,1.3c-0.3,0.4-0.6,0.8-1,1.3c-0.3,0.4-0.6,0.8-0.8,1
		c-0.1,0.2-0.2,0.3-0.3,0.5s-0.2,0.3-0.2,0.5c0,0.1,0,0.2,0,0.3s0.1,0.1,0.3,0.2c0.5,0.1,1,0.1,1.5,0.1c0.4,0,0.9,0.1,1.3,0.1
		c0.3,0,0.5,0.2,0.6,0.4s0.2,0.4,0.1,0.7c0,0.2-0.1,0.4-0.2,0.6c-0.1,0.2-0.3,0.4-0.5,0.6c-0.2,0.2-0.4,0.4-0.7,0.7
		c-0.2,0.2-0.5,0.4-0.7,0.6c-0.4,0.4-0.7,0.7-1.1,1.1c-0.4,0.4-0.8,0.8-1.2,1.3c0.3,0,0.5,0,0.8-0.1c1.1-0.2,2.2-0.4,3.3-0.7
		c0.1,0,0.2,0,0.4,0c0.1,0.1,0.2,0.1,0.2,0.2c0,0.1,0.1,0.2,0.1,0.3s-0.1,0.2-0.1,0.3c-0.1,0.2-0.4,0.3-0.9,0.5s-1,0.3-1.5,0.4
		c-0.6,0.1-1.1,0.2-1.6,0.3s-0.9,0.1-1.1,0.1c-0.3,0-0.7-0.1-1-0.2C1065.3,48.3,1065.2,47.9,1065.2,47.4z M1067.3,31.3
		c0-0.4-0.1-0.8-0.1-1.3s0-1.1,0-1.7c0-0.6,0.1-1.1,0.1-1.7c0-0.5,0.1-1,0.1-1.3s0.1-0.6,0.2-1c0.1-0.4,0.2-0.8,0.2-1.2
		c0-0.1,0.1-0.2,0.1-0.3s0.1-0.1,0.1-0.2c0.1-0.1,0.1-0.1,0.1-0.1c0.1,0,0.3,0,0.4,0c0.2,0,0.3,0.1,0.5,0.2c0.2,0.1,0.2,0.2,0.3,0.3
		c0.1,0.1,0.1,0.3,0.1,0.4c-0.1,0.7-0.2,1.3-0.3,1.8c-0.1,0.5-0.1,1.1-0.2,1.7c0.1,0,0.3-0.1,0.4-0.1c0.2,0,0.4-0.1,0.6-0.1
		s0.4-0.1,0.6-0.1s0.3-0.1,0.4-0.1c0.4-0.1,0.8-0.1,1.2-0.2c0.4,0,0.8-0.1,1.3-0.1c0.4,0,0.7,0,1,0.1c0.3,0.1,0.4,0.2,0.4,0.5
		c0,0.2-0.1,0.3-0.4,0.4c-0.3,0.1-0.4,0.1-0.5,0.2c-0.6,0.1-1.1,0.1-1.5,0.2c-0.4,0.1-0.9,0.2-1.5,0.4c-0.2,0.1-0.4,0.1-0.6,0.2
		c-0.2,0.1-0.4,0.1-0.7,0.2c-0.2,0.1-0.4,0.2-0.6,0.4c-0.2,0.1-0.3,0.3-0.3,0.5c0,0.5-0.1,0.9-0.1,1.3c0,0.4,0,0.8-0.1,1.3
		c0,0.3-0.2,0.4-0.6,0.4s-0.6-0.1-0.7-0.3C1067.4,31.9,1067.4,31.6,1067.3,31.3z"/>
	<path class="st1" d="M1082.6,29.8c-0.2-0.5,0-0.9,0.6-1.1c0.4-0.2,0.8-0.3,1.1-0.4c0.3-0.1,0.7-0.2,1-0.3s0.6-0.1,1-0.1
		c0.3,0,0.7,0,1,0c0.1,0,0.2,0,0.4,0.1c0.1,0,0.2,0,0.3,0c0.1,0,0.3,0.1,0.4,0.2c0.1,0.1,0.2,0.3,0.2,0.5c0,0.3-0.2,0.5-0.4,0.5
		s-0.5,0.1-0.8,0.1c-0.5,0-1,0-1.5,0.2c-0.6,0.1-1,0.3-1.4,0.4c-0.1,0-0.2,0.1-0.3,0.1c-0.1,0-0.3,0.1-0.4,0.2
		c-0.2,0.1-0.4,0.2-0.6,0.2S1082.7,30.1,1082.6,29.8z M1083,34.4c0-0.5,0.1-0.9,0.1-1.3c0.1-0.4,0.2-0.8,0.5-1.1
		c0.1-0.1,0.2-0.2,0.3-0.2c0.1,0,0.3,0,0.4,0c0.4,0.1,0.6,0.2,0.6,0.6c0,0.2,0,0.3-0.1,0.5s-0.1,0.3-0.1,0.5c0,0.3-0.1,0.5-0.1,0.7
		s0,0.4,0,0.6c0,0.3,0,0.6,0.1,0.9c0,0.2,0.2,0.5,0.3,0.6c0.1,0.1,0.3,0.2,0.5,0.2s0.4,0,0.5,0c0.4,0,0.6-0.1,0.8-0.2
		c0.2-0.1,0.4-0.2,0.7-0.3c0.4-0.1,0.9-0.3,1.3-0.5c0.1-0.1,0.4-0.2,0.6-0.3c0.3-0.1,0.5-0.2,0.6-0.2s0.2-0.1,0.2-0.1
		c0.1,0,0.2,0,0.3,0c0.1,0,0.2,0.1,0.3,0.3c0,0.1,0.1,0.2,0.1,0.3v0.1c0,0,0,0.1-0.1,0.2c-0.1,0.1-0.2,0.2-0.4,0.4
		c-0.2,0.1-0.4,0.3-0.7,0.4c-0.2,0.1-0.5,0.3-0.9,0.4c-0.1,0.1-0.2,0.1-0.4,0.2c-0.2,0.1-0.4,0.1-0.6,0.2c-0.2,0.1-0.4,0.1-0.6,0.2
		c-0.2,0.1-0.3,0.1-0.4,0.1c-0.3,0.1-0.6,0.1-0.8,0.1c-0.2,0-0.5,0-0.7,0c-0.7,0-1.2-0.2-1.5-0.5c-0.4-0.3-0.6-0.7-0.7-1.3
		c0-0.2-0.1-0.5-0.1-0.9C1083,34.8,1083,34.5,1083,34.4z M1094.7,35c0-0.1,0-0.2,0-0.3s0-0.3,0-0.5s0-0.3,0.1-0.5
		c0-0.2,0-0.3,0.1-0.4c0,0,0-0.1,0.1-0.3s0.1-0.4,0.1-0.6c0-0.2,0.1-0.4,0.1-0.6s0.1-0.3,0.1-0.4c0-0.1,0-0.2,0.1-0.4
		c0.1-0.2,0-0.3,0.1-0.5c-0.3,0.2-0.7,0.4-1.1,0.5c-0.4,0.2-0.8,0.4-1.1,0.6c-0.5,0.3-1,0.5-1.5,0.8c-0.5,0.2-1.1,0.5-1.6,0.7
		c-0.2,0.1-0.4,0.2-0.5,0.3s-0.3,0.2-0.5,0.2s-0.4,0-0.4-0.1c-0.1-0.1-0.1-0.2-0.2-0.4c0-0.1-0.1-0.2-0.1-0.3s0-0.2,0-0.2
		c0-0.3,0.2-0.5,0.4-0.6c0.3-0.1,0.5-0.2,0.7-0.3c0.3-0.1,0.6-0.3,0.9-0.4c0.3-0.1,0.7-0.3,1-0.4c0.5-0.2,1.1-0.5,1.6-0.7
		s1-0.5,1.5-0.7c0.2-0.1,0.4-0.2,0.6-0.3c0.2-0.1,0.4-0.3,0.6-0.4c0.1-0.1,0.2-0.1,0.2-0.2c0-0.1,0.1-0.1,0.1-0.1
		c0.1-0.3,0.2-0.5,0.3-0.6c0.1-0.1,0.1-0.4,0.2-0.6c0-0.1,0.1-0.2,0.2-0.4s0.1-0.3,0.2-0.3c0-0.1,0.1-0.1,0.3-0.2
		c0.2-0.1,0.3,0,0.4,0c0.3,0,0.4,0.1,0.5,0.2c0.1,0.1,0.1,0.2,0.1,0.4c0,0.4-0.1,0.7-0.2,1s-0.3,0.6-0.3,0.9
		c-0.1,0.2-0.1,0.5-0.3,0.8c-0.1,0.3-0.2,0.5-0.2,0.6c-0.1,0.6-0.2,1.1-0.3,1.7c-0.1,0.6-0.2,1.2-0.3,1.9c-0.1,0.4-0.2,0.9-0.2,1.3
		s-0.1,0.9-0.1,1.3c0,0.3,0,0.6,0,1.1s0,0.9,0,1.3s0.1,0.9,0.1,1.3s0.1,0.8,0.2,1.1c0,0.1,0.1,0.2,0.1,0.3s0,0.2,0.1,0.3
		c0,0.2,0,0.4,0,0.5c0,0.2-0.1,0.3-0.3,0.3c-0.2,0.1-0.3,0.1-0.5,0c-0.1-0.1-0.2-0.1-0.3-0.2c-0.1-0.1-0.1-0.2-0.2-0.3
		s-0.1-0.2-0.1-0.3s-0.1-0.2-0.1-0.2c0-0.1,0-0.1-0.1-0.2c-0.1-0.3-0.2-0.7-0.3-1.2c-0.1-0.5-0.1-1-0.2-1.5c0-0.5-0.1-1-0.1-1.5
		s0-0.9,0-1.3L1094.7,35L1094.7,35z"/>
	<path class="st1" d="M1110,34.6c0.1-0.1,0.3-0.3,0.5-0.4c0.2-0.1,0.5-0.3,0.8-0.5c0-0.2,0.1-0.4,0.1-0.7s0.1-0.5,0.1-0.7
		c0-0.1,0.1-0.3,0.1-0.5s0.1-0.5,0.1-0.8s0.1-0.6,0.1-0.9s0.1-0.5,0.1-0.7c0-0.3,0-0.5-0.2-0.7c-0.2-0.1-0.3-0.2-0.6-0.2
		c-0.4,0-0.8,0.1-1.2,0.3c-0.4,0.2-0.7,0.5-1,1.1c0,0,0,0.1-0.1,0.3c0,0.1-0.1,0.3-0.1,0.5s-0.1,0.4-0.1,0.6s0,0.4,0,0.5
		c0,0.2,0,0.3,0,0.4c0,0.1,0,0.1,0,0.2c0,0,0,0.1,0,0.2s0,0.2,0,0.4c0,0.4-0.1,0.6-0.3,0.7c-0.2,0.1-0.3,0.1-0.4,0.1s-0.3,0-0.4-0.1
		s-0.2-0.2-0.3-0.3c-0.1-0.1-0.1-0.3-0.2-0.4s-0.1-0.3-0.1-0.4c0-0.1,0-0.2-0.1-0.4c-0.1-0.2,0-0.3,0-0.3c0-0.1,0-0.3,0-0.4
		c0-0.2,0-0.4,0-0.6s0-0.4,0.1-0.6c0-0.2,0-0.4,0-0.5c0,0,0-0.1,0-0.3c0-0.2,0-0.3,0.1-0.5s0.1-0.4,0.1-0.6s0.1-0.4,0.1-0.5
		c0.1-0.4,0.1-0.6,0.2-0.8c0-0.2,0.1-0.4,0.2-0.7c0.1-0.2,0.3-0.3,0.5-0.4c0.2,0,0.5,0,0.7,0.1c0.1,0.1,0.2,0.1,0.3,0.3
		c0,0.1,0.1,0.2,0,0.4s-0.1,0.5-0.2,0.7s-0.1,0.4-0.2,0.6c0.2-0.1,0.4-0.2,0.6-0.3s0.3-0.1,0.5-0.2c0.2-0.1,0.4-0.1,0.5-0.1
		c0.2,0,0.4-0.1,0.7-0.1c0.6,0,1,0.1,1.5,0.4c0.4,0.3,0.6,0.7,0.6,1.3c0,0.3-0.1,0.6-0.1,0.9s-0.1,0.7-0.1,1s-0.1,0.6-0.2,0.9
		s-0.1,0.5-0.1,0.7c0,0.2-0.1,0.4-0.1,0.5c0,0.1-0.1,0.3-0.1,0.4c0.5-0.1,0.8-0.3,1-0.3c0.2-0.1,0.5-0.1,0.8-0.2
		c0.1,0,0.2,0,0.3,0.1s0.1,0.1,0.2,0.2c0,0.1,0.1,0.2,0.1,0.3s-0.1,0.2-0.1,0.2c-0.1,0.1-0.2,0.1-0.3,0.2s-0.3,0.2-0.5,0.3
		s-0.3,0.2-0.5,0.3s-0.3,0.2-0.4,0.2c-0.1,0.1-0.3,0.1-0.5,0.3c-0.2,0.1-0.5,0.2-0.8,0.4c-0.1,0-0.2,0.1-0.3,0.2
		c-0.1,0.1-0.3,0.2-0.4,0.3s-0.3,0.2-0.4,0.3s-0.2,0.1-0.3,0.2c-0.2,0.1-0.3,0.1-0.5,0s-0.3-0.2-0.3-0.3c-0.1-0.1-0.1-0.3-0.1-0.4
		C1109.8,34.9,1109.9,34.7,1110,34.6z M1121.6,35c-0.1-0.1-0.1-0.4-0.1-0.8c0-0.4,0-0.8,0-1.2s0-0.8,0.1-1.2c0-0.4,0-0.7,0-0.9
		c0-0.1,0-0.2,0-0.4c0-0.2,0-0.3,0.1-0.5c0-0.2,0-0.3,0.1-0.5c0-0.2,0-0.3,0-0.3c0-0.1,0-0.3,0.1-0.4c0.1-0.1,0-0.3,0-0.4
		c-0.1,0.1-0.4,0.2-0.7,0.4c-0.3,0.2-0.6,0.3-0.8,0.5c-0.3,0.2-0.6,0.3-1,0.5s-0.8,0.3-1.2,0.4c-0.4,0.1-0.8,0.2-1.2,0.3
		c-0.4,0.1-0.8,0.2-1.2,0.2c-0.2,0-0.4,0-0.5-0.2s-0.2-0.3-0.2-0.5c0-0.1,0-0.3,0.1-0.5s0.2-0.3,0.4-0.3c0.2,0,0.5-0.1,0.8-0.1
		s0.6-0.1,0.8-0.2c1-0.3,1.9-0.6,2.7-1c0.8-0.4,1.5-0.9,2.3-1.5c0.2-0.1,0.3-0.3,0.4-0.5s0.1-0.4,0.2-0.6s0.2-0.3,0.3-0.5
		s0.3-0.2,0.5-0.2c0.5,0,0.7,0.2,0.7,0.7c0,0.3,0,0.5-0.1,0.7s-0.2,0.4-0.3,0.6c-0.2,0.5-0.4,1.1-0.5,1.7c-0.1,0.6-0.1,1.2-0.2,1.7
		c0,0.2,0,0.5-0.1,0.8s0,0.7-0.1,1.1c0,0.4,0,0.7,0,1.1c0,0.3,0,0.6,0,0.8c0,0.3,0,0.6-0.1,0.9c-0.1,0.3-0.3,0.4-0.6,0.5
		c-0.1,0-0.2,0-0.4,0C1121.7,35.2,1121.6,35.1,1121.6,35z M1121.7,44.5c0,0.2-0.1,0.3-0.3,0.4c-0.1,0.1-0.3,0.1-0.5,0.1
		s-0.3-0.1-0.4-0.2s-0.2-0.2-0.2-0.4c0-0.5,0-0.9,0.1-1.4c0-0.5,0.1-0.9,0.2-1.2s0.2-0.6,0.2-0.8s0.2-0.4,0.3-0.6
		c0.1-0.2,0.2-0.4,0.3-0.7s0.2-0.6,0.3-0.9c0.1-0.1,0-0.3-0.1-0.4s-0.3-0.2-0.6-0.2c-0.7,0-1.2,0.1-1.7,0.3s-1,0.5-1.6,0.9
		c-0.2,0.1-0.3,0.2-0.5,0.4s-0.4,0.2-0.6,0.2s-0.3-0.1-0.4-0.3s-0.2-0.4-0.2-0.6c0-0.2,0.1-0.4,0.4-0.6s0.6-0.4,1-0.6
		c0.4-0.2,0.7-0.4,1.1-0.5s0.7-0.2,0.8-0.3c0.6-0.1,1.1-0.2,1.5-0.3c0.5-0.1,1-0.1,1.5,0c0.7,0.1,1,0.5,1,1.2s-0.1,1.4-0.4,2
		c-0.2,0.6-0.4,1.2-0.6,1.8c-0.1,0.4-0.2,0.8-0.4,1.3C1121.8,43.3,1121.7,43.8,1121.7,44.5z"/>
	<path class="st1" d="M1126.5,35.2c0-0.1,0.1-0.3,0.2-0.4c0.1-0.1,0.2-0.2,0.3-0.2c1.3-0.5,2.6-0.9,4-1.1c1.4-0.2,2.9-0.3,4.5-0.3
		c0.6,0,1.2,0,1.6,0.1c0.5,0.1,0.9,0.1,1.2,0.2c0.3,0.1,0.6,0.2,0.9,0.4s0.3,0.4,0.2,0.7c0,0.1-0.1,0.1-0.2,0.1s-0.2,0-0.3,0
		c-0.2,0-0.6,0-1-0.1c-0.4,0-0.8-0.1-1.2-0.1c-0.5-0.1-1.1-0.1-1.6-0.1c-1,0-1.9,0.1-2.9,0.2c-1,0.1-1.9,0.3-3,0.6
		c-0.3,0.1-0.7,0.2-1.1,0.4s-0.7,0.3-1,0.4c-0.3,0-0.5,0-0.6-0.3C1126.5,35.6,1126.5,35.4,1126.5,35.2z M1129.1,43.1
		c-0.1-0.3-0.1-0.7,0-1.2s0.1-0.9,0.2-1.4s0.2-0.9,0.2-1.4c0.1-0.5,0.2-0.9,0.2-1.2c0-0.2,0-0.3,0-0.5s0-0.3,0.1-0.4
		c0-0.1,0.1-0.2,0.2-0.3s0.3-0.2,0.5-0.2c0.3-0.1,0.5,0,0.7,0.2s0.2,0.4,0.2,0.6c0,0.2,0,0.4,0,0.6c0,0.2-0.1,0.4-0.1,0.6
		c-0.1,0.2-0.1,0.4-0.2,0.6c-0.1,0.2-0.1,0.4-0.1,0.5c0,0.3-0.1,0.6-0.1,1s-0.1,0.7-0.1,1.1c0,0.4-0.1,0.8-0.1,1.1s-0.1,0.7-0.2,1
		c0,0.1-0.1,0.2-0.2,0.3s-0.2,0.1-0.3,0.1c-0.3,0-0.5-0.1-0.6-0.3C1129.2,43.6,1129.1,43.4,1129.1,43.1z M1130.1,29.8
		c0-0.4,0.1-0.8,0.2-1.2c0.1-0.4,0.3-0.8,0.5-1.1s0.4-0.7,0.7-1c0.2-0.3,0.5-0.5,0.7-0.7c0.1-0.1,0.2-0.1,0.3-0.1s0.2,0,0.4-0.1
		c0.1,0,0.1-0.1,0.2-0.1s0.2-0.1,0.3-0.1c0.4,0,0.7,0.2,1,0.6c0.3,0.4,0.4,0.8,0.4,1.2s-0.1,0.9-0.2,1.3c-0.1,0.4-0.4,0.8-0.7,1.2
		c-0.3,0.4-0.6,0.7-1.1,0.9c-0.4,0.2-0.9,0.4-1.4,0.4c-0.4,0-0.7-0.1-1-0.3C1130.3,30.5,1130.1,30.2,1130.1,29.8z M1133.5,26.7
		c-0.2,0.1-0.3,0.3-0.5,0.5s-0.4,0.5-0.5,0.8c-0.2,0.3-0.3,0.6-0.4,0.9s-0.2,0.6-0.2,0.9c0.2,0,0.4-0.1,0.6-0.2
		c0.2-0.1,0.4-0.3,0.6-0.6c0.2-0.2,0.3-0.5,0.4-0.8s0.2-0.6,0.2-0.8C1133.6,27,1133.6,26.8,1133.5,26.7z M1135.1,39.5
		c0.1-0.2,0-0.4,0-0.6c-0.1-0.2-0.2-0.2-0.4-0.2c-0.3,0-0.6,0-0.9,0.1s-0.6,0.2-1.1,0.3s-0.7-0.2-0.7-0.8c0-0.2,0-0.3,0.1-0.4
		s0.2-0.2,0.3-0.2c0.1-0.1,0.3-0.1,0.4-0.1s0.3-0.1,0.4-0.1c0.2,0,0.5-0.1,0.9-0.1s0.6,0,0.8,0c0.6,0,1,0.1,1.3,0.3s0.4,0.6,0.4,1.1
		c0,0.3-0.1,0.7-0.3,1.3c-0.2,0.5-0.4,1-0.6,1.5c0.6-0.1,1.1-0.2,1.6-0.2s1-0.1,1.6-0.1c0.2,0,0.4,0,0.5,0s0.3,0,0.5,0
		s0.4,0.1,0.4,0.2c0.1,0.1,0.1,0.2,0.2,0.3c0,0.1,0,0.2-0.1,0.3s-0.2,0.2-0.3,0.2c-0.1,0-0.4,0.1-0.6,0.1c-0.3,0-0.5,0-0.6,0.1
		c-0.7,0.1-1.4,0.2-2.1,0.3s-1.3,0.3-2.1,0.5c-0.4,0.1-0.8,0.2-1.1,0.4c-0.3,0.2-0.7,0.3-1,0.3c-0.1,0-0.2,0-0.4,0s-0.3-0.1-0.3-0.2
		c-0.1-0.1-0.1-0.2-0.2-0.4c0-0.2,0-0.3,0.2-0.5c0-0.1,0.2-0.2,0.3-0.2c0.2-0.1,0.4-0.1,0.5-0.2c0.2-0.1,0.4-0.2,0.6-0.3
		s0.4-0.3,0.6-0.5s0.3-0.5,0.5-0.9C1134.8,40.3,1135,39.9,1135.1,39.5z"/>
	<path class="st1" d="M1151.8,36c0.1-0.5,0.2-1,0.4-1.4c0.2-0.4,0.4-0.8,0.7-1.2c0.3-0.4,0.6-0.8,1-1.3c0.4-0.4,0.8-0.8,1.2-1.2
		c0.3-0.3,0.7-0.6,1.1-1c0.4-0.4,0.8-0.7,1.1-1c0.2-0.1,0.3-0.2,0.5-0.4c0.2-0.1,0.4-0.2,0.6-0.2c0.1,0,0.3,0,0.5,0.1
		c0.2,0.1,0.3,0.2,0.3,0.4c0,0.1,0,0.3-0.1,0.4c-0.1,0.1-0.2,0.3-0.3,0.4c-0.1,0.1-0.3,0.2-0.4,0.4c-0.1,0.1-0.3,0.2-0.4,0.4
		c0.6,0.1,1.2,0.2,1.7,0.2c0.5,0.1,1,0.1,1.4,0.2c0.9,0.1,1.9,0.3,2.8,0.6c0.2,0.1,0.5,0.1,0.7,0.3c0.3,0.1,0.4,0.3,0.4,0.5
		c0,0.3-0.1,0.4-0.3,0.5c-0.2,0.1-0.4,0.1-0.7,0c-0.4-0.1-0.8-0.1-1.2-0.2c-0.4-0.1-0.8-0.1-1.2-0.2c-0.4,0-0.7-0.1-1.1-0.2
		c-0.4-0.1-0.7-0.1-1.1-0.2c-0.2,0-0.4,0-0.7-0.1c-0.3,0-0.6-0.1-0.9-0.1s-0.6,0-0.9,0s-0.5,0.1-0.7,0.2c-0.2,0.1-0.3,0.2-0.5,0.3
		c-0.2,0.1-0.3,0.2-0.4,0.3c-0.3,0.3-0.6,0.6-0.8,0.9c-0.2,0.3-0.5,0.7-0.7,1s-0.4,0.6-0.5,0.8s-0.2,0.5-0.3,0.7
		c-0.1,0.2-0.2,0.4-0.3,0.5c-0.1,0.1-0.3,0.2-0.7,0.2c-0.2,0-0.3-0.1-0.4-0.3C1151.8,36.5,1151.8,36.3,1151.8,36z"/>
	<path class="st1" d="M1180.6,36c0-0.1,0.1-0.4,0.2-0.6c0.1-0.3,0.2-0.5,0.3-0.8c0.1-0.3,0.3-0.7,0.4-1.2c0.2-0.5,0.3-1,0.4-1.3
		c0-0.1,0-0.1,0-0.2c0-0.1,0-0.2,0-0.2c0-0.2-0.1-0.4-0.2-0.6c-0.1-0.1-0.3-0.2-0.5-0.3s-0.4-0.1-0.6-0.1s-0.4,0-0.6,0
		c-0.1,0-0.4,0-0.8,0s-1,0.1-1.9,0.2c-0.2,0-0.4,0-0.7,0c-0.3-0.1-0.4-0.2-0.4-0.6c0-0.1,0-0.3,0.1-0.5s0.2-0.3,0.3-0.3
		c0.4-0.1,0.9-0.1,1.5-0.2c0.6-0.1,1.2-0.1,1.8-0.1c0.4,0,0.8,0,1.3,0.1c0.5,0.1,0.9,0.2,1.3,0.4c0.4,0.1,0.6,0.4,0.7,0.8
		c0.1,0.4,0.1,0.8,0.1,1.1c0,0.2,0,0.5-0.1,0.7c0,0.3-0.1,0.5-0.2,0.7c0,0,0,0.1-0.1,0.3s-0.1,0.4-0.2,0.6c-0.1,0.2-0.2,0.4-0.2,0.6
		s-0.1,0.4-0.2,0.4c-0.1,0.1-0.1,0.3-0.2,0.4c-0.1,0.2-0.2,0.4-0.3,0.5c-0.1,0.2-0.2,0.3-0.3,0.4c-0.1,0.1-0.2,0.2-0.3,0.2
		c-0.2,0-0.4,0-0.5-0.1C1180.7,36.3,1180.6,36.2,1180.6,36z"/>
</g>
</svg>
