<?xml version="1.0" encoding="utf-8"?>
<!-- Generator: Adobe Illustrator 24.0.1, SVG Export Plug-In . SVG Version: 6.00 Build 0)  -->
<svg version="1.1" id="레이어_1" xmlns="http://www.w3.org/2000/svg" xmlns:xlink="http://www.w3.org/1999/xlink" x="0px"
	 y="0px" viewBox="0 0 2160 70" style="enable-background:new 0 0 2160 70;" xml:space="preserve">
<style type="text/css">
	.st0{fill:#454859;}
	.st1{fill:#FFFFFF;}
</style>
<title>top</title>
<rect class="st0" width="2160" height="70"/>
<g>
	<path class="st1" d="M973.1,34.5c0-0.1,0.1-0.3,0.2-0.4c0.1-0.1,0.2-0.2,0.3-0.2c0.6-0.3,1.2-0.5,1.8-0.7s1.2-0.3,1.7-0.4
		c0.6-0.1,1.2-0.2,1.8-0.2c0.6,0,1.3-0.1,2-0.1h1.5c0.6,0,1.2,0,1.6,0.1s0.9,0.1,1.2,0.2c0.3,0.1,0.6,0.2,0.9,0.4
		c0.3,0.2,0.3,0.4,0.2,0.7c0,0.1-0.1,0.1-0.2,0.1c-0.1,0-0.2,0-0.3,0c-0.2,0-0.6,0-1-0.1c-0.4,0-0.8-0.1-1.2-0.1
		c-0.5-0.1-1.1-0.1-1.6-0.1c-1.1,0-2.1,0.1-3.1,0.2c-1,0.1-2,0.3-3,0.6c-0.3,0.1-0.7,0.2-1.1,0.4c-0.4,0.2-0.7,0.3-1,0.4
		c-0.3,0-0.5,0-0.6-0.3C973.2,34.9,973.1,34.7,973.1,34.5z M976.7,28.8c0-0.4,0.1-0.8,0.2-1.2c0.1-0.4,0.3-0.8,0.5-1.1
		c0.2-0.3,0.4-0.7,0.7-1c0.2-0.3,0.5-0.5,0.7-0.7c0.1-0.1,0.2-0.1,0.3-0.1s0.2,0,0.4-0.1c0.1,0,0.1-0.1,0.2-0.1
		c0.1,0,0.2-0.1,0.3-0.1c0.4,0,0.7,0.2,1,0.6c0.3,0.4,0.4,0.8,0.4,1.2c0,0.4-0.1,0.9-0.2,1.3c-0.1,0.4-0.4,0.8-0.7,1.2
		c-0.3,0.4-0.6,0.7-1.1,0.9c-0.4,0.2-0.9,0.4-1.4,0.4c-0.4,0-0.7-0.1-1-0.3C976.9,29.4,976.7,29.2,976.7,28.8z M977.1,41.6
		c0-0.2,0-0.5,0.1-0.7c0.1-0.3,0.1-0.5,0.2-0.7c0-0.1,0.1-0.3,0.2-0.4c0.1-0.2,0.2-0.4,0.3-0.5c0.1-0.2,0.2-0.3,0.3-0.5
		c0.1-0.2,0.2-0.3,0.2-0.4c0.2-0.4,0.5-0.7,0.8-1.1c0.3-0.4,0.6-0.5,0.9-0.5c0.3,0,0.5,0.1,0.6,0.3c0.1,0.2,0.1,0.4,0,0.7
		c0,0,0,0.1-0.1,0.2c0,0.1-0.1,0.2-0.1,0.3c0.2,0.1,0.4,0.3,0.5,0.6c0.1,0.3,0.2,0.6,0.2,0.9c0,0.5,0,1-0.3,1.4
		c-0.2,0.4-0.5,0.8-0.8,1.1c-0.1,0.1-0.2,0.2-0.4,0.3c-0.1,0.1-0.3,0.2-0.5,0.3c-0.2,0.1-0.4,0.1-0.6,0.2c-0.2,0-0.4,0-0.7,0
		c-0.4-0.1-0.6-0.2-0.7-0.5C977.2,42.1,977.1,41.9,977.1,41.6z M980.1,25.6c-0.2,0.1-0.4,0.3-0.5,0.5c-0.2,0.2-0.4,0.5-0.5,0.8
		c-0.2,0.3-0.3,0.6-0.4,0.9c-0.1,0.3-0.2,0.6-0.2,0.9c0.2,0,0.4-0.1,0.6-0.2c0.2-0.1,0.4-0.3,0.6-0.6c0.2-0.2,0.3-0.5,0.4-0.8
		c0.1-0.3,0.2-0.6,0.2-0.8C980.3,26,980.2,25.8,980.1,25.6z M979.8,39c-0.1,0.1-0.2,0.2-0.4,0.4c-0.1,0.2-0.3,0.5-0.4,0.7
		c-0.1,0.3-0.3,0.5-0.4,0.8c-0.1,0.3-0.1,0.5-0.1,0.7c0.3,0,0.7-0.2,1-0.6c0.3-0.4,0.5-0.8,0.5-1.3c0-0.1,0-0.3,0-0.4
		C979.9,39.2,979.9,39.1,979.8,39z"/>
	<path class="st1" d="M995.5,33.3c0-0.3-0.1-0.6-0.1-1.1c0-0.5,0-1,0-1.6c0-0.6,0.1-1.2,0.2-1.8c0.1-0.6,0.2-1.2,0.3-1.7
		c0-0.1,0-0.2,0.1-0.3c0-0.1,0.1-0.2,0.1-0.3c0.1-0.1,0.1-0.2,0.3-0.3c0.1-0.1,0.3-0.1,0.5-0.1c0.2,0,0.3,0.1,0.5,0.2
		c0.2,0.2,0.2,0.4,0.2,0.6c-0.1,0.4-0.1,0.8-0.2,1.3c-0.1,0.5-0.1,0.9-0.2,1.3c0,0.3-0.1,0.7-0.1,1.1c0,0.4-0.1,0.9-0.1,1.3
		c0,0.3,0,0.4,0.2,0.5c0.1,0.1,0.3,0.1,0.4,0.1c0.8-0.3,1.6-0.6,2.4-0.9s1.4-0.6,1.9-0.7c0.2,0,0.4,0,0.5,0.3c0,0.1,0,0.2,0,0.4
		c0,0.2-0.1,0.3-0.3,0.4c-0.1,0.1-0.3,0.3-0.5,0.4c-0.2,0.1-0.4,0.2-0.5,0.3c-0.1,0.1-0.4,0.2-0.7,0.4c-0.3,0.2-0.6,0.3-1,0.5
		c-0.4,0.2-0.7,0.3-1.1,0.5c-0.4,0.1-0.7,0.2-1,0.3c-0.4,0.1-0.7,0-1.1-0.2C995.8,34.1,995.6,33.7,995.5,33.3z M1003.7,42.2
		c0-0.1,0.1-0.3,0.2-0.4c0.1-0.1,0.3-0.2,0.4-0.3c0.1-0.1,0.3-0.2,0.5-0.2s0.3-0.2,0.4-0.3c0.1,0,0.1-0.1,0.2-0.2
		c0.1-0.1,0.1-0.1,0.1-0.2c0.3-0.4,0.5-0.9,0.6-1.3s0.2-0.9,0.2-1.4c0-0.4-0.2-0.6-0.6-0.6c-0.2,0-0.3,0-0.5,0c-0.2,0-0.3,0-0.5,0.1
		c-0.6,0.2-1,0.4-1.2,0.6c-0.3,0.2-0.5,0.6-0.8,1c-0.1,0.2-0.2,0.5-0.3,0.9c0,0.4-0.1,0.8-0.1,1.3c0,0.1-0.1,0.3-0.2,0.4
		c-0.1,0.1-0.3,0.1-0.6,0.1c-0.2,0-0.4-0.1-0.5-0.2c-0.1-0.1-0.2-0.3-0.2-0.4c0-0.2-0.1-0.4,0-0.5c0-0.2,0-0.4,0-0.5s0-0.3,0-0.6
		c0-0.2,0-0.5,0.1-0.7c0-0.3,0.1-0.5,0.1-0.7c0-0.2,0.1-0.5,0.1-0.6c0.1-0.3,0.2-0.6,0.2-0.8c0-0.2,0.1-0.4,0.2-0.8
		c0.1-0.4,0.3-0.7,0.5-0.9c0.2-0.2,0.5-0.3,0.9-0.3c0.1,0,0.3,0.1,0.4,0.2c0.1,0.1,0.2,0.2,0.2,0.4c-0.1,0.3-0.2,0.6-0.3,0.9
		s-0.1,0.5-0.2,0.8c0.1-0.1,0.3-0.2,0.4-0.3s0.3-0.2,0.4-0.3c0.3-0.1,0.6-0.3,0.8-0.4c0.2-0.1,0.5-0.1,0.8-0.2c0.4,0,0.9,0,1.2,0.1
		c0.4,0.1,0.7,0.3,0.9,0.7c0.1,0.3,0.2,0.6,0.2,1.1c0,0.5-0.1,0.9-0.2,1.4c0,0.1-0.1,0.1-0.1,0.3c0,0.1-0.1,0.3-0.2,0.4
		c-0.1,0.1-0.1,0.3-0.2,0.4c-0.1,0.1-0.1,0.2-0.1,0.3c0.3-0.1,0.6-0.2,0.9-0.2s0.5-0.1,0.8-0.2c0.4,0,0.7-0.1,1.1-0.1
		c0.3,0,0.7,0,1,0c0.1,0,0.2,0.1,0.3,0.2c0.1,0.1,0.1,0.2,0.1,0.4c0,0.1,0,0.2-0.1,0.4c-0.1,0.1-0.2,0.2-0.3,0.2
		c-0.6,0.1-1.1,0.2-1.7,0.3c-0.6,0.2-1.2,0.3-1.8,0.5c-0.2,0.1-0.5,0.1-0.7,0.2s-0.5,0.2-0.7,0.3c-0.3,0.1-0.5,0.3-0.8,0.5
		c-0.3,0.2-0.6,0.2-0.9,0.2c-0.2,0-0.4-0.1-0.5-0.3C1003.7,42.6,1003.7,42.4,1003.7,42.2z M1006.1,32.5c0-0.4,0-0.7,0.1-0.9
		c0-0.2,0.1-0.5,0.1-0.9c0.1-0.4,0.1-0.8,0.2-1.2c0.1-0.4,0.1-0.9,0.2-1.3c0.1-0.4,0.2-0.9,0.3-1.3c0.1-0.4,0.2-0.8,0.3-1.2
		c0.1-0.3,0.2-0.6,0.3-0.9c0.1-0.3,0.2-0.5,0.3-0.7c0.1-0.1,0.3-0.2,0.5-0.2s0.5,0,0.6,0.1c0.1,0.1,0.1,0.1,0.2,0.2s0.1,0.2,0.1,0.2
		c0,0.3-0.1,0.5-0.2,0.7c-0.1,0.2-0.2,0.4-0.3,0.6c-0.3,0.8-0.5,1.8-0.7,2.8c-0.2,1-0.4,2-0.6,3c-0.1,0.3-0.1,0.6-0.2,0.8
		c-0.1,0.2-0.1,0.5-0.1,0.8c0,0.2-0.1,0.4-0.2,0.6c-0.1,0.2-0.3,0.3-0.4,0.2c-0.2,0-0.3-0.1-0.4-0.2c-0.1-0.1-0.2-0.2-0.2-0.4
		c0-0.1-0.1-0.3-0.1-0.4S1006.1,32.6,1006.1,32.5z"/>
	<path class="st1" d="M1011.9,32.2c0-0.1,0-0.2,0.1-0.4c0.1-0.1,0.1-0.2,0.2-0.3c0.1-0.1,0.4-0.1,0.7-0.3c0.4-0.1,0.8-0.2,1.2-0.4
		c0.4-0.1,0.8-0.2,1.2-0.3c0.4-0.1,0.6-0.2,0.8-0.2c0.4-0.1,0.9-0.2,1.5-0.3c0.5-0.1,1.1-0.2,1.6-0.3c0.6-0.1,1.1-0.1,1.6-0.2
		c0.5,0,1-0.1,1.5-0.1c0.2,0,0.5,0,0.8,0c0.3,0,0.5,0.1,0.6,0.2c0.1,0,0.2,0.1,0.2,0.1c0,0.1,0.1,0.1,0.1,0.1c0,0.1,0,0.3,0,0.4
		c-0.1,0.1-0.1,0.2-0.2,0.2c-0.4,0.1-0.7,0.2-1,0.2s-0.7,0.1-1.1,0.1c-0.3,0-0.6,0-0.9,0.1c-0.4,0-0.7,0.1-1.1,0.1
		c-0.4,0.1-0.8,0.1-1.1,0.2c-0.4,0.1-0.7,0.1-1,0.2c-0.2,0.1-0.5,0.1-0.9,0.3c-0.4,0.1-0.8,0.2-1.3,0.4c-0.4,0.1-0.9,0.3-1.3,0.4
		c-0.4,0.1-0.7,0.2-0.9,0.3c-0.2,0.1-0.4,0.2-0.6,0.2c-0.2,0-0.4-0.1-0.5-0.3C1011.9,32.6,1011.9,32.4,1011.9,32.2z M1012.9,23.4
		c0-0.3,0.2-0.6,0.6-0.9c0.3-0.2,0.6-0.4,1-0.6s0.8-0.3,1.2-0.4s0.8-0.2,1.2-0.3c0.4-0.1,0.7-0.1,0.9-0.1c0.1,0,0.3,0,0.4,0
		c0.2,0,0.3,0,0.4,0c0.2,0,0.4,0.1,0.5,0.2c0.1,0.1,0.1,0.2,0.1,0.4c0,0.3-0.1,0.4-0.3,0.5c-0.1,0-0.3,0-0.5,0.1
		c-0.2,0-0.4,0.1-0.6,0.1c-0.4,0.1-0.8,0.2-1.1,0.3c-0.4,0.1-0.7,0.2-1.2,0.3c-0.4,0.1-0.7,0.3-0.9,0.5c-0.2,0.2-0.4,0.4-0.5,0.5
		s-0.3,0.2-0.5,0.2c-0.3,0-0.5-0.1-0.6-0.2C1013,23.9,1012.9,23.7,1012.9,23.4z M1016,46.2c0-0.3,0.1-0.6,0.3-1
		c0.2-0.3,0.4-0.7,0.7-1c0.3-0.3,0.5-0.6,0.8-0.8c0.3-0.2,0.4-0.4,0.6-0.6c0.1-0.1,0.2-0.2,0.4-0.4c0.2-0.2,0.4-0.4,0.6-0.7
		c0.2-0.2,0.4-0.5,0.6-0.7c0.2-0.2,0.4-0.4,0.5-0.5c-0.2,0-0.5,0-0.8,0c-0.3,0-0.8,0-1.4,0c-0.5,0-0.8-0.1-1.1-0.4
		c-0.3-0.3-0.4-0.6-0.3-1c0-0.2,0.2-0.5,0.4-0.9c0.3-0.3,0.6-0.7,0.9-1s0.7-0.7,1-1s0.6-0.5,0.8-0.7c0.1-0.1,0.2-0.2,0.3-0.3
		c0.1-0.1,0.2-0.2,0.3-0.3c0.1-0.1,0.2-0.2,0.2-0.2s0.1-0.1,0.1-0.1c0-0.1,0-0.1,0-0.2s-0.1-0.1-0.2-0.1c-0.6,0.1-1.3,0.2-2,0.3
		c-0.7,0.2-1.3,0.4-1.8,0.6c-0.2,0.1-0.5,0.2-0.7,0.3c-0.2,0.1-0.5,0.2-0.7,0.4c-0.2,0.1-0.4,0.3-0.6,0.4c-0.2,0.1-0.3,0.2-0.5,0.2
		c-0.3,0-0.5-0.1-0.6-0.2c-0.1-0.2-0.2-0.3-0.2-0.5c0-0.2,0.1-0.4,0.3-0.6c0.3-0.3,0.8-0.6,1.5-0.8c0.7-0.3,1.4-0.5,2.2-0.7
		c0.8-0.2,1.5-0.4,2.3-0.5c0.7-0.1,1.4-0.2,1.8-0.2c0.4,0,0.7,0.1,0.9,0.3c0.3,0.2,0.4,0.5,0.4,0.8c0,0.2-0.1,0.5-0.3,0.8
		c-0.2,0.3-0.5,0.6-0.8,0.9c-0.3,0.3-0.6,0.6-0.9,0.9c-0.3,0.3-0.6,0.5-0.8,0.7c-0.2,0.2-0.4,0.4-0.7,0.7c-0.3,0.3-0.5,0.6-0.7,0.8
		c0,0.1,0,0.1,0,0.2c0,0.1,0.1,0.1,0.2,0.1c0.4,0,0.8,0,1.1,0c0.4,0,0.8,0,1.2,0c0.3,0,0.6,0.1,0.8,0.3s0.4,0.4,0.4,0.6
		c0,0.2,0,0.4-0.1,0.5s-0.2,0.2-0.2,0.3c0,0-0.1,0.1-0.4,0.4c-0.2,0.2-0.4,0.4-0.6,0.6c-0.6,0.6-1.1,1.2-1.7,1.8
		c-0.6,0.6-1.1,1.2-1.6,1.8c-0.1,0.2-0.2,0.4-0.1,0.6c0.1,0.2,0.3,0.3,0.8,0.3c0.3,0,0.7-0.1,1.2-0.2c0.4-0.1,0.9-0.2,1.4-0.3
		c0.5-0.1,0.9-0.2,1.4-0.3c0.5-0.1,0.9-0.2,1.2-0.3c0.1,0,0.3,0,0.4,0s0.1,0.1,0.2,0.1c0.1,0.1,0.1,0.2,0.1,0.4
		c0,0.2-0.1,0.3-0.4,0.5c-0.4,0.2-0.9,0.4-1.5,0.5c-0.6,0.2-1.3,0.3-1.9,0.5s-1.2,0.2-1.8,0.3c-0.5,0.1-0.9,0.1-1.1,0.1
		c-0.6,0-1-0.2-1.3-0.5C1016.1,47.2,1016,46.7,1016,46.2z M1013.9,27.6c0-0.1,0-0.2,0-0.3c0-0.1,0-0.3,0-0.3c0-0.4,0.1-0.8,0.2-1.1
		s0.3-0.6,0.4-0.9c0-0.1,0.1-0.2,0.3-0.3c0.1-0.1,0.3-0.2,0.4-0.2c0.3,0,0.5,0.1,0.7,0.2c0.2,0.1,0.2,0.3,0.1,0.6
		c-0.1,0.2-0.2,0.5-0.3,0.8c-0.1,0.3-0.2,0.5-0.2,0.8c0.4,0,0.8-0.1,1.2-0.2c0.4-0.1,0.9-0.2,1.3-0.3c0.4-0.1,0.8-0.2,1.3-0.3
		c0.4-0.1,0.8-0.2,1.2-0.2c0.4,0,0.6,0.1,0.6,0.5v0.1c0,0.1-0.1,0.2-0.2,0.3c-0.1,0.1-0.3,0.2-0.6,0.3c-0.2,0.1-0.6,0.2-1,0.4
		s-0.9,0.3-1.4,0.5c-0.5,0.1-1,0.3-1.4,0.4c-0.4,0.1-0.8,0.2-1.1,0.2c-0.4,0-0.7-0.1-0.9-0.2C1014.1,28.2,1014,28,1013.9,27.6z"/>
	<path class="st1" d="M1033.9,30.4c0.3-0.1,0.6-0.1,0.9-0.2c0.3-0.1,0.7-0.1,1.1-0.2c0.4-0.1,0.8-0.1,1.1-0.2c0.4,0,0.8,0,1.1,0
		c0.3,0,0.6,0,0.8,0.1c0.2,0,0.5,0.1,0.7,0.2c0.4,0.1,0.6,0.4,0.6,0.8c0,0.2-0.3,0.3-0.7,0.3c-1.2-0.1-2.3,0-3.5,0.3
		c-1.1,0.2-2.2,0.6-3.2,1.1c-0.4,0.2-0.7,0.2-0.9,0.1c-0.2-0.1-0.3-0.3-0.4-0.5c0-0.2,0-0.4,0.1-0.5c0.1-0.2,0.2-0.3,0.3-0.4
		c0.2-0.2,0.5-0.3,0.9-0.4C1033.4,30.6,1033.7,30.5,1033.9,30.4z M1033.4,38.2c-0.1-0.1-0.1-0.3-0.2-0.5c0-0.2,0-0.5,0-0.9
		c0-0.2,0.1-0.5,0.2-0.8c0.1-0.3,0.3-0.6,0.4-0.9c0.1-0.2,0.2-0.4,0.4-0.7c0.2-0.3,0.3-0.5,0.5-0.8c0.2-0.2,0.4-0.4,0.5-0.6
		c0.2-0.2,0.3-0.3,0.5-0.3c0.2,0,0.5,0,0.7,0.1c0.2,0.1,0.3,0.3,0.3,0.5c0,0.1-0.1,0.3-0.1,0.4s-0.1,0.2-0.2,0.4
		c0.2,0.1,0.4,0.2,0.5,0.4c0.2,0.2,0.3,0.4,0.4,0.7c0.1,0.3,0.1,0.6,0.1,0.8c0,0.2-0.1,0.5-0.2,0.7c-0.3,0.8-0.8,1.3-1.5,1.7
		c-0.1,0.1-0.3,0.2-0.6,0.2c-0.2,0.1-0.5,0.1-0.7,0.1c-0.2,0-0.4-0.1-0.6-0.2C1033.6,38.5,1033.4,38.4,1033.4,38.2z M1035.9,28.1
		c0,0.3-0.1,0.5-0.2,0.6c-0.1,0.1-0.3,0.2-0.4,0.3c-0.2,0-0.3,0-0.5-0.1s-0.2-0.2-0.3-0.4c0-0.3,0-0.7,0-1.1c0-0.4,0.1-0.8,0.1-1.2
		c0.1-0.4,0.1-0.7,0.2-0.9c0-0.2,0.1-0.4,0.1-0.5c0.1-0.4,0.2-0.8,0.4-1.3s0.3-0.9,0.5-1.2c0.1-0.3,0.3-0.5,0.6-0.6
		c0.3-0.1,0.5-0.1,0.8,0.1c0.2,0.1,0.3,0.3,0.3,0.7c0,0.1-0.1,0.3-0.2,0.4c-0.1,0.1-0.1,0.3-0.2,0.4c-0.2,0.6-0.5,1.2-0.6,1.7
		c-0.2,0.5-0.3,1.1-0.5,1.7c0,0.2-0.1,0.4-0.1,0.7S1035.9,27.9,1035.9,28.1z M1036,35.1c-0.4,0.2-0.7,0.6-1,1.1
		c-0.1,0.2-0.2,0.4-0.2,0.5s-0.1,0.3-0.1,0.5c0.3-0.1,0.5-0.2,0.8-0.3c0.2-0.2,0.4-0.4,0.5-0.8c0.1-0.2,0.1-0.4,0.1-0.6
		C1036.1,35.4,1036,35.2,1036,35.1z M1039,40.7c0-0.4,0.1-0.8,0.2-1.1c0.1-0.3,0.2-0.7,0.4-1.1c0.1-0.1,0.2-0.4,0.3-0.7
		c0.1-0.3,0.3-0.7,0.5-1s0.4-0.6,0.6-0.9c0.2-0.3,0.4-0.4,0.5-0.4c0.2,0,0.4,0,0.6,0.1c0.2,0.1,0.4,0.2,0.4,0.4
		c0,0.2-0.1,0.4-0.2,0.6c-0.2,0.2-0.3,0.5-0.5,0.7c-0.3,0.4-0.5,0.8-0.6,1.2c-0.2,0.4-0.3,0.8-0.4,1.4c0,0.1,0,0.2,0,0.3
		s0,0.2,0.1,0.2c0.1,0.1,0.1,0.1,0.3,0.1c0.1,0,0.3,0,0.4,0c0.1,0,0.2-0.1,0.4-0.1c0.1,0,0.2-0.1,0.2-0.1c0.7-0.3,1.5-0.6,2.4-0.9
		c0.9-0.3,1.8-0.5,2.8-0.6c0.3-0.1,0.5-0.1,0.7-0.1c0.2,0,0.4,0.1,0.6,0.1c0.1,0,0.1,0.1,0.1,0.2c0,0.1,0,0.2,0,0.3
		c0,0.1,0,0.2-0.1,0.3c0,0.1-0.1,0.2-0.2,0.2c-0.1,0-0.3,0.1-0.7,0.1c-0.3,0.1-0.6,0.1-0.9,0.2c-0.5,0.1-1.1,0.3-1.8,0.5
		c-0.6,0.2-1.3,0.4-2,0.7c-0.4,0.2-0.8,0.3-1.3,0.5c-0.5,0.2-1,0.2-1.7,0.2c-0.3,0-0.5-0.2-0.7-0.4C1039.1,41.3,1039,41,1039,40.7z
		 M1043.5,29.8c0.1-0.4,0.1-0.7,0.2-1s0.1-0.6,0.2-0.9c0.1-0.3,0.1-0.6,0.2-1c0.1-0.3,0.2-0.7,0.3-1.2c0-0.2,0.1-0.5,0.2-0.8
		c0.1-0.3,0.1-0.6,0.2-0.8c0-0.1,0.1-0.2,0.3-0.2c0.1,0,0.2-0.1,0.3-0.1c0.2,0,0.4,0.1,0.6,0.2c0.1,0.1,0.2,0.3,0.2,0.5
		c0,0.3,0,0.7-0.1,1c-0.2,0.7-0.3,1.4-0.5,2.2c-0.1,0.8-0.3,1.5-0.4,2.1c0.2-0.1,0.5-0.2,0.8-0.3c0.3-0.1,0.6-0.2,0.9-0.3
		c0.3-0.1,0.6-0.2,0.8-0.2c0.3-0.1,0.4-0.1,0.6-0.1c0.3-0.1,0.7-0.2,1.1-0.2c0.4,0,0.8,0,1.3,0c0.1,0,0.2,0.1,0.3,0.2
		c0,0.1,0.1,0.3,0,0.4c-0.1,0.1-0.1,0.2-0.2,0.2c-0.3,0.1-0.5,0.2-0.7,0.2c-0.2,0-0.5,0.1-0.8,0.2c-0.7,0.2-1.4,0.4-2,0.6
		c-0.7,0.2-1.3,0.5-2,0.9c0,0.6-0.1,1.2-0.1,1.8c0,0.6,0,1.2,0.1,1.6c0,0.1,0,0.3,0.1,0.4c0,0.2,0.1,0.3,0.1,0.4V36
		c0,0.2-0.1,0.3-0.3,0.4c-0.2,0.1-0.3,0.1-0.4,0.1c-0.1,0-0.3,0-0.4-0.2c-0.1-0.1-0.2-0.3-0.3-0.5c-0.1-0.3-0.2-0.6-0.3-1
		c0-0.3-0.1-0.5-0.1-0.8c0-0.3,0-0.6,0-0.9c0,0,0-0.2,0-0.5c0-0.3,0-0.6,0-0.9c0-0.3,0-0.7,0.1-1
		C1043.4,30.4,1043.5,30.1,1043.5,29.8z"/>
	<path class="st1" d="M1051.2,32.8c0-0.4,0.1-0.8,0.2-1.2c0.1-0.4,0.2-0.8,0.4-1.1c0.2-0.4,0.3-0.7,0.5-1c0.2-0.3,0.3-0.5,0.4-0.7
		c0.2-0.3,0.4-0.6,0.7-1c0.3-0.4,0.6-0.7,0.9-1.1c0.3-0.4,0.6-0.8,0.9-1.2c0.3-0.4,0.6-0.8,0.9-1.2c0.1-0.2,0.2-0.4,0.3-0.6
		c0.1-0.2,0.3-0.3,0.5-0.4c0.3,0,0.6,0.1,0.8,0.2c0.2,0.2,0.3,0.4,0.3,0.7c0,0.3-0.1,0.5-0.2,0.6c-0.1,0.1-0.1,0.1-0.3,0.3
		c-0.1,0.1-0.3,0.3-0.4,0.4l-0.2,0.2c0,0.1-0.1,0.1-0.1,0.2c-0.1,0.1-0.1,0.1-0.1,0.2c-0.1,0.2-0.3,0.4-0.5,0.7
		c-0.2,0.2-0.4,0.5-0.6,0.8s-0.4,0.5-0.6,0.8c-0.2,0.3-0.3,0.5-0.4,0.8c0.3,0.3,0.6,0.6,1,0.8c0.3,0.2,0.7,0.5,1,0.7
		c0.4,0.2,0.7,0.5,1.1,0.8c0.4,0.3,0.8,0.6,1.2,0.9c0.2,0.1,0.3,0.3,0.3,0.4c0,0.1,0,0.2,0,0.3c-0.1,0.1-0.1,0.1-0.3,0.2
		c-0.1,0-0.3,0-0.5,0c-0.7-0.2-1.3-0.5-1.8-0.8c-0.5-0.3-0.9-0.6-1.3-0.8c-0.3-0.1-0.6-0.3-0.9-0.5c-0.3-0.2-0.6-0.4-0.9-0.6
		c-0.1,0.1-0.2,0.2-0.3,0.3c-0.1,0.1-0.2,0.3-0.3,0.5c-0.1,0.2-0.2,0.4-0.3,0.5c-0.1,0.2-0.1,0.3-0.2,0.4c0,0.1-0.1,0.2-0.1,0.3
		c0,0.1-0.1,0.3-0.2,0.4c-0.1,0.1-0.1,0.2-0.2,0.4c-0.1,0.1-0.2,0.2-0.3,0.2c-0.3,0-0.5-0.1-0.6-0.2
		C1051.3,33.2,1051.2,33,1051.2,32.8z M1061.7,46.8c0-0.2,0.1-0.4,0.3-0.7c0.1-0.2,0.3-0.5,0.5-0.7c0.2-0.2,0.4-0.4,0.6-0.6
		c0.2-0.2,0.4-0.4,0.5-0.5c0.1-0.1,0.3-0.3,0.5-0.5c0.2-0.2,0.4-0.4,0.6-0.6c0.2-0.2,0.4-0.4,0.6-0.6s0.3-0.3,0.3-0.3
		c0.1-0.1,0.2-0.2,0.3-0.3s0.1-0.2,0.2-0.4c-0.2,0-0.5-0.1-1-0.1c-0.5,0-0.9,0-1.3-0.1c-0.4,0-0.7-0.2-1-0.4c-0.3-0.2-0.4-0.6-0.3-1
		c0-0.4,0.2-0.9,0.4-1.2c0.3-0.4,0.5-0.7,0.8-1.1c0.3-0.5,0.7-0.9,1.1-1.4c0.4-0.4,0.7-0.8,1-1.3c0.1-0.1,0.1-0.2,0.2-0.3
		c0-0.1,0.1-0.2,0.1-0.2c-0.9,0-1.8,0.2-2.9,0.7c-1,0.5-1.9,1-2.7,1.7c-0.2,0.2-0.4,0.2-0.7,0c-0.3-0.2-0.4-0.5-0.4-0.8
		c0-0.3,0.1-0.5,0.4-0.7s0.5-0.4,0.7-0.6c0.3-0.2,0.7-0.4,1.2-0.7c0.4-0.2,0.9-0.4,1.4-0.6s1-0.3,1.4-0.4c0.5-0.1,0.9-0.2,1.3-0.2
		c0.1,0,0.3,0,0.5,0c0.2,0,0.4,0.1,0.6,0.2c0.2,0.1,0.3,0.2,0.5,0.3c0.1,0.1,0.2,0.3,0.2,0.6c0,0.3-0.1,0.7-0.3,1.1
		c-0.2,0.4-0.5,0.8-0.8,1.3c-0.3,0.4-0.6,0.8-1,1.3c-0.3,0.4-0.6,0.8-0.8,1c-0.1,0.2-0.2,0.3-0.3,0.5s-0.2,0.3-0.2,0.5
		c0,0.1,0,0.2,0,0.3c0,0.1,0.1,0.1,0.3,0.2c0.5,0.1,1,0.1,1.5,0.1c0.4,0,0.9,0.1,1.3,0.1c0.3,0,0.5,0.2,0.6,0.4
		c0.1,0.2,0.2,0.4,0.1,0.7c0,0.2-0.1,0.4-0.2,0.6c-0.1,0.2-0.3,0.4-0.5,0.6c-0.2,0.2-0.4,0.4-0.7,0.7c-0.2,0.2-0.5,0.4-0.7,0.6
		c-0.4,0.4-0.7,0.7-1.1,1.1c-0.4,0.4-0.8,0.8-1.2,1.3c0.3,0,0.5,0,0.8-0.1c1.1-0.2,2.2-0.4,3.3-0.7c0.1,0,0.2,0,0.4,0
		c0.1,0.1,0.2,0.1,0.2,0.2c0,0.1,0.1,0.2,0.1,0.3c0,0.1-0.1,0.2-0.1,0.3c-0.1,0.2-0.4,0.3-0.9,0.5c-0.5,0.2-1,0.3-1.5,0.4
		c-0.6,0.1-1.1,0.2-1.6,0.3c-0.5,0.1-0.9,0.1-1.1,0.1c-0.3,0-0.7-0.1-1-0.2C1061.8,47.7,1061.7,47.3,1061.7,46.8z M1063.8,30.7
		c0-0.4-0.1-0.8-0.1-1.3c0-0.5,0-1.1,0-1.7c0-0.6,0.1-1.1,0.1-1.7c0-0.5,0.1-1,0.1-1.3c0-0.3,0.1-0.6,0.2-1c0.1-0.4,0.2-0.8,0.2-1.2
		c0-0.1,0.1-0.2,0.1-0.3c0-0.1,0.1-0.1,0.1-0.2c0.1-0.1,0.1-0.1,0.1-0.1c0.1,0,0.3,0,0.4,0c0.2,0,0.3,0.1,0.5,0.2s0.2,0.2,0.3,0.3
		c0.1,0.1,0.1,0.3,0.1,0.4c-0.1,0.7-0.2,1.3-0.3,1.8c-0.1,0.5-0.1,1.1-0.2,1.7c0.1,0,0.3-0.1,0.4-0.1c0.2,0,0.4-0.1,0.6-0.1
		s0.4-0.1,0.6-0.1c0.2,0,0.3-0.1,0.4-0.1c0.4-0.1,0.8-0.1,1.2-0.2c0.4,0,0.8-0.1,1.3-0.1c0.4,0,0.7,0,1,0.1c0.3,0.1,0.4,0.2,0.4,0.5
		c0,0.2-0.1,0.3-0.4,0.4s-0.4,0.1-0.5,0.2c-0.6,0.1-1.1,0.1-1.5,0.2c-0.4,0.1-0.9,0.2-1.5,0.4c-0.2,0.1-0.4,0.1-0.6,0.2
		c-0.2,0.1-0.4,0.1-0.7,0.2c-0.2,0.1-0.4,0.2-0.6,0.4c-0.2,0.1-0.3,0.3-0.3,0.5c0,0.5-0.1,0.9-0.1,1.3c0,0.4,0,0.8-0.1,1.3
		c0,0.3-0.2,0.4-0.6,0.4c-0.4,0-0.6-0.1-0.7-0.3C1063.9,31.3,1063.9,31,1063.8,30.7z"/>
	<path class="st1" d="M1079.1,29.2c-0.2-0.5,0-0.9,0.6-1.1c0.4-0.2,0.8-0.3,1.1-0.4c0.3-0.1,0.7-0.2,1-0.3c0.3-0.1,0.6-0.1,1-0.1
		c0.3,0,0.7,0,1,0c0.1,0,0.2,0,0.4,0.1c0.1,0,0.2,0,0.3,0c0.1,0,0.3,0.1,0.4,0.2c0.1,0.1,0.2,0.3,0.2,0.5c0,0.3-0.2,0.5-0.4,0.5
		s-0.5,0.1-0.8,0.1c-0.5,0-1,0-1.5,0.2c-0.6,0.1-1,0.3-1.4,0.4c-0.1,0-0.2,0.1-0.3,0.1c-0.1,0-0.3,0.1-0.4,0.2
		c-0.2,0.1-0.4,0.2-0.6,0.2S1079.2,29.5,1079.1,29.2z M1079.5,33.8c0-0.5,0.1-0.9,0.1-1.3c0.1-0.4,0.2-0.8,0.5-1.1
		c0.1-0.1,0.2-0.2,0.3-0.2c0.1,0,0.3,0,0.4,0c0.4,0.1,0.6,0.2,0.6,0.6c0,0.2,0,0.3-0.1,0.5c-0.1,0.2-0.1,0.3-0.1,0.5
		c0,0.3-0.1,0.5-0.1,0.7c0,0.2,0,0.4,0,0.6c0,0.3,0,0.6,0.1,0.9c0,0.2,0.2,0.5,0.3,0.6c0.1,0.1,0.3,0.2,0.5,0.2c0.2,0,0.4,0,0.5,0
		c0.4,0,0.6-0.1,0.8-0.2c0.2-0.1,0.4-0.2,0.7-0.3c0.4-0.1,0.9-0.3,1.3-0.5c0.1-0.1,0.4-0.2,0.6-0.3c0.3-0.1,0.5-0.2,0.6-0.2
		c0.1,0,0.2-0.1,0.2-0.1c0.1,0,0.2,0,0.3,0c0.1,0,0.2,0.1,0.3,0.3c0,0.1,0.1,0.2,0.1,0.3v0.1c0,0,0,0.1-0.1,0.2
		c-0.1,0.1-0.2,0.2-0.4,0.4c-0.2,0.1-0.4,0.3-0.7,0.4c-0.2,0.1-0.5,0.3-0.9,0.4c-0.1,0.1-0.2,0.1-0.4,0.2c-0.2,0.1-0.4,0.1-0.6,0.2
		c-0.2,0.1-0.4,0.1-0.6,0.2c-0.2,0.1-0.3,0.1-0.4,0.1c-0.3,0.1-0.6,0.1-0.8,0.1c-0.2,0-0.5,0-0.7,0c-0.7,0-1.2-0.2-1.5-0.5
		c-0.4-0.3-0.6-0.7-0.7-1.3c0-0.2-0.1-0.5-0.1-0.9C1079.5,34.2,1079.5,33.9,1079.5,33.8z M1091.2,34.4c0-0.1,0-0.2,0-0.3
		c0-0.1,0-0.3,0-0.5c0-0.2,0-0.3,0.1-0.5c0-0.2,0-0.3,0.1-0.4c0,0,0-0.1,0.1-0.3s0.1-0.4,0.1-0.6c0-0.2,0.1-0.4,0.1-0.6
		c0-0.2,0.1-0.3,0.1-0.4c0-0.1,0-0.2,0.1-0.4s0-0.3,0.1-0.5c-0.3,0.2-0.7,0.4-1.1,0.5c-0.4,0.2-0.8,0.4-1.1,0.6
		c-0.5,0.3-1,0.5-1.5,0.8c-0.5,0.2-1.1,0.5-1.6,0.7c-0.2,0.1-0.4,0.2-0.5,0.3s-0.3,0.2-0.5,0.2c-0.2,0-0.4,0-0.4-0.1
		c-0.1-0.1-0.1-0.2-0.2-0.4c0-0.1-0.1-0.2-0.1-0.3s0-0.2,0-0.2c0-0.3,0.2-0.5,0.4-0.6c0.3-0.1,0.5-0.2,0.7-0.3
		c0.3-0.1,0.6-0.3,0.9-0.4c0.3-0.1,0.7-0.3,1-0.4c0.5-0.2,1.1-0.5,1.6-0.7c0.5-0.2,1-0.5,1.5-0.7c0.2-0.1,0.4-0.2,0.6-0.3
		c0.2-0.1,0.4-0.3,0.6-0.4c0.1-0.1,0.2-0.1,0.2-0.2c0-0.1,0.1-0.1,0.1-0.1c0.1-0.3,0.2-0.5,0.3-0.6c0.1-0.1,0.1-0.4,0.2-0.6
		c0-0.1,0.1-0.2,0.2-0.4c0.1-0.2,0.1-0.3,0.2-0.3c0-0.1,0.1-0.1,0.3-0.2s0.3,0,0.4,0c0.3,0,0.4,0.1,0.5,0.2c0.1,0.1,0.1,0.2,0.1,0.4
		c0,0.4-0.1,0.7-0.2,1c-0.1,0.3-0.3,0.6-0.3,0.9c-0.1,0.2-0.1,0.5-0.3,0.8c-0.1,0.3-0.2,0.5-0.2,0.6c-0.1,0.6-0.2,1.1-0.3,1.7
		s-0.2,1.2-0.3,1.9c-0.1,0.4-0.2,0.9-0.2,1.3s-0.1,0.9-0.1,1.3c0,0.3,0,0.6,0,1.1s0,0.9,0,1.3s0.1,0.9,0.1,1.3s0.1,0.8,0.2,1.1
		c0,0.1,0.1,0.2,0.1,0.3s0,0.2,0.1,0.3c0,0.2,0,0.4,0,0.5c0,0.2-0.1,0.3-0.3,0.3c-0.2,0.1-0.3,0.1-0.5,0c-0.1-0.1-0.2-0.1-0.3-0.2
		c-0.1-0.1-0.1-0.2-0.2-0.3s-0.1-0.2-0.1-0.3c0-0.1-0.1-0.2-0.1-0.2c0-0.1,0-0.1-0.1-0.2c-0.1-0.3-0.2-0.7-0.3-1.2
		c-0.1-0.5-0.1-1-0.2-1.5c0-0.5-0.1-1-0.1-1.5c0-0.5,0-0.9,0-1.3V34.4z"/>
	<path class="st1" d="M1106.5,34c0.1-0.1,0.3-0.3,0.5-0.4c0.2-0.1,0.5-0.3,0.8-0.5c0-0.2,0.1-0.4,0.1-0.7c0-0.3,0.1-0.5,0.1-0.7
		c0-0.1,0.1-0.3,0.1-0.5s0.1-0.5,0.1-0.8c0-0.3,0.1-0.6,0.1-0.9c0-0.3,0.1-0.5,0.1-0.7c0-0.3,0-0.5-0.2-0.7
		c-0.2-0.1-0.3-0.2-0.6-0.2c-0.4,0-0.8,0.1-1.2,0.3c-0.4,0.2-0.7,0.5-1,1.1c0,0,0,0.1-0.1,0.3c0,0.1-0.1,0.3-0.1,0.5
		c0,0.2-0.1,0.4-0.1,0.6c0,0.2,0,0.4,0,0.5c0,0.2,0,0.3,0,0.4c0,0.1,0,0.1,0,0.2c0,0,0,0.1,0,0.2c0,0.1,0,0.2,0,0.4
		c0,0.4-0.1,0.6-0.3,0.7c-0.2,0.1-0.3,0.1-0.4,0.1c-0.1,0-0.3,0-0.4-0.1c-0.1-0.1-0.2-0.2-0.3-0.3c-0.1-0.1-0.1-0.3-0.2-0.4
		s-0.1-0.3-0.1-0.4c0-0.1,0-0.2-0.1-0.4s0-0.3,0-0.3c0-0.1,0-0.3,0-0.4c0-0.2,0-0.4,0-0.6c0-0.2,0-0.4,0.1-0.6c0-0.2,0-0.4,0-0.5
		c0,0,0-0.1,0-0.3s0-0.3,0.1-0.5s0.1-0.4,0.1-0.6c0-0.2,0.1-0.4,0.1-0.5c0.1-0.4,0.1-0.6,0.2-0.8c0-0.2,0.1-0.4,0.2-0.7
		c0.1-0.2,0.3-0.3,0.5-0.4c0.2,0,0.5,0,0.7,0.1c0.1,0.1,0.2,0.1,0.3,0.3c0,0.1,0.1,0.2,0,0.4c-0.1,0.2-0.1,0.5-0.2,0.7
		c-0.1,0.2-0.1,0.4-0.2,0.6c0.2-0.1,0.4-0.2,0.6-0.3c0.2-0.1,0.3-0.1,0.5-0.2s0.4-0.1,0.5-0.1c0.2,0,0.4-0.1,0.7-0.1
		c0.6,0,1,0.1,1.5,0.4c0.4,0.3,0.6,0.7,0.6,1.3c0,0.3-0.1,0.6-0.1,0.9c0,0.3-0.1,0.7-0.1,1c0,0.3-0.1,0.6-0.2,0.9
		c-0.1,0.3-0.1,0.5-0.1,0.7c0,0.2-0.1,0.4-0.1,0.5c0,0.1-0.1,0.3-0.1,0.4c0.5-0.1,0.8-0.3,1-0.3c0.2-0.1,0.5-0.1,0.8-0.2
		c0.1,0,0.2,0,0.3,0.1s0.1,0.1,0.2,0.2c0,0.1,0.1,0.2,0.1,0.3c0,0.1-0.1,0.2-0.1,0.2c-0.1,0.1-0.2,0.1-0.3,0.2s-0.3,0.2-0.5,0.3
		s-0.3,0.2-0.5,0.3s-0.3,0.2-0.4,0.2c-0.1,0.1-0.3,0.1-0.5,0.3c-0.2,0.1-0.5,0.2-0.8,0.4c-0.1,0-0.2,0.1-0.3,0.2
		c-0.1,0.1-0.3,0.2-0.4,0.3c-0.1,0.1-0.3,0.2-0.4,0.3s-0.2,0.1-0.3,0.2c-0.2,0.1-0.3,0.1-0.5,0c-0.2-0.1-0.3-0.2-0.3-0.3
		c-0.1-0.1-0.1-0.3-0.1-0.4C1106.3,34.3,1106.4,34.1,1106.5,34z M1118.1,34.4c-0.1-0.1-0.1-0.4-0.1-0.8c0-0.4,0-0.8,0-1.2
		c0-0.4,0-0.8,0.1-1.2c0-0.4,0-0.7,0-0.9c0-0.1,0-0.2,0-0.4s0-0.3,0.1-0.5c0-0.2,0-0.3,0.1-0.5c0-0.2,0-0.3,0-0.3
		c0-0.1,0-0.3,0.1-0.4s0-0.3,0-0.4c-0.1,0.1-0.4,0.2-0.7,0.4c-0.3,0.2-0.6,0.3-0.8,0.5c-0.3,0.2-0.6,0.3-1,0.5s-0.8,0.3-1.2,0.4
		c-0.4,0.1-0.8,0.2-1.2,0.3c-0.4,0.1-0.8,0.2-1.2,0.2c-0.2,0-0.4,0-0.5-0.2c-0.1-0.2-0.2-0.3-0.2-0.5c0-0.1,0-0.3,0.1-0.5
		s0.2-0.3,0.4-0.3c0.2,0,0.5-0.1,0.8-0.1s0.6-0.1,0.8-0.2c1-0.3,1.9-0.6,2.7-1c0.8-0.4,1.5-0.9,2.3-1.5c0.2-0.1,0.3-0.3,0.4-0.5
		c0.1-0.2,0.1-0.4,0.2-0.6c0.1-0.2,0.2-0.3,0.3-0.5s0.3-0.2,0.5-0.2c0.5,0,0.7,0.2,0.7,0.7c0,0.3,0,0.5-0.1,0.7s-0.2,0.4-0.3,0.6
		c-0.2,0.5-0.4,1.1-0.5,1.7s-0.1,1.2-0.2,1.7c0,0.2,0,0.5-0.1,0.8s0,0.7-0.1,1.1c0,0.4,0,0.7,0,1.1c0,0.3,0,0.6,0,0.8
		c0,0.3,0,0.6-0.1,0.9c-0.1,0.3-0.3,0.4-0.6,0.5c-0.1,0-0.2,0-0.4,0C1118.2,34.6,1118.1,34.5,1118.1,34.4z M1118.2,43.9
		c0,0.2-0.1,0.3-0.3,0.4c-0.1,0.1-0.3,0.1-0.5,0.1c-0.2,0-0.3-0.1-0.4-0.2s-0.2-0.2-0.2-0.4c0-0.5,0-0.9,0.1-1.4
		c0-0.5,0.1-0.9,0.2-1.2c0.1-0.3,0.2-0.6,0.2-0.8s0.2-0.4,0.3-0.6c0.1-0.2,0.2-0.4,0.3-0.7s0.2-0.6,0.3-0.9c0.1-0.1,0-0.3-0.1-0.4
		s-0.3-0.2-0.6-0.2c-0.7,0-1.2,0.1-1.7,0.3c-0.5,0.2-1,0.5-1.6,0.9c-0.2,0.1-0.3,0.2-0.5,0.4c-0.2,0.2-0.4,0.2-0.6,0.2
		c-0.2,0-0.3-0.1-0.4-0.3s-0.2-0.4-0.2-0.6c0-0.2,0.1-0.4,0.4-0.6s0.6-0.4,1-0.6c0.4-0.2,0.7-0.4,1.1-0.5c0.4-0.1,0.7-0.2,0.8-0.3
		c0.6-0.1,1.1-0.2,1.5-0.3c0.5-0.1,1-0.1,1.5,0c0.7,0.1,1,0.5,1,1.2c0,0.7-0.1,1.4-0.4,2c-0.2,0.6-0.4,1.2-0.6,1.8
		c-0.1,0.4-0.2,0.8-0.4,1.3C1118.3,42.7,1118.2,43.2,1118.2,43.9z"/>
	<path class="st1" d="M1123,34.6c0-0.1,0.1-0.3,0.2-0.4c0.1-0.1,0.2-0.2,0.3-0.2c1.3-0.5,2.6-0.9,4-1.1c1.4-0.2,2.9-0.3,4.5-0.3
		c0.6,0,1.2,0,1.6,0.1c0.5,0.1,0.9,0.1,1.2,0.2c0.3,0.1,0.6,0.2,0.9,0.4c0.3,0.2,0.3,0.4,0.2,0.7c0,0.1-0.1,0.1-0.2,0.1
		c-0.1,0-0.2,0-0.3,0c-0.2,0-0.6,0-1-0.1c-0.4,0-0.8-0.1-1.2-0.1c-0.5-0.1-1.1-0.1-1.6-0.1c-1,0-1.9,0.1-2.9,0.2
		c-1,0.1-1.9,0.3-3,0.6c-0.3,0.1-0.7,0.2-1.1,0.4c-0.4,0.2-0.7,0.3-1,0.4c-0.3,0-0.5,0-0.6-0.3C1123,35,1123,34.8,1123,34.6z
		 M1125.6,42.5c-0.1-0.3-0.1-0.7,0-1.2s0.1-0.9,0.2-1.4c0.1-0.5,0.2-0.9,0.2-1.4c0.1-0.5,0.2-0.9,0.2-1.2c0-0.2,0-0.3,0-0.5
		c0-0.2,0-0.3,0.1-0.4c0-0.1,0.1-0.2,0.2-0.3c0.1-0.1,0.3-0.2,0.5-0.2c0.3-0.1,0.5,0,0.7,0.2s0.2,0.4,0.2,0.6c0,0.2,0,0.4,0,0.6
		c0,0.2-0.1,0.4-0.1,0.6c-0.1,0.2-0.1,0.4-0.2,0.6c-0.1,0.2-0.1,0.4-0.1,0.5c0,0.3-0.1,0.6-0.1,1c0,0.4-0.1,0.7-0.1,1.1
		c0,0.4-0.1,0.8-0.1,1.1s-0.1,0.7-0.2,1c0,0.1-0.1,0.2-0.2,0.3c-0.1,0.1-0.2,0.1-0.3,0.1c-0.3,0-0.5-0.1-0.6-0.3
		C1125.7,43,1125.6,42.8,1125.6,42.5z M1126.6,29.2c0-0.4,0.1-0.8,0.2-1.2c0.1-0.4,0.3-0.8,0.5-1.1c0.2-0.3,0.4-0.7,0.7-1
		c0.2-0.3,0.5-0.5,0.7-0.7c0.1-0.1,0.2-0.1,0.3-0.1s0.2,0,0.4-0.1c0.1,0,0.1-0.1,0.2-0.1c0.1,0,0.2-0.1,0.3-0.1c0.4,0,0.7,0.2,1,0.6
		c0.3,0.4,0.4,0.8,0.4,1.2c0,0.4-0.1,0.9-0.2,1.3s-0.4,0.8-0.7,1.2c-0.3,0.4-0.6,0.7-1.1,0.9c-0.4,0.2-0.9,0.4-1.4,0.4
		c-0.4,0-0.7-0.1-1-0.3C1126.8,29.9,1126.6,29.6,1126.6,29.2z M1130,26.1c-0.2,0.1-0.3,0.3-0.5,0.5c-0.2,0.2-0.4,0.5-0.5,0.8
		c-0.2,0.3-0.3,0.6-0.4,0.9s-0.2,0.6-0.2,0.9c0.2,0,0.4-0.1,0.6-0.2c0.2-0.1,0.4-0.3,0.6-0.6c0.2-0.2,0.3-0.5,0.4-0.8
		c0.1-0.3,0.2-0.6,0.2-0.8C1130.1,26.4,1130.1,26.2,1130,26.1z M1131.6,38.9c0.1-0.2,0-0.4,0-0.6c-0.1-0.2-0.2-0.2-0.4-0.2
		c-0.3,0-0.6,0-0.9,0.1c-0.3,0.1-0.6,0.2-1.1,0.3c-0.5,0.1-0.7-0.2-0.7-0.8c0-0.2,0-0.3,0.1-0.4s0.2-0.2,0.3-0.2
		c0.1-0.1,0.3-0.1,0.4-0.1c0.1,0,0.3-0.1,0.4-0.1c0.2,0,0.5-0.1,0.9-0.1c0.4,0,0.6,0,0.8,0c0.6,0,1,0.1,1.3,0.3
		c0.3,0.2,0.4,0.6,0.4,1.1c0,0.3-0.1,0.7-0.3,1.3c-0.2,0.5-0.4,1-0.6,1.5c0.6-0.1,1.1-0.2,1.6-0.2c0.5,0,1-0.1,1.6-0.1
		c0.2,0,0.4,0,0.5,0s0.3,0,0.5,0c0.2,0,0.4,0.1,0.4,0.2c0.1,0.1,0.1,0.2,0.2,0.3c0,0.1,0,0.2-0.1,0.3c-0.1,0.1-0.2,0.2-0.3,0.2
		c-0.1,0-0.4,0.1-0.6,0.1c-0.3,0-0.5,0-0.6,0.1c-0.7,0.1-1.4,0.2-2.1,0.3s-1.3,0.3-2.1,0.5c-0.4,0.1-0.8,0.2-1.1,0.4
		c-0.3,0.2-0.7,0.3-1,0.3c-0.1,0-0.2,0-0.4,0s-0.3-0.1-0.3-0.2c-0.1-0.1-0.1-0.2-0.2-0.4c0-0.2,0-0.3,0.2-0.5c0-0.1,0.2-0.2,0.3-0.2
		c0.2-0.1,0.4-0.1,0.5-0.2c0.2-0.1,0.4-0.2,0.6-0.3c0.2-0.1,0.4-0.3,0.6-0.5c0.2-0.2,0.3-0.5,0.5-0.9
		C1131.3,39.7,1131.5,39.3,1131.6,38.9z"/>
	<path class="st1" d="M1148.3,35.4c0.1-0.5,0.2-1,0.4-1.4c0.2-0.4,0.4-0.8,0.7-1.2c0.3-0.4,0.6-0.8,1-1.3c0.4-0.4,0.8-0.8,1.2-1.2
		c0.3-0.3,0.7-0.6,1.1-1c0.4-0.4,0.8-0.7,1.1-1c0.2-0.1,0.3-0.2,0.5-0.4c0.2-0.1,0.4-0.2,0.6-0.2c0.1,0,0.3,0,0.5,0.1
		s0.3,0.2,0.3,0.4c0,0.1,0,0.3-0.1,0.4c-0.1,0.1-0.2,0.3-0.3,0.4c-0.1,0.1-0.3,0.2-0.4,0.4c-0.1,0.1-0.3,0.2-0.4,0.4
		c0.6,0.1,1.2,0.2,1.7,0.2c0.5,0.1,1,0.1,1.4,0.2c0.9,0.1,1.9,0.3,2.8,0.6c0.2,0.1,0.5,0.1,0.7,0.3c0.3,0.1,0.4,0.3,0.4,0.5
		c0,0.3-0.1,0.4-0.3,0.5c-0.2,0.1-0.4,0.1-0.7,0c-0.4-0.1-0.8-0.1-1.2-0.2c-0.4-0.1-0.8-0.1-1.2-0.2c-0.4,0-0.7-0.1-1.1-0.2
		c-0.4-0.1-0.7-0.1-1.1-0.2c-0.2,0-0.4,0-0.7-0.1c-0.3,0-0.6-0.1-0.9-0.1s-0.6,0-0.9,0s-0.5,0.1-0.7,0.2c-0.2,0.1-0.3,0.2-0.5,0.3
		c-0.2,0.1-0.3,0.2-0.4,0.3c-0.3,0.3-0.6,0.6-0.8,0.9c-0.2,0.3-0.5,0.7-0.7,1c-0.2,0.3-0.4,0.6-0.5,0.8s-0.2,0.5-0.3,0.7
		c-0.1,0.2-0.2,0.4-0.3,0.5c-0.1,0.1-0.3,0.2-0.7,0.2c-0.2,0-0.3-0.1-0.4-0.3C1148.3,35.9,1148.3,35.7,1148.3,35.4z"/>
	<path class="st1" d="M1177.1,35.4c0-0.1,0.1-0.4,0.2-0.6c0.1-0.3,0.2-0.5,0.3-0.8c0.1-0.3,0.3-0.7,0.4-1.2c0.2-0.5,0.3-1,0.4-1.3
		c0-0.1,0-0.1,0-0.2c0-0.1,0-0.2,0-0.2c0-0.2-0.1-0.4-0.2-0.6c-0.1-0.1-0.3-0.2-0.5-0.3s-0.4-0.1-0.6-0.1c-0.2,0-0.4,0-0.6,0
		c-0.1,0-0.4,0-0.8,0c-0.4,0-1,0.1-1.9,0.2c-0.2,0-0.4,0-0.7,0c-0.3-0.1-0.4-0.2-0.4-0.6c0-0.1,0-0.3,0.1-0.5s0.2-0.3,0.3-0.3
		c0.4-0.1,0.9-0.1,1.5-0.2c0.6-0.1,1.2-0.1,1.8-0.1c0.4,0,0.8,0,1.3,0.1s0.9,0.2,1.3,0.4c0.4,0.1,0.6,0.4,0.7,0.8
		c0.1,0.4,0.1,0.8,0.1,1.1c0,0.2,0,0.5-0.1,0.7c0,0.3-0.1,0.5-0.2,0.7c0,0,0,0.1-0.1,0.3c-0.1,0.2-0.1,0.4-0.2,0.6
		c-0.1,0.2-0.2,0.4-0.2,0.6s-0.1,0.4-0.2,0.4c-0.1,0.1-0.1,0.3-0.2,0.4c-0.1,0.2-0.2,0.4-0.3,0.5c-0.1,0.2-0.2,0.3-0.3,0.4
		c-0.1,0.1-0.2,0.2-0.3,0.2c-0.2,0-0.4,0-0.5-0.1C1177.2,35.7,1177.1,35.6,1177.1,35.4z"/>
</g>
</svg>
