<?xml version="1.0" encoding="utf-8"?>
<!-- Generator: Adobe Illustrator 24.0.1, SVG Export Plug-In . SVG Version: 6.00 Build 0)  -->
<svg version="1.1" id="레이어_1" xmlns="http://www.w3.org/2000/svg" xmlns:xlink="http://www.w3.org/1999/xlink" x="0px"
	 y="0px" viewBox="0 0 2160 70" style="enable-background:new 0 0 2160 70;" xml:space="preserve">
<style type="text/css">
	.st0{fill:#454859;}
	.st1{fill:none;}
	.st2{fill:#FFFFFF;}
</style>
<title>top</title>
<rect class="st0" width="2160" height="70"/>
<g>
	<rect x="893.1" y="18.9" class="st1" width="186.9" height="32.2"/>
	<path class="st2" d="M894.3,34.9c0-0.2,0.1-0.3,0.2-0.4c0.1-0.1,0.2-0.2,0.3-0.2c0.7-0.3,1.3-0.5,2-0.7c0.6-0.2,1.2-0.3,1.8-0.4
		c0.6-0.1,1.2-0.2,1.9-0.2c0.7,0,1.4-0.1,2.2-0.1h1.6c0.7,0,1.2,0,1.8,0.1c0.5,0.1,1,0.1,1.3,0.2c0.3,0.1,0.7,0.2,0.9,0.4
		c0.3,0.2,0.4,0.4,0.2,0.8c0,0.1-0.1,0.1-0.2,0.1s-0.2,0-0.3,0c-0.2,0-0.6,0-1.1-0.1c-0.5,0-0.9-0.1-1.3-0.1
		c-0.6-0.1-1.1-0.1-1.7-0.1c-1.2,0-2.3,0.1-3.3,0.2c-1.1,0.1-2.1,0.4-3.2,0.7c-0.3,0.1-0.7,0.3-1.1,0.5c-0.4,0.2-0.8,0.3-1.1,0.4
		c-0.3,0-0.5,0-0.7-0.3C894.3,35.3,894.3,35.1,894.3,34.9z M898.2,28.8c0-0.4,0.1-0.9,0.2-1.3c0.2-0.4,0.3-0.8,0.6-1.2
		c0.2-0.4,0.5-0.7,0.7-1c0.3-0.3,0.5-0.6,0.7-0.7c0.1-0.1,0.2-0.2,0.3-0.2c0.1,0,0.2,0,0.4-0.1c0.1,0,0.2-0.1,0.2-0.1
		c0.1,0,0.2-0.1,0.4-0.1c0.4,0,0.8,0.2,1,0.6s0.4,0.8,0.4,1.3c0,0.5-0.1,0.9-0.2,1.4c-0.2,0.5-0.4,0.9-0.7,1.3
		c-0.3,0.4-0.7,0.7-1.1,1c-0.4,0.3-1,0.4-1.5,0.4c-0.4,0-0.7-0.1-1-0.3C898.3,29.5,898.2,29.2,898.2,28.8z M898.6,42.5
		c0-0.2,0-0.5,0.1-0.8c0.1-0.3,0.1-0.6,0.2-0.8c0-0.1,0.1-0.3,0.2-0.5c0.1-0.2,0.2-0.4,0.3-0.6c0.1-0.2,0.2-0.4,0.3-0.5
		c0.1-0.2,0.2-0.3,0.2-0.4c0.3-0.4,0.5-0.8,0.9-1.2s0.6-0.6,1-0.6c0.3,0,0.5,0.1,0.7,0.3s0.2,0.5,0,0.8c0,0,0,0.1-0.1,0.2
		c0,0.1-0.1,0.2-0.1,0.3c0.2,0.1,0.4,0.3,0.6,0.6c0.1,0.3,0.2,0.6,0.2,0.9c0,0.6,0,1.1-0.3,1.5s-0.5,0.9-0.9,1.2
		c-0.1,0.1-0.2,0.2-0.4,0.3s-0.3,0.2-0.5,0.3c-0.2,0.1-0.4,0.2-0.6,0.2c-0.2,0-0.5,0-0.7,0c-0.4-0.1-0.6-0.2-0.7-0.5
		C898.6,43.1,898.6,42.8,898.6,42.5z M901.7,25.4c-0.2,0.1-0.4,0.3-0.6,0.5s-0.4,0.5-0.6,0.8c-0.2,0.3-0.3,0.6-0.5,0.9
		s-0.2,0.6-0.2,0.9c0.2,0,0.5-0.1,0.7-0.2c0.2-0.2,0.5-0.4,0.6-0.6s0.4-0.5,0.5-0.9c0.1-0.3,0.2-0.6,0.2-0.9
		C902,25.8,901.9,25.6,901.7,25.4z M901.4,39.7c-0.1,0.1-0.2,0.2-0.4,0.4c-0.2,0.2-0.3,0.5-0.5,0.8s-0.3,0.6-0.4,0.9
		c-0.1,0.3-0.1,0.5-0.1,0.7c0.4,0,0.7-0.3,1.1-0.6c0.3-0.4,0.5-0.8,0.6-1.4c0-0.1,0-0.3,0-0.4C901.6,39.9,901.5,39.8,901.4,39.7z"/>
	<path class="st2" d="M918.4,30.5c0.3-0.1,0.6-0.2,1-0.2s0.8-0.2,1.2-0.2c0.4-0.1,0.8-0.1,1.2-0.2c0.4,0,0.8,0,1.2,0
		c0.3,0,0.6,0,0.9,0.1c0.2,0,0.5,0.1,0.8,0.2c0.4,0.1,0.6,0.4,0.6,0.8c0,0.2-0.3,0.3-0.8,0.3c-1.3-0.1-2.5,0-3.7,0.3
		c-1.2,0.3-2.4,0.7-3.4,1.2c-0.4,0.2-0.7,0.2-0.9,0.1c-0.2-0.1-0.3-0.3-0.4-0.6c0-0.2,0-0.4,0.1-0.6s0.2-0.3,0.4-0.4
		c0.3-0.2,0.6-0.3,0.9-0.5C917.8,30.7,918.1,30.6,918.4,30.5z M917.7,38.8c-0.1-0.1-0.1-0.3-0.2-0.5c0-0.2,0-0.5,0-1
		c0-0.2,0.1-0.5,0.2-0.8c0.1-0.3,0.3-0.6,0.5-1c0.1-0.2,0.3-0.5,0.4-0.8c0.2-0.3,0.3-0.5,0.5-0.8s0.4-0.5,0.6-0.7
		c0.2-0.2,0.4-0.3,0.5-0.3c0.3,0,0.5,0,0.7,0.1s0.3,0.3,0.3,0.6c0,0.2-0.1,0.3-0.1,0.4c-0.1,0.1-0.1,0.2-0.2,0.4
		c0.2,0.1,0.4,0.3,0.6,0.5c0.2,0.2,0.3,0.5,0.4,0.8c0.1,0.3,0.1,0.6,0.1,0.9c0,0.2-0.1,0.5-0.2,0.8c-0.3,0.8-0.9,1.4-1.6,1.9
		c-0.2,0.1-0.4,0.2-0.6,0.2s-0.5,0.1-0.7,0.1c-0.2,0-0.4-0.1-0.7-0.2C918,39.2,917.8,39,917.7,38.8z M920.5,28.1
		c0,0.3-0.1,0.5-0.2,0.7c-0.1,0.2-0.3,0.3-0.5,0.3s-0.4,0-0.5-0.1c-0.2-0.1-0.3-0.2-0.3-0.5c0-0.3,0-0.7,0-1.2
		c0-0.4,0.1-0.8,0.1-1.2c0.1-0.4,0.1-0.7,0.2-0.9c0-0.2,0.1-0.4,0.1-0.6c0.1-0.4,0.3-0.9,0.4-1.4c0.2-0.5,0.4-0.9,0.6-1.3
		c0.2-0.3,0.4-0.5,0.6-0.6c0.3-0.1,0.5-0.1,0.8,0.1c0.3,0.1,0.4,0.4,0.3,0.7c0,0.2-0.1,0.3-0.2,0.5c-0.1,0.1-0.1,0.3-0.2,0.5
		c-0.3,0.7-0.5,1.3-0.7,1.8c-0.2,0.5-0.4,1.1-0.5,1.8c0,0.2-0.1,0.4-0.1,0.7C920.5,27.6,920.5,27.9,920.5,28.1z M920.5,35.5
		c-0.4,0.2-0.7,0.6-1,1.2c-0.1,0.2-0.2,0.4-0.2,0.6c-0.1,0.2-0.1,0.4-0.1,0.6c0.3-0.1,0.5-0.2,0.8-0.4c0.3-0.2,0.5-0.5,0.6-0.8
		c0.1-0.2,0.1-0.4,0.1-0.6C920.6,35.8,920.6,35.7,920.5,35.5z M923.8,41.6c0-0.4,0.1-0.8,0.2-1.2c0.1-0.4,0.3-0.8,0.4-1.2
		c0.1-0.1,0.2-0.4,0.3-0.8c0.1-0.4,0.3-0.7,0.5-1.1c0.2-0.4,0.4-0.7,0.6-1c0.2-0.3,0.4-0.4,0.6-0.5c0.2,0,0.4,0,0.7,0.1
		c0.3,0.1,0.4,0.2,0.4,0.5c0,0.2-0.1,0.4-0.3,0.7s-0.4,0.5-0.5,0.7c-0.3,0.5-0.5,0.9-0.7,1.3c-0.2,0.4-0.3,0.9-0.4,1.5
		c0,0.1,0,0.2,0,0.3c0,0.1,0,0.2,0.1,0.2c0.1,0.1,0.2,0.1,0.3,0.1c0.1,0,0.3,0,0.4,0c0.1,0,0.3-0.1,0.4-0.1c0.1,0,0.2-0.1,0.2-0.1
		c0.8-0.3,1.6-0.7,2.6-0.9c0.9-0.3,2-0.5,3-0.7c0.3-0.1,0.5-0.1,0.7-0.1c0.2,0,0.4,0.1,0.6,0.2c0.1,0,0.1,0.1,0.1,0.2
		c0,0.1,0,0.2,0,0.3c0,0.1,0,0.2-0.1,0.3c0,0.1-0.1,0.2-0.3,0.2c-0.1,0-0.4,0.1-0.7,0.1c-0.4,0.1-0.7,0.1-1,0.2
		c-0.6,0.2-1.2,0.3-1.9,0.6c-0.7,0.2-1.4,0.5-2.1,0.8c-0.4,0.2-0.9,0.4-1.4,0.6c-0.5,0.2-1.1,0.3-1.8,0.2c-0.3,0-0.6-0.2-0.8-0.5
		S923.8,41.9,923.8,41.6z M928.6,29.9c0.1-0.4,0.1-0.8,0.2-1.1s0.1-0.7,0.2-1c0.1-0.3,0.1-0.7,0.2-1c0.1-0.4,0.2-0.8,0.3-1.3
		c0-0.2,0.1-0.5,0.2-0.8c0.1-0.3,0.2-0.6,0.3-0.8c0-0.1,0.1-0.2,0.3-0.2c0.1,0,0.3-0.1,0.3-0.1c0.3,0,0.5,0.1,0.6,0.2
		c0.2,0.1,0.2,0.3,0.2,0.6c0,0.4-0.1,0.7-0.1,1.1c-0.2,0.7-0.4,1.5-0.5,2.3c-0.2,0.8-0.3,1.6-0.4,2.2c0.2-0.1,0.5-0.2,0.8-0.3
		c0.3-0.1,0.6-0.2,0.9-0.3c0.3-0.1,0.6-0.2,0.9-0.2c0.3-0.1,0.5-0.1,0.6-0.1c0.3-0.1,0.7-0.2,1.1-0.2c0.4,0,0.9,0,1.4,0
		c0.2,0,0.3,0.1,0.3,0.2s0.1,0.3,0,0.4c-0.1,0.1-0.1,0.2-0.2,0.2c-0.3,0.1-0.5,0.2-0.8,0.2c-0.3,0.1-0.5,0.1-0.9,0.2
		c-0.8,0.2-1.5,0.5-2.2,0.7c-0.7,0.2-1.4,0.6-2.2,0.9c0,0.6-0.1,1.2-0.1,1.9c0,0.7,0,1.3,0.1,1.7c0,0.1,0,0.3,0.1,0.5
		c0,0.2,0.1,0.3,0.1,0.5v0.1c0,0.2-0.1,0.3-0.3,0.4c-0.2,0.1-0.3,0.1-0.4,0.1c-0.2,0-0.3,0-0.4-0.2c-0.1-0.1-0.2-0.3-0.3-0.5
		c-0.1-0.3-0.2-0.7-0.3-1.1c0-0.3-0.1-0.6-0.1-0.9c0-0.3,0-0.6,0-0.9c0,0,0-0.2,0-0.5c0-0.3,0-0.6,0-1c0-0.4,0-0.7,0.1-1.1
		C928.5,30.5,928.6,30.2,928.6,29.9z"/>
	<path class="st2" d="M936.4,33.1c0-0.4,0.1-0.9,0.2-1.3c0.1-0.4,0.3-0.8,0.4-1.2c0.2-0.4,0.3-0.7,0.5-1c0.2-0.3,0.3-0.6,0.5-0.8
		c0.2-0.3,0.4-0.6,0.7-1c0.3-0.4,0.6-0.8,0.9-1.2c0.3-0.4,0.7-0.9,1-1.3c0.3-0.4,0.6-0.9,0.9-1.3c0.1-0.2,0.2-0.4,0.3-0.6
		s0.3-0.3,0.5-0.4c0.3,0,0.6,0.1,0.9,0.2c0.2,0.2,0.4,0.4,0.4,0.8c0,0.3-0.1,0.5-0.2,0.6c-0.1,0.1-0.2,0.2-0.3,0.3
		c-0.1,0.1-0.3,0.3-0.4,0.4l-0.2,0.2c0,0.1-0.1,0.2-0.1,0.2s-0.1,0.1-0.1,0.2c-0.2,0.2-0.4,0.5-0.6,0.7c-0.2,0.3-0.5,0.5-0.7,0.8
		c-0.2,0.3-0.4,0.6-0.6,0.9c-0.2,0.3-0.3,0.6-0.4,0.8c0.3,0.3,0.7,0.6,1,0.9c0.4,0.3,0.7,0.5,1.1,0.8s0.8,0.5,1.2,0.8
		c0.4,0.3,0.8,0.6,1.3,1c0.2,0.2,0.3,0.3,0.3,0.5c0,0.1,0,0.3,0,0.3c-0.1,0.1-0.2,0.2-0.3,0.2c-0.1,0-0.3,0-0.5,0
		c-0.7-0.2-1.4-0.5-1.9-0.8c-0.5-0.3-1-0.6-1.4-0.8c-0.3-0.2-0.6-0.4-0.9-0.6c-0.4-0.2-0.7-0.5-0.9-0.7c-0.1,0.1-0.2,0.2-0.3,0.3
		s-0.2,0.3-0.3,0.5c-0.1,0.2-0.2,0.4-0.3,0.6c-0.1,0.2-0.2,0.3-0.2,0.5c0,0.1-0.1,0.2-0.1,0.4c0,0.2-0.1,0.3-0.2,0.4
		c-0.1,0.1-0.1,0.3-0.2,0.4c-0.1,0.1-0.2,0.2-0.3,0.2c-0.3,0-0.5-0.1-0.6-0.2S936.4,33.3,936.4,33.1z M947.7,48.1
		c0-0.2,0.1-0.5,0.3-0.7c0.2-0.3,0.3-0.5,0.6-0.7c0.2-0.2,0.4-0.5,0.6-0.7c0.2-0.2,0.4-0.4,0.6-0.5c0.1-0.1,0.3-0.3,0.6-0.6
		c0.2-0.2,0.5-0.5,0.7-0.7c0.2-0.2,0.4-0.4,0.6-0.6c0.2-0.2,0.3-0.3,0.4-0.4c0.1-0.1,0.2-0.2,0.3-0.3c0.1-0.1,0.2-0.3,0.2-0.4
		c-0.2,0-0.6-0.1-1.1-0.1c-0.5,0-1,0-1.4-0.1c-0.4,0-0.7-0.2-1-0.4c-0.3-0.3-0.4-0.6-0.4-1.1c0-0.5,0.2-0.9,0.5-1.3s0.5-0.8,0.8-1.2
		c0.4-0.5,0.8-1,1.2-1.5c0.4-0.5,0.8-0.9,1-1.4c0.1-0.1,0.1-0.2,0.2-0.3c0-0.1,0.1-0.2,0.1-0.2c-1,0-2,0.3-3.1,0.8
		c-1.1,0.5-2,1.1-2.9,1.9c-0.2,0.2-0.5,0.2-0.8,0c-0.3-0.2-0.4-0.5-0.4-0.9c0-0.3,0.1-0.5,0.4-0.8c0.3-0.2,0.5-0.4,0.8-0.6
		c0.4-0.2,0.8-0.5,1.2-0.7c0.5-0.2,1-0.4,1.5-0.6c0.5-0.2,1-0.3,1.5-0.4c0.5-0.1,1-0.2,1.4-0.2c0.2,0,0.4,0,0.6,0
		c0.2,0,0.4,0.1,0.6,0.2c0.2,0.1,0.4,0.2,0.5,0.3c0.1,0.1,0.2,0.4,0.2,0.6c0,0.3-0.1,0.7-0.4,1.1c-0.3,0.4-0.5,0.9-0.9,1.3
		c-0.3,0.5-0.7,0.9-1,1.4c-0.4,0.4-0.7,0.8-0.9,1.1c-0.1,0.2-0.2,0.4-0.3,0.5s-0.2,0.3-0.2,0.5c0,0.1,0,0.3,0,0.4
		c0,0.1,0.1,0.2,0.3,0.2c0.6,0.1,1.1,0.1,1.6,0.1s0.9,0.1,1.4,0.1c0.3,0,0.6,0.2,0.7,0.4c0.1,0.2,0.2,0.5,0.2,0.7
		c0,0.2-0.1,0.4-0.2,0.6c-0.2,0.2-0.4,0.4-0.6,0.7c-0.2,0.2-0.5,0.5-0.7,0.7c-0.3,0.2-0.5,0.5-0.7,0.7c-0.4,0.4-0.8,0.8-1.2,1.2
		s-0.9,0.9-1.3,1.4c0.3,0,0.6,0,0.9-0.1c1.2-0.2,2.4-0.5,3.5-0.8c0.1,0,0.3,0,0.4,0c0.1,0.1,0.2,0.1,0.2,0.3c0,0.1,0.1,0.2,0.1,0.4
		c0,0.1-0.1,0.2-0.1,0.3c-0.1,0.2-0.5,0.4-1,0.5c-0.5,0.2-1,0.3-1.6,0.5c-0.6,0.1-1.2,0.3-1.7,0.4c-0.6,0.1-1,0.2-1.2,0.2
		c-0.4,0-0.7-0.1-1-0.3C947.8,49,947.6,48.7,947.7,48.1z M949.9,30.9c0-0.4-0.1-0.9-0.1-1.4c0-0.6,0-1.2,0-1.8s0.1-1.2,0.1-1.8
		c0-0.6,0.1-1,0.1-1.4c0-0.3,0.1-0.7,0.2-1.1c0.1-0.4,0.2-0.8,0.3-1.2c0-0.1,0.1-0.2,0.1-0.3c0-0.1,0.1-0.1,0.1-0.2
		c0.1-0.1,0.1-0.1,0.2-0.1c0.1,0,0.3,0,0.5,0c0.2,0,0.3,0.1,0.5,0.2c0.2,0.1,0.3,0.2,0.3,0.3c0.1,0.1,0.1,0.3,0.1,0.5
		c-0.1,0.8-0.3,1.4-0.3,2c-0.1,0.5-0.1,1.1-0.2,1.8c0.1,0,0.3-0.1,0.5-0.1c0.2,0,0.4-0.1,0.6-0.1c0.2,0,0.4-0.1,0.6-0.1
		c0.2,0,0.4-0.1,0.5-0.1c0.4-0.1,0.9-0.1,1.3-0.2s0.9-0.1,1.4-0.1c0.4,0,0.8,0,1.1,0.1c0.3,0.1,0.5,0.3,0.5,0.5
		c0,0.2-0.1,0.3-0.4,0.4s-0.5,0.1-0.6,0.2c-0.6,0.1-1.1,0.1-1.6,0.2c-0.5,0.1-1,0.2-1.6,0.4c-0.2,0.1-0.4,0.1-0.7,0.2
		c-0.2,0.1-0.5,0.2-0.7,0.3c-0.2,0.1-0.4,0.2-0.6,0.4c-0.2,0.2-0.3,0.3-0.3,0.6c0,0.5-0.1,1-0.1,1.4c0,0.4,0,0.9-0.1,1.4
		c0,0.3-0.2,0.5-0.6,0.5c-0.4,0-0.7-0.1-0.8-0.3C950.1,31.4,950,31.2,949.9,30.9z"/>
	<path class="st2" d="M965.4,29.3c-0.2-0.6,0-1,0.7-1.2c0.4-0.2,0.8-0.3,1.2-0.5s0.7-0.2,1.1-0.3c0.3-0.1,0.7-0.1,1-0.1
		c0.3,0,0.7,0,1.1,0c0.1,0,0.2,0,0.4,0.1c0.1,0,0.2,0,0.3,0c0.1,0,0.3,0.1,0.4,0.2c0.2,0.1,0.2,0.3,0.2,0.6c0,0.3-0.2,0.5-0.4,0.5
		s-0.5,0.1-0.9,0.1c-0.5,0-1,0-1.6,0.2c-0.6,0.1-1.1,0.3-1.5,0.4c-0.1,0-0.2,0.1-0.3,0.1s-0.3,0.1-0.4,0.2c-0.2,0.1-0.5,0.2-0.7,0.2
		C965.7,29.7,965.5,29.5,965.4,29.3z M965.8,34.1c0-0.5,0.1-1,0.1-1.4c0.1-0.4,0.2-0.8,0.5-1.1c0.1-0.1,0.2-0.2,0.4-0.2
		c0.1,0,0.3,0,0.4,0c0.4,0.1,0.7,0.3,0.7,0.6c0,0.2,0,0.4-0.1,0.5s-0.1,0.4-0.1,0.5c0,0.3-0.1,0.5-0.1,0.7s0,0.4,0,0.6
		c0,0.4,0,0.7,0.1,0.9c0,0.3,0.2,0.5,0.4,0.7c0.2,0.2,0.3,0.2,0.6,0.2s0.4,0,0.6,0c0.4,0,0.7-0.1,0.9-0.2c0.2-0.1,0.5-0.2,0.8-0.3
		c0.5-0.2,0.9-0.3,1.4-0.5c0.2-0.1,0.4-0.2,0.7-0.3c0.3-0.1,0.5-0.2,0.6-0.2c0.1,0,0.2-0.1,0.3-0.1c0.1,0,0.2,0,0.3,0
		c0.1,0,0.2,0.1,0.3,0.3c0,0.1,0.1,0.2,0.1,0.3v0.1c0,0,0,0.1-0.1,0.2c-0.1,0.1-0.2,0.3-0.4,0.4c-0.2,0.2-0.5,0.3-0.7,0.5
		c-0.3,0.1-0.6,0.3-1,0.5c-0.1,0.1-0.3,0.1-0.5,0.2s-0.4,0.2-0.6,0.2s-0.4,0.2-0.6,0.2c-0.2,0.1-0.4,0.1-0.5,0.2
		c-0.3,0.1-0.6,0.1-0.8,0.2c-0.2,0-0.5,0-0.8,0c-0.7,0-1.3-0.2-1.6-0.5c-0.4-0.3-0.7-0.8-0.8-1.4c0-0.2-0.1-0.5-0.1-1
		C965.8,34.6,965.8,34.3,965.8,34.1z M978.4,34.8c0-0.1,0-0.2,0-0.4c0-0.2,0-0.3,0-0.5c0-0.2,0-0.3,0.1-0.5c0-0.2,0-0.3,0.1-0.4
		c0,0,0-0.2,0.1-0.3c0-0.2,0.1-0.4,0.1-0.6s0.1-0.4,0.1-0.6c0-0.2,0.1-0.3,0.1-0.4c0-0.1,0-0.2,0.1-0.4c0-0.2,0-0.3,0.1-0.6
		c-0.4,0.2-0.7,0.4-1.2,0.6s-0.8,0.4-1.2,0.6c-0.5,0.3-1.1,0.5-1.6,0.8c-0.6,0.3-1.1,0.5-1.7,0.8c-0.2,0.1-0.4,0.2-0.5,0.3
		c-0.2,0.1-0.4,0.2-0.6,0.2c-0.2,0-0.4,0-0.5-0.1c-0.1-0.1-0.1-0.2-0.2-0.4c0-0.1-0.1-0.2-0.1-0.3c0-0.1,0-0.2,0-0.2
		c0-0.3,0.2-0.5,0.5-0.7s0.5-0.3,0.8-0.4c0.3-0.1,0.6-0.3,1-0.4c0.4-0.1,0.7-0.3,1.1-0.5c0.6-0.3,1.1-0.5,1.7-0.8
		c0.5-0.2,1.1-0.5,1.6-0.8c0.2-0.1,0.4-0.2,0.6-0.3c0.2-0.1,0.4-0.3,0.6-0.4c0.1-0.1,0.2-0.1,0.2-0.2c0-0.1,0.1-0.1,0.1-0.1
		c0.1-0.3,0.2-0.5,0.3-0.7c0.1-0.2,0.2-0.4,0.3-0.7c0-0.1,0.1-0.2,0.2-0.4c0.1-0.2,0.1-0.3,0.2-0.4c0-0.1,0.1-0.2,0.3-0.2
		c0.2,0,0.3,0,0.5,0c0.3,0,0.5,0.1,0.6,0.2c0.1,0.1,0.1,0.3,0.1,0.5c0,0.4-0.1,0.7-0.2,1c-0.2,0.3-0.3,0.6-0.4,1
		c-0.1,0.2-0.2,0.5-0.3,0.8c-0.1,0.3-0.2,0.6-0.2,0.7c-0.1,0.6-0.2,1.2-0.3,1.8c-0.1,0.6-0.2,1.3-0.4,2c-0.1,0.5-0.2,0.9-0.2,1.4
		c0,0.5-0.1,0.9-0.1,1.4c0,0.3,0,0.7,0,1.1s0,0.9,0,1.4c0,0.5,0.1,1,0.1,1.4c0,0.5,0.1,0.9,0.2,1.2c0,0.1,0.1,0.2,0.1,0.3
		c0,0.1,0,0.2,0.1,0.4c0,0.2,0,0.4,0,0.6c0,0.2-0.1,0.3-0.3,0.3c-0.2,0.1-0.4,0.1-0.5,0c-0.1-0.1-0.2-0.1-0.3-0.3
		c-0.1-0.1-0.1-0.2-0.2-0.4c-0.1-0.1-0.1-0.2-0.1-0.3c0-0.1-0.1-0.2-0.1-0.2c0-0.1,0-0.1-0.1-0.2c-0.1-0.3-0.2-0.8-0.3-1.3
		c-0.1-0.5-0.1-1.1-0.2-1.6c0-0.6-0.1-1.1-0.1-1.7s0-1,0-1.4V34.8z"/>
	<path class="st2" d="M993.8,34.4c0.1-0.1,0.3-0.3,0.6-0.4c0.2-0.2,0.5-0.3,0.9-0.5c0-0.2,0.1-0.4,0.1-0.7c0-0.3,0.1-0.5,0.1-0.8
		c0-0.1,0.1-0.3,0.1-0.6c0-0.3,0.1-0.6,0.2-0.9c0-0.3,0.1-0.6,0.1-0.9c0-0.3,0.1-0.6,0.1-0.8c0-0.3,0-0.6-0.2-0.7
		c-0.2-0.1-0.4-0.2-0.6-0.2c-0.5,0-0.9,0.2-1.3,0.3c-0.4,0.2-0.8,0.6-1,1.1c0,0,0,0.1-0.1,0.3c0,0.2-0.1,0.3-0.1,0.6
		c0,0.2-0.1,0.4-0.1,0.6c0,0.2,0,0.4,0,0.5c0,0.2,0,0.4,0,0.5c0,0.1,0,0.1,0,0.2s0,0.1,0,0.2c0,0.1,0,0.2,0,0.4
		c0,0.4-0.1,0.6-0.3,0.7c-0.2,0.1-0.4,0.1-0.5,0.1c-0.2,0-0.3,0-0.4-0.2c-0.1-0.1-0.2-0.2-0.3-0.4c-0.1-0.1-0.1-0.3-0.2-0.5
		S991,32.1,991,32c0-0.1,0-0.2-0.1-0.4c0-0.2,0-0.3,0-0.3c0-0.1,0-0.3,0-0.5c0-0.2,0-0.4,0-0.6c0-0.2,0-0.5,0.1-0.7
		c0-0.2,0-0.4,0-0.6c0,0,0-0.1,0-0.3s0-0.4,0.1-0.6c0-0.2,0.1-0.4,0.1-0.6c0-0.2,0.1-0.4,0.1-0.5c0.1-0.4,0.1-0.7,0.2-0.9
		c0-0.2,0.1-0.4,0.3-0.8c0.1-0.2,0.3-0.3,0.5-0.4c0.3,0,0.5,0,0.7,0.1c0.2,0.1,0.3,0.2,0.3,0.3c0,0.1,0.1,0.3,0,0.4
		c-0.1,0.3-0.1,0.5-0.2,0.7c-0.1,0.2-0.1,0.4-0.2,0.6c0.2-0.1,0.5-0.2,0.6-0.3c0.2-0.1,0.4-0.1,0.6-0.2s0.4-0.1,0.6-0.1
		c0.2,0,0.5-0.1,0.7-0.1c0.6,0,1.1,0.1,1.6,0.4c0.4,0.3,0.6,0.8,0.6,1.4c0,0.3-0.1,0.6-0.1,1c-0.1,0.4-0.1,0.7-0.1,1.1
		c-0.1,0.3-0.1,0.7-0.2,1c-0.1,0.3-0.1,0.6-0.1,0.7c0,0.2-0.1,0.4-0.1,0.5c0,0.2-0.1,0.3-0.1,0.4c0.5-0.2,0.9-0.3,1.1-0.4
		c0.2-0.1,0.5-0.2,0.9-0.2c0.1,0,0.2,0,0.3,0.1c0.1,0.1,0.2,0.1,0.2,0.2c0,0.1,0.1,0.2,0.1,0.3c0,0.1-0.1,0.2-0.1,0.3
		c-0.1,0.1-0.2,0.1-0.4,0.2s-0.3,0.2-0.5,0.3s-0.4,0.2-0.5,0.3s-0.3,0.2-0.5,0.2c-0.1,0.1-0.3,0.1-0.6,0.3s-0.5,0.3-0.8,0.4
		c-0.1,0-0.2,0.1-0.3,0.2c-0.1,0.1-0.3,0.2-0.4,0.3c-0.1,0.1-0.3,0.2-0.4,0.3c-0.1,0.1-0.3,0.1-0.3,0.2c-0.2,0.1-0.4,0.1-0.5,0
		s-0.3-0.2-0.4-0.3c-0.1-0.1-0.1-0.3-0.1-0.5C993.7,34.7,993.7,34.5,993.8,34.4z M1006.3,34.8c-0.1-0.2-0.1-0.4-0.1-0.8
		c0-0.4,0-0.8,0-1.3c0-0.5,0-0.9,0.1-1.3c0-0.4,0-0.8,0-1c0-0.1,0-0.2,0-0.4c0-0.2,0-0.4,0.1-0.6c0-0.2,0-0.4,0.1-0.5
		c0-0.2,0-0.3,0-0.3c0-0.1,0-0.3,0.1-0.4c0-0.1,0-0.3,0-0.4c-0.2,0.1-0.4,0.2-0.7,0.4s-0.6,0.4-0.9,0.5c-0.3,0.2-0.7,0.3-1.1,0.5
		c-0.4,0.2-0.8,0.3-1.3,0.5c-0.4,0.1-0.9,0.3-1.3,0.4c-0.5,0.1-0.9,0.2-1.2,0.2c-0.2,0-0.4,0-0.6-0.2s-0.2-0.4-0.2-0.5
		s0-0.3,0.1-0.5c0.1-0.2,0.2-0.3,0.4-0.3c0.2,0,0.5-0.1,0.8-0.1s0.6-0.1,0.8-0.2c1.1-0.3,2.1-0.7,2.9-1.1c0.8-0.4,1.7-0.9,2.5-1.6
		c0.2-0.2,0.3-0.3,0.4-0.6c0.1-0.2,0.2-0.4,0.2-0.6c0.1-0.2,0.2-0.4,0.3-0.5s0.3-0.2,0.6-0.2c0.5,0,0.8,0.3,0.8,0.8
		c0,0.3,0,0.5-0.1,0.7c-0.1,0.2-0.2,0.4-0.3,0.7c-0.2,0.5-0.4,1.1-0.5,1.8c-0.1,0.7-0.2,1.3-0.2,1.8c0,0.2,0,0.5-0.1,0.9
		c0,0.4,0,0.7-0.1,1.1c0,0.4,0,0.8,0,1.1c0,0.4,0,0.7,0,0.9c0,0.3-0.1,0.7-0.1,0.9c-0.1,0.3-0.3,0.5-0.6,0.5c-0.1,0-0.2,0-0.4,0
		S1006.3,34.9,1006.3,34.8z M1006.4,45c0,0.2-0.1,0.3-0.3,0.4c-0.2,0.1-0.3,0.1-0.5,0.1c-0.2,0-0.3-0.1-0.5-0.2
		c-0.1-0.1-0.2-0.3-0.2-0.5c0-0.5,0-1,0.1-1.5c0-0.5,0.1-0.9,0.2-1.3c0.1-0.3,0.2-0.6,0.3-0.8c0.1-0.2,0.2-0.5,0.3-0.7
		c0.1-0.2,0.2-0.5,0.3-0.8c0.1-0.3,0.2-0.6,0.3-1c0.1-0.2,0-0.3-0.1-0.5s-0.3-0.2-0.6-0.2c-0.7,0-1.3,0.1-1.8,0.3
		c-0.5,0.2-1.1,0.5-1.7,0.9c-0.2,0.1-0.3,0.3-0.5,0.4c-0.2,0.2-0.4,0.3-0.7,0.3c-0.2,0-0.4-0.1-0.5-0.3c-0.1-0.2-0.2-0.5-0.2-0.7
		c0-0.2,0.1-0.4,0.4-0.7c0.3-0.2,0.6-0.5,1.1-0.7c0.4-0.2,0.8-0.4,1.2-0.6c0.4-0.2,0.7-0.3,0.9-0.3c0.6-0.1,1.1-0.2,1.6-0.3
		c0.5-0.1,1-0.1,1.6,0c0.7,0.1,1,0.5,1,1.3c0,0.8-0.1,1.5-0.4,2.1c-0.3,0.6-0.5,1.3-0.7,1.9c-0.1,0.4-0.2,0.9-0.4,1.4
		S1006.4,44.3,1006.4,45z"/>
	<path class="st2" d="M1011.1,35c0-0.2,0.1-0.3,0.2-0.4c0.1-0.1,0.2-0.2,0.3-0.2c1.4-0.6,2.8-1,4.3-1.2c1.5-0.2,3.1-0.3,4.8-0.3
		c0.7,0,1.2,0,1.8,0.1c0.5,0.1,1,0.1,1.3,0.2c0.3,0.1,0.7,0.2,0.9,0.4c0.3,0.2,0.4,0.4,0.2,0.8c0,0.1-0.1,0.1-0.2,0.1
		c-0.1,0-0.2,0-0.3,0c-0.2,0-0.6,0-1.1-0.1c-0.5,0-0.9-0.1-1.3-0.1c-0.6-0.1-1.2-0.1-1.7-0.1c-1,0-2,0.1-3.1,0.2
		c-1,0.1-2.1,0.3-3.2,0.7c-0.3,0.1-0.7,0.3-1.1,0.5c-0.4,0.2-0.8,0.3-1.1,0.4c-0.3,0-0.5,0-0.7-0.3
		C1011.1,35.5,1011.1,35.2,1011.1,35z M1013.9,43.5c-0.1-0.4-0.1-0.8,0-1.2c0-0.5,0.1-1,0.2-1.5c0.1-0.5,0.2-1,0.3-1.5
		c0.1-0.5,0.2-0.9,0.2-1.3c0-0.2,0-0.4,0-0.5s0-0.3,0.1-0.5s0.1-0.2,0.2-0.3c0.1-0.1,0.3-0.2,0.5-0.2c0.3-0.1,0.6,0,0.7,0.2
		c0.1,0.2,0.2,0.4,0.3,0.7c0,0.2,0,0.4,0,0.6c0,0.2-0.1,0.4-0.1,0.6c-0.1,0.2-0.1,0.4-0.2,0.6s-0.1,0.4-0.1,0.6c0,0.3-0.1,0.6-0.1,1
		s-0.1,0.8-0.1,1.2c-0.1,0.4-0.1,0.8-0.1,1.2c-0.1,0.4-0.1,0.7-0.2,1c0,0.1-0.1,0.2-0.2,0.3c-0.1,0.1-0.2,0.1-0.3,0.1
		c-0.3,0-0.5-0.1-0.6-0.3C1014,44,1013.9,43.8,1013.9,43.5z M1015,29.3c0-0.4,0.1-0.9,0.2-1.3c0.2-0.4,0.3-0.8,0.6-1.2
		c0.2-0.4,0.5-0.7,0.7-1c0.3-0.3,0.5-0.6,0.7-0.7c0.1-0.1,0.2-0.1,0.3-0.1c0.1,0,0.2,0,0.4-0.1c0.1,0,0.2-0.1,0.2-0.1
		c0.1,0,0.2-0.1,0.4-0.1c0.4,0,0.8,0.2,1,0.6c0.3,0.4,0.4,0.8,0.4,1.3s-0.1,0.9-0.2,1.4c-0.2,0.5-0.4,0.9-0.7,1.3
		c-0.3,0.4-0.7,0.7-1.1,1c-0.4,0.3-1,0.4-1.5,0.4c-0.4,0-0.7-0.1-1-0.3C1015.1,30,1015,29.7,1015,29.3z M1018.5,25.9
		c-0.2,0.1-0.4,0.3-0.6,0.5c-0.2,0.2-0.4,0.5-0.6,0.8c-0.2,0.3-0.3,0.6-0.5,0.9s-0.2,0.6-0.2,0.9c0.2,0,0.5-0.1,0.7-0.2
		c0.2-0.2,0.5-0.4,0.6-0.6c0.2-0.3,0.4-0.5,0.5-0.9c0.1-0.3,0.2-0.6,0.2-0.9C1018.7,26.2,1018.7,26.1,1018.5,25.9z M1020.3,39.7
		c0.1-0.2,0-0.4,0-0.6c-0.1-0.2-0.2-0.3-0.5-0.3c-0.3,0-0.7,0-1,0.1c-0.3,0.1-0.7,0.2-1.2,0.3c-0.5,0.1-0.8-0.2-0.8-0.8
		c0-0.2,0-0.3,0.1-0.4c0.1-0.1,0.2-0.2,0.4-0.2c0.1-0.1,0.3-0.1,0.4-0.1c0.2,0,0.3-0.1,0.4-0.1c0.2,0,0.5-0.1,0.9-0.1s0.7,0,0.9,0
		c0.6,0,1.1,0.1,1.4,0.3c0.3,0.2,0.4,0.6,0.5,1.1c0,0.3-0.1,0.8-0.3,1.4c-0.2,0.6-0.4,1.1-0.7,1.6c0.6-0.1,1.2-0.2,1.7-0.2
		c0.5,0,1.1-0.1,1.8-0.1c0.2,0,0.4,0,0.6,0s0.4,0,0.5,0c0.2,0,0.4,0.1,0.5,0.2c0.1,0.1,0.2,0.2,0.2,0.3c0,0.1,0,0.2-0.1,0.3
		c-0.1,0.1-0.2,0.2-0.3,0.2c-0.2,0-0.4,0.1-0.7,0.1c-0.3,0-0.5,0-0.7,0.1c-0.8,0.1-1.5,0.2-2.2,0.3c-0.7,0.1-1.4,0.3-2.2,0.5
		c-0.4,0.1-0.8,0.3-1.2,0.4s-0.7,0.3-1.1,0.3c-0.1,0-0.3,0-0.4,0s-0.3-0.1-0.4-0.2c-0.1-0.1-0.2-0.2-0.2-0.4c0-0.2,0-0.4,0.2-0.5
		c0-0.1,0.2-0.2,0.4-0.3c0.2-0.1,0.4-0.1,0.6-0.2c0.2-0.1,0.4-0.2,0.7-0.4c0.3-0.1,0.5-0.3,0.6-0.5c0.2-0.2,0.3-0.5,0.5-0.9
		C1020,40.5,1020.2,40.1,1020.3,39.7z"/>
	<path class="st2" d="M1037.3,35.9c0.1-0.6,0.3-1.1,0.5-1.5c0.2-0.4,0.5-0.9,0.7-1.3c0.3-0.5,0.7-0.9,1.1-1.4
		c0.4-0.4,0.8-0.9,1.3-1.3c0.4-0.3,0.8-0.6,1.2-1c0.4-0.4,0.8-0.7,1.2-1c0.2-0.1,0.4-0.3,0.5-0.4c0.2-0.1,0.4-0.2,0.6-0.2
		c0.2,0,0.4,0,0.6,0.1s0.4,0.2,0.4,0.4c0,0.1,0,0.3-0.1,0.4c-0.1,0.1-0.2,0.3-0.3,0.4c-0.1,0.1-0.3,0.3-0.5,0.4
		c-0.2,0.1-0.3,0.3-0.4,0.4c0.6,0.1,1.2,0.2,1.8,0.3s1.1,0.1,1.5,0.2c1,0.1,2,0.4,3,0.6c0.2,0.1,0.5,0.2,0.8,0.3
		c0.3,0.1,0.4,0.3,0.4,0.5c0,0.3-0.1,0.5-0.3,0.5c-0.2,0.1-0.4,0.1-0.7,0c-0.4-0.1-0.9-0.1-1.3-0.2s-0.9-0.1-1.3-0.2
		c-0.4,0-0.8-0.1-1.2-0.2c-0.4-0.1-0.8-0.1-1.1-0.2c-0.2,0-0.5,0-0.8-0.1s-0.6-0.1-1-0.1c-0.3,0-0.6,0-1,0s-0.6,0.1-0.8,0.2
		c-0.2,0.1-0.3,0.2-0.5,0.3s-0.3,0.3-0.4,0.4c-0.3,0.3-0.6,0.7-0.9,1c-0.3,0.3-0.5,0.7-0.8,1.1c-0.2,0.3-0.4,0.6-0.5,0.9
		s-0.2,0.5-0.3,0.8c-0.1,0.2-0.2,0.4-0.3,0.6c-0.1,0.2-0.4,0.2-0.8,0.2c-0.2,0-0.4-0.1-0.4-0.3C1037.3,36.4,1037.3,36.1,1037.3,35.9
		z"/>
	<path class="st2" d="M1067.4,35.9c0-0.2,0.1-0.4,0.2-0.7s0.2-0.6,0.4-0.9c0.1-0.3,0.3-0.8,0.5-1.3c0.2-0.5,0.3-1,0.4-1.4
		c0-0.1,0-0.1,0-0.3c0-0.1,0-0.2,0-0.2c0-0.3-0.1-0.5-0.2-0.6s-0.3-0.2-0.5-0.3c-0.2-0.1-0.4-0.1-0.7-0.1c-0.2,0-0.4,0-0.6,0
		c-0.2,0-0.4,0-0.9,0c-0.4,0-1.1,0.1-2,0.2c-0.2,0-0.4,0-0.7,0c-0.3-0.1-0.4-0.3-0.4-0.6c0-0.1,0-0.3,0.1-0.5s0.2-0.3,0.3-0.4
		c0.4-0.1,0.9-0.2,1.6-0.2s1.3-0.1,2-0.1c0.4,0,0.9,0,1.4,0.1c0.5,0.1,1,0.2,1.4,0.4c0.4,0.2,0.6,0.5,0.7,0.9
		c0.1,0.4,0.1,0.8,0.1,1.2c0,0.2,0,0.5-0.1,0.8c-0.1,0.3-0.1,0.5-0.2,0.8c0,0,0,0.1-0.1,0.3c-0.1,0.2-0.1,0.4-0.2,0.6
		c-0.1,0.2-0.2,0.5-0.3,0.7c-0.1,0.2-0.2,0.4-0.2,0.5c-0.1,0.1-0.1,0.3-0.2,0.5c-0.1,0.2-0.2,0.4-0.3,0.6c-0.1,0.2-0.2,0.4-0.3,0.5
		c-0.1,0.1-0.2,0.2-0.4,0.2c-0.2,0-0.4,0-0.6-0.1C1067.5,36.2,1067.4,36.1,1067.4,35.9z"/>
</g>
</svg>
