<svg width="120" height="200" xmlns="http://www.w3.org/2000/svg" xmlns:xlink="http://www.w3.org/1999/xlink"><defs><path id="a" d="M0 .629h119.412V215.67H0z"/><path id="c" d="M.613.654h98.799v37.315H.612z"/><path id="e" d="M.268.871h23.29v24.923H.268z"/></defs><g fill="none" fill-rule="evenodd"><g transform="translate(0 21.129)"><mask id="b" fill="#fff"><use xlink:href="#a"/></mask><path d="M119.413 115.083c-2.91-3.25-9.045-4.407-11.955-7.446-2.515-2.625-4.533-5.708-6.441-8.787-.936-1.512-3.37-7.798-4.957-8.376a20.656 20.656 0 0 0 12.538.502c1.02-.285 1.275-1.33.896-2.204a24.238 24.238 0 0 0-3.975-6.271c1.68 1.928 9.057-.96 10.163-3.105.85-1.647.159-3.376-1.027-4.636-4.19-4.456-9.778-7.394-13.728-12.082-7.353-8.73-12.11-19.284-16.154-29.86-2.062-5.39-3.938-10.848-5.892-16.277-1.478-4.104-2.847-11.688-6.166-14.711-2.703-2.462-1.468-1.067-2.318 3.534C64.352 27.09 53.2 47.336 38.09 64.078a146.307 146.307 0 0 1-13.664 13.28c-.746.637-.477 1.899.303 2.356a20.746 20.746 0 0 0 14.36 2.458c-.463 1.05-1.192 2.013-1.777 2.989-1.01 1.687-1.82 3.665-1.393 5.662.317 1.476 1.519 2.718 2.916 3.247-6.27 10.605-15.808 19.725-24.16 28.833l-.002.002c-2.158 2.353-6.16 4.13-7.581 7.05-2.07 4.25 3.994 5.458 7.582 5.68-3.646 5.682 2.5 10.624 7.57 9.114-4.306 8.743-27.968 22.362-20.954 28.909 1.492 1.393 9.737.494 11.81.327-.33.028-3.38 11.346-3.832 12.494-1.883 4.778-5.666 9.695-6.574 14.752-.544 3.033 1.225 5.462 3.86 6.77 2.67 1.328 5.759 1.913 8.669 2.45 3.166.585 6.378.953 9.595 1.09a69.822 69.822 0 0 0 19.136-1.866 68.066 68.066 0 0 0 17.52-6.863c-1.798 1.012-2.077 9.618 2.275 11.724 5.597 2.708 10.907-.02 14.576-2.038 1.66-.912 2.875-2.202 4.335-3.36.574-.455.836-.428 1.339.077.588.589 1 1.332 1.578 1.933 4.206 4.39 9.982.098 12.339-4.024-1.192 2.085 8.167 3.855 9.297 3.817 5.025-.163 9.43-1.543 12.199-4.461v-91.397z" fill="#00C588" mask="url(#b)"/></g><path d="M65.853 202.523c-.393-.108-.745.133-.874.496-.474 1.336-.947 2.657-1.79 3.818-.71.976-1.74 1.716-2.932 1.9.021-.005-.161.016-.153.015a3.663 3.663 0 0 1-.469.006c.008 0-.157-.013-.156-.01a3.089 3.089 0 0 1-.565-.142c-.021-.009-.167-.069-.17-.068a3.68 3.68 0 0 1-.546-.32c.01.005-.136-.11-.167-.139a3.653 3.653 0 0 1-.288-.296l-.077-.092c-.012-.019-.06-.08-.068-.093a4.35 4.35 0 0 1-.367-.628l-.052-.11-.032-.072-.019-.047a8.471 8.471 0 0 1-.407-1.51c-.012-.067-.021-.134-.033-.2a1.857 1.857 0 0 0-.009-.067l-.011-.082a14.098 14.098 0 0 1-.087-1.373c-.01-.63.018-1.258.07-1.885.03-.348-.292-.66-.615-.699-.376-.044-.644.172-.78.51a25.752 25.752 0 0 1-2.719 5.026c-1.018 1.473-2.197 3-3.723 3.941a4.846 4.846 0 0 1-1.072.515c-.436.14-.721.19-1.158.177a1.879 1.879 0 0 1-.498-.063 3.847 3.847 0 0 1-.483-.15 3.894 3.894 0 0 1-.448-.245 3.163 3.163 0 0 1-.198-.138c-.001-.003-.115-.099-.141-.122a4.418 4.418 0 0 1-.464-.492 5.4 5.4 0 0 1-.452-.715 5.53 5.53 0 0 1-.231-.48 7.873 7.873 0 0 1-.345-1.08 9.462 9.462 0 0 1-.108-.5l-.048-.285-.006-.039c-.008-.055-.014-.11-.02-.164-.247-2.25.062-4.587-.759-6.748-.184-.484-.784-.722-1.188-.314l-9.045 9.151c-.329.333-.649.68-.999.992a1.995 1.995 0 0 1-.418.294c-.097.052-.078.044-.164.07-.049.014-.097.023-.147.036l-.022.006h-.022l-.131.002-.063-.003c-.034-.009-.127-.027-.156-.035-.037-.01-.074-.024-.111-.037a.099.099 0 0 0-.015-.009c-.076-.043-.15-.088-.225-.132a1.181 1.181 0 0 1-.053-.035l-.069-.059a3.077 3.077 0 0 1-.175-.168c-.057-.059-.111-.122-.165-.184l-.025-.029a5.039 5.039 0 0 1-.571-.996l-.001-.002-.027-.068a11.769 11.769 0 0 1-.374-1.265 17.243 17.243 0 0 1-.45-2.792 18.188 18.188 0 0 1 .681-6.546c.235-.796-.867-1.206-1.298-.548l-3.733 5.712c-.595.91-1.17 1.837-1.792 2.73-.484.694-1.042 1.365-1.718 1.942a4.895 4.895 0 0 1-1.004.661l-.13.06-.036.012c-.091.031-.18.063-.273.09a4.25 4.25 0 0 1-.276.064l-.06.01-.135.01c-.35.014-.682-.037-.96-.18-.385-.2-.583-.36-.875-.704a3.737 3.737 0 0 1-.296-.415 6.744 6.744 0 0 1-.457-.865l-.064-.144c.013.03.036.09-.018-.047a20.727 20.727 0 0 1-1.074-3.722 20.09 20.09 0 0 1-.102-6.87c.06-.377-.098-.764-.496-.874a.742.742 0 0 0-.433.025.667.667 0 0 0-.134-.052c-.331-.09-.822.113-.874.496a109.72 109.72 0 0 0-.986 16.502c.02 1.243.022 2.501.145 3.74.099 1.004.289 2.015.766 2.915.466.878 1.277 1.602 2.268 1.806 1.251.26 2.491-.2 3.46-.987 1.052-.854 1.72-2.093 2.391-3.244l1.155-1.982a11.798 11.798 0 0 0 1.257 3.73c.477.887 1.104 1.91 2.129 2.215.571.171 1.156.011 1.604-.363.383-.318.637-.787.886-1.21.416-.712.787-1.448 1.119-2.202 1.236 1.587 2.704 3.076 4.764 3.412 1.138.186 2.312.007 3.273-.658.833-.577 1.454-1.394 1.905-2.294.296-.59.531-1.205.732-1.833.623.824 1.247 1.648 1.879 2.465.746.962 1.563 1.908 2.62 2.54 1.127.671 2.648.975 3.839.28.932-.545 1.352-1.56 1.64-2.55.146-.5.28-1 .456-1.492l.012-.036.013-.026c.026-.056.051-.113.08-.168.017-.033.034-.068.053-.1 1.009 1.46 2.81 2.346 4.607 2.19 1.102-.097 2.136-.55 2.901-1.362.765-.81 1.214-1.855 1.354-2.955.035-.274.047-.554.037-.832.241.23.485.455.744.663.888.714 2.016 1.272 3.187 1.168 1.262-.11 2.139-.944 2.555-2.106.174-.487.255-1 .324-1.509.093-.679.183-1.358.275-2.037l.624-4.627a.952.952 0 0 0-.047-.468l.118-.33c.129-.36-.145-.777-.496-.873" fill="#00B07E"/><path d="M112.379 205.095c-.02-.407-.312-.683-.71-.71a26.015 26.015 0 0 1-1.395-.136l-.14-.017a.524.524 0 0 0-.042-.006l-.046-.007-.278-.04a26.403 26.403 0 0 1-3.419-.755 26.686 26.686 0 0 1-2.743-.963l-.084-.034c-.1-.042-.197-.085-.295-.128a26.03 26.03 0 0 1-4.512-2.539c-.29-.203-.716-.077-.916.183-.232.3-.17.651.056.932l.03.04a5.182 5.182 0 0 1 .2.277c.108.155.21.316.309.48a9.069 9.069 0 0 1 .347.654c.019.041.038.081.056.123l.043.096.032.074.037.094a7.843 7.843 0 0 1 .255.767c.093.332.164.67.216 1.011l.019.155a8.113 8.113 0 0 1 .016 1.526l-.007.073-.002.01a5.664 5.664 0 0 1-.203.862c-.023.071-.047.14-.074.21l-.056.14-.045.096a3.883 3.883 0 0 1-.326.559l-.016.022a.433.433 0 0 1-.032.045l-.002.002c-.003.006-.008.011-.012.017l.01-.014c-.05.057-.1.116-.151.172a3.225 3.225 0 0 1-.234.22c-.007.003-.055.042-.09.065a2.15 2.15 0 0 1-.195.118 1.682 1.682 0 0 0-.08.047c-.046.022-.101.036-.15.051a2.288 2.288 0 0 1-.2.054l-.077.016-.024.005-.041.002a4.441 4.441 0 0 1-.258.005c-.027 0-.198-.016-.167-.009-.2-.03-.4-.084-.592-.148a4.301 4.301 0 0 1-.248-.089c-.04-.014-.077-.03-.116-.045a1.85 1.85 0 0 0-.063-.029c-.165-.077-.33-.154-.492-.237a12.46 12.46 0 0 1-1.72-1.058l-.18-.134c-.01-.007-.02-.013-.026-.019l-.084-.065a13.086 13.086 0 0 1-1.985-1.957c-.06-.07-.116-.144-.174-.216l-.09-.12c-.114-.154-.225-.31-.332-.469a9.42 9.42 0 0 0-.604-.988c-.214-.302-.631-.474-.972-.254a.725.725 0 0 0-.255.971c.186.337.389.667.604.99.076.143.147.29.214.436l.042.094.007.014.002.005a9.134 9.134 0 0 1 .535 1.842l.043.271v.004c0 .002 0 .006.002.011.005.057.013.114.018.17a8.724 8.724 0 0 1 .012 1.61l-.014.131a1.772 1.772 0 0 0-.008.077l.002-.023-.001.008a4.104 4.104 0 0 1-.138.601c-.013.042-.03.083-.043.124a.331.331 0 0 1-.021.056l-.004.013c0-.004.002-.007.003-.01a2.364 2.364 0 0 1-.181.321 4.325 4.325 0 0 1-.04.05l-.024.025c-.03.031-.061.06-.093.088.013-.009-.015.024-.04.04h-.001a.023.023 0 0 0-.007.007c.002-.003.003-.005.006-.006-.043.027-.085.054-.13.08l-.056.027c-.022.01-.052.02-.061.023-.07.023-.138.038-.21.054l-.12.006c-.095.003-.188-.008-.283-.01h-.004c-.042-.01-.084-.015-.126-.024a3.326 3.326 0 0 1-.477-.136c-.042-.015-.084-.03-.126-.047a.954.954 0 0 1-.034-.012l-.012-.005a10.926 10.926 0 0 1-1.734-1.035l-.176-.129-.068-.05-.03-.024h-.001l-.003-.004a12.89 12.89 0 0 1-2.12-2.092l-.076-.097a1.769 1.769 0 0 1-.06-.078c-.032-.04-.062-.082-.093-.124a13.192 13.192 0 0 1-1.411-2.409l-.087-.198a1.053 1.053 0 0 1-.013-.033l-.058-.143a13.399 13.399 0 0 1-.373-1.088c-.116-.352-.496-.618-.873-.496-.361.117-.61.492-.496.874.03.106.064.212.098.318a8.387 8.387 0 0 1 .267 1.274 8.832 8.832 0 0 1 0 1.931c0 .01-.005.05-.008.077a5.79 5.79 0 0 0-.012.09l-.017.106a8.496 8.496 0 0 1-.47 1.725l-.031.08-.021.047c-.036.078-.072.156-.112.232a2.868 2.868 0 0 1-.195.332c-.01.014-.134.168-.041.061a2.579 2.579 0 0 1-.241.252.818.818 0 0 1-.094.071 1.92 1.92 0 0 1-.096.06l-.1.054c-.01.004-.02.01-.03.013a3.008 3.008 0 0 1-.34.093c-.002-.002-.108.013-.15.015a2.665 2.665 0 0 1-.252-.003c-.038-.002-.076-.008-.114-.009h-.001c-.071-.014-.141-.025-.21-.04a3.709 3.709 0 0 1-.588-.187c-.003 0-.006-.003-.01-.004a5.37 5.37 0 0 1-1.016-.604c0-.003-.103-.086-.128-.107a10.246 10.246 0 0 1-.948-.947 11.068 11.068 0 0 1-.443-.532 12.775 12.775 0 0 1-.738-1.08 17.372 17.372 0 0 1-1.001-1.888 23.628 23.628 0 0 1-.24-.537l-.012-.029-.067-.163-.1-.243c-.153-.387-.3-.777-.44-1.168a68.78 68.78 0 0 1-.766-2.299.767.767 0 0 0-.56-.513.64.64 0 0 0-.454-.169c-.378.018-.72.313-.71.711.05 2.331.04 4.665-.056 6.995-.005.115-.014.23-.021.344l-.002.02-.002.008c-.012.05-.02.102-.031.152-.01.04-.022.08-.035.118-.006.014-.024.06-.035.08a1.093 1.093 0 0 1-.041.058c-.05.042-.122.091-.06.057l-.074.044-.006.002c-.018.004-.055.02-.09.03a1.378 1.378 0 0 1-.2.006l-.055-.003-.041-.004-.07-.022c-.025-.007-.122-.044-.127-.043-.067-.035-.13-.075-.196-.113l-.034-.019a.285.285 0 0 0-.024-.022c-.048-.043-.096-.084-.141-.129-.076-.075-.145-.156-.215-.236a1.355 1.355 0 0 1-.022-.025l-.024-.035-.111-.159a11.192 11.192 0 0 1-.77-1.378c-.06-.127-.12-.254-.176-.383l-.053-.122a.233.233 0 0 0-.013-.03l-.052-.13a13.126 13.126 0 0 1-.73-2.564c-.066-.366-.531-.606-.873-.496-.393.127-.567.482-.496.874.02.114.043.23.067.343-.181.128-.306.328-.29.563a21.736 21.736 0 0 0 3.464 10.242c.575.876 1.214 1.71 1.907 2.495.344.39 1.079.195 1.187-.314.262-1.238.45-2.492.563-3.753.82.943 1.726 1.806 2.718 2.575.758.586 1.573 1.227 2.512 1.488.922.256 1.935.033 2.443-.827.065-.113.12-.234.164-.36 1.487.76 3.039 1.4 4.63 1.905.503.16 1.009.304 1.519.436.544.141 1.115.316 1.68.333 1.097.035 1.832-.842 1.918-1.869a9.313 9.313 0 0 0 3.526.817c2.076.067 5.148-.632 5.514-3.094.11-.737-.042-1.44-.328-2.1 1.58.57 3.27.875 4.842.245.937-.375 1.708-1.023 2.195-1.915a4.985 4.985 0 0 0 .6-2.596 4.734 4.734 0 0 0-.311-1.48c1.97.16 3.964-.056 5.855-.666.305-.099.544-.399.525-.72a.662.662 0 0 0 .132-.41M96.623 116.51v-.002l-.005.004a.068.068 0 0 0-.006.01l.011-.013M92.982 111.554h-.001a.127.127 0 0 1-.051-.016l-.002.003a.09.09 0 0 0 .054.013" fill="#00B07E"/><path d="M97.799 115.279c-.324-.817-.663-1.631-.722-2.527-.063-.951-.252-1.055-1.133-1.143-.642-.063-1.154-.535-1.656-.94-.601-.486-1.553-.992-2.255-.401-.277.234-.387.603-.547.928-.386.78-1.1 1.354-1.996 1.363-.49.005-.97-.127-1.437-.27-3.536-1.092-6.814-3.004-9.54-5.504-.358-.328-1.092-.245-1.187.313l-1.038 6.088c-.168.989-.02 3.046-1.222 3.476-.664.238-1.351-.266-1.844-.771-3.246-3.325-4.845-7.923-5.43-12.452-.14-1.082-1.187-.707-1.56-.01-.797 1.495-1.144 3.066-1.476 4.706-.353 1.743-.861 3.994-2.472 5.024-2.083 1.33-4.444-.372-5.106-2.423-.685-2.121-.034-4.487.502-6.566.175-.678-.682-1.206-1.187-.692a28.067 28.067 0 0 1-4.874 3.989c-1.157.742-6.03 4.318-5.932 1.003.09-3.128 1.425-5.828 2.818-8.551.344-.673-.167-1.598-.884-1.07-2.956 2.177-8.531 4.45-8.531 4.45l-1.155 2.009s.378.545 1.719.164c.815-.232 1.755-.112 1.618.67-.324 1.85-.876 2.45-.611 4.348.137.974.95 1.892 1.995 1.602.316-.086.582-.268.835-.467-.583.46.416 3.872.594 4.495.375 1.31.84 2.805 1.815 3.802 2.8 2.865 5.393-2.068 6.635-3.956-.291.443 1.425 3.174 1.69 3.647.743 1.327 1.487 2.659 2.437 3.854 1.152 1.448 4.229 4.556 5.813 1.94.32-.527.444-1.19.496-1.832-.063.788 1.182 1.759 1.688 2.22.91.824 1.796 1.737 2.843 2.39 2.979 1.858 4.789.058 4.696-3.022-.03-.977-.207-1.933-.458-2.872.209.785 2.839 1.592 3.519 1.836 1.498.534 3.063.958 4.666.893 3.426-.137 5.81-2.783 5.495-6.216-.09-.973-.361-1.897-.731-2.785 2.136 1.795 4.672 3.852 7.228 5.006 2.657 1.2 6.49.347 6.518-3.157.007-.927-.307-1.76-.636-2.59" fill="#00B07E"/><path d="M96.521 119.351l.022-.026.006-.009-.028.035M96.055 111.67a.136.136 0 0 0-.06.004.255.255 0 0 1 .06-.004M54.217 90.352c.007.014.009.017 0 0M51.925 87.801c-.062.021-.07.025-.058.021l.057-.02z" fill="#00B07E"/><path d="M91.74 84.083a1.552 1.552 0 0 0-.141-.43c-.477-.966-1.65-.827-2.431-1.394-.777-.565-1.457-1.253-2.17-1.895-1.014-.913-1.126.679-.62 1.328.32.41.742.77.888 1.269a1.34 1.34 0 0 1-.49 1.424c-1.896 1.365-5.512-2.301-6.571-3.553-1.16-1.37-.482 1.847-.386 2.163.27.898.75 3.098-.476 3.559-2.151.808-3.597-.824-4.6-2.518-.55-.932-.975-1.932-1.488-2.884-.227-.421-1.495-1.814-1.502-2.133-.022-.942-.803-.506-1.107-.207h-.001c-.726.716-.478 2.109-.881 2.978-.171.37-2.716 2.769-2.76 2.574-.137-.595-.032-1.261.038-1.882v-.002c.184-1.728-2.884 1.478-3.186 1.698-1.334.972-7.18 3.896-5.96.005.149-.472.948-1.662.67-2.15-.503-.888-2.11.945-2.66 1.389-.198.159-.403.323-.647.396-.615.187-1.28-.285-1.511-.884-.271-.702 1.357-5.273-.3-4.52-.374.172-.613.545-.791.917-.89 1.856-2.317 4-2.48 6.085-.183 2.375 1.313 3.18 3.308 3.188-.058.718-.062 1.46.219 2.142.298.722.904 1.334 1.658 1.537 1.439.388 2.904-.654 4.02-1.44.506-.356.998-.733 1.473-1.128.094.99.335 2.04.885 2.885.415.634 1.07 1.15 1.827 1.228 1.302.134 2.018-1.242 2.685-2.105.177.19.622.646.959.604.264-.033.454-.261.616-.473.24-.314 2.403-2.664 2.305-2.994.469 1.518 1.187 2.832 2.012 4.178.548.894 1.426 1.934 2.602 1.707.975-.188 2.46-2.561 1.708-3.497.765.95 1.66 1.772 2.848 2.21.862.32 1.877.4 2.752.08a3.156 3.156 0 0 0 1.79-1.628c.695-1.51.946-.283 2.275-1 1.018-.546 1.17-1.627.722-2.592.474.109.97.177 1.44.138.638-.052 1.23-.304 1.632-.814a2.2 2.2 0 0 0 .43-1.897c.167-.016.332-.052.495-.115.673-.263 1.015-.895.902-1.547M83.038 96.703l.025-.053c-.03.06-.032.066-.025.053M50.017 139.57h-.002.002zM50 139.575v-.001zM50.022 139.573h-.002l-.003-.002h-.006l.003.002h.004c-.002.002-.003.002-.005.002l.005-.001s.002 0 .003.002l-.001-.002.002-.001c.002 0 .003.002.005.003.016 0 .029.002.033 0l-.01-.005c-.005 0-.01 0-.011-.002l-.012.003a.104.104 0 0 0 .012-.003.15.15 0 0 0-.021.002s.003 0 .004.002" fill="#00B07E"/><path d="M62.89 131.765c-.346-.146-.676 0-.887.29-1.668 2.296-3.146 4.91-5.366 6.732-.318.261-.663.508-1.06.615-.728.196-1.382-.24-1.772-.829-.546-.823-.348-3.844-1.328-3.976-1.057-.142-1.874 3.895-2.27 4.722-.035.074-.087.16-.17.161-.053 0-.1-.037-.136-.074-.651-.654-.6-2.312-.674-3.164a26.17 26.17 0 0 1-.055-3.553c.036-.712-.985-.956-1.324-.359-.833 1.474-1.671 2.946-2.51 4.416.02-.67.572-4.662-.761-4.602-.377.017-2.046 2.21-2.487 2.622-.847.79-1.742 1.537-2.744 2.124-1.28.75-3.334 1.521-4.137 1.15-.803-.37 3.675-4.955 5.744-7.343.68-.786 1.312-1.625 1.792-2.549.164-.318.104-.695-.183-.916-.29-.225-.663-.18-.933.054a65.586 65.586 0 0 1-10.985 7.78c-.28.158-4.996 2.895-6.435 4.607-1.07 1.274-2.177 3.167-1.27 4.832.61 1.12 1.993 1.602 3.267 1.624 1.409.025 2.999-.19 4.367-.524-.478.117-1.665 2.651-1.826 3.12-.237.691-.088 1.622.713 1.84.383.104.79.04 1.18-.036 2.658-.516 5.223-1.496 7.513-2.948-.435.277-.165 3.512-.14 4.123.018.417.228.892.639.967.254.046.505-.075.735-.192.842-.432 1.692-.842 2.492-1.35.363-.23 2.43-1.362 2.43-1.786a13.633 13.633 0 0 0 .158 4.12c.072.38.526.59.873.496 2.487-.668 4.69-2.18 6.265-4.206-.308.397.228 2.561.799 2.678.322.066.628-.154.875-.372 2.012-1.77 3.227-4.18 4.429-6.529a109.493 109.493 0 0 0 5.593-12.927c.12-.333-.108-.71-.411-.838" fill="#00B07E"/><path d="M50.463 148.924l.027-.035.002-.002-.03.037M50.003 139.562H50a.008.008 0 0 1 .002.004l.006.006a.014.014 0 0 1 .007-.002.116.116 0 0 1 .015-.006.164.164 0 0 0-.023-.002.082.082 0 0 0-.031-.023c.006.006.013.012.019.02.003 0 .005.002.007.003" fill="#00B07E"/><g transform="translate(20 154.129)"><mask id="d" fill="#fff"><use xlink:href="#c"/></mask><path d="M99.413 27.384V23.78a43.197 43.197 0 0 0-3.006-3.596c.989.222 1.995.364 3.006.44V1.594c-.453-.25-.896-.519-1.318-.815-.454-.32-1.275-.002-1.143.636a27.55 27.55 0 0 1 .573 5.364c.006.86-.035 1.718-.115 2.575-.075.791-.183 1.592-.49 2.331-1.993 4.813-10.97-1.199-13.052-3.08-.441-.4-1.255.047-1.143.636.586 3.121 3.077 10.574-1.56 12.006-3.878 1.2-7.184-4.335-8.411-7.214.555 1.304-.207 4.28-.796 5.505-1.056 2.197-3.388 2.591-5.38 1.214-1.293-.895-2.36-2.08-3.371-3.275-.43-.509-.85-1.027-1.274-1.539-.032.021-.063.044-.095.067l-.008.007a3.964 3.964 0 0 0-.237.205c-.02.018-.037.036-.056.055.168.725.244 1.48.245 2.223.005 2.475-.924 5.985-3.842 6.41-1.39.201-2.764-.517-3.811-1.454-.751-.673-7.041-7.335-6.488-7.96a.632.632 0 0 0-.101.156c-1.317 2.836-3.173 6.696-6.101 8.21-1.435.741-2.791.273-3.816-.859-2.413-2.664-4.164-5.838-4.873-9.38-.116-.582-1.036-.709-1.298-.169-1.277 2.626-2.987 5.864-5.208 7.826-.778.687-1.806 1.161-2.838 1.045-2.185-.245-3.447-2.799-3.44-4.77.01-2.108.947-3.986 1.68-5.925.155-.408.269-.958-.09-1.206-.215-.148-.518-.1-.737.043-.22.144-.372.365-.523.578a22.473 22.473 0 0 1-4.485 4.691c-.645.504-1.428.996-2.227.818-1.603-.358-1.954-2.61-1.812-3.937.179-1.665.776-3.256.724-4.95-.018-.568-.583-.844-1.07-.613L5.445 9.894c-.22-.159-.518-.16-.781-.04l-2.854 1.302c-.588.27-.365 1.132.17 1.3.955.297 1.946.477 2.943.533A30.303 30.303 0 0 0 .625 24.801c-.045.323.032.622.326.802 1.17.713 2.31-.267 3.095-1.078l1.418-1.466-.293 2.453c-.076.64-.192 1.311.159 1.895.32.535.924.796 1.525.833 1.319.082 2.365-1.154 3.259-1.948l2.252-1.998c.36 3.153.846 6.313 2.153 9.23.652 1.453 1.672 3.641 3.643 3.092 1.686-.468 2.663-2.395 3.307-3.87a15.06 15.06 0 0 0 .984-3.16 16.722 16.722 0 0 0 5.053 5.806c1.915 1.38 8.625 4.942 8.692.17.024-1.718-.093-3.45-.282-5.17a20.543 20.543 0 0 0 4.676 4.02 18.95 18.95 0 0 0 1.92 1.056c.772.366 1.605.703 2.477.642 1.43-.102 2.528-1.169 3.056-2.447.373-.904.415-1.855.297-2.802 1.886 1.824 4.093 3.37 6.479 4.385 1.465.624 3.082 1.014 4.674.732 1.542-.273 2.775-1.367 3.267-2.847.052-.157.096-.317.132-.477a30.166 30.166 0 0 0 1.844 4.078c.156.286.397.48.74.45 1.364-.125 1.696-1.593 1.843-2.712l.264-2.02c-.106.814 1.322 2.635 1.914 3.131.436.366 1.01.596 1.574.515.95-.138 1.573-1.093 1.816-2.023.403-1.547.646-3.177.974-4.748-.158.76 3.959 3.866 4.598 4.36 1.494 1.153 3.194 2.396 5.073 2.788.469.098.965.137 1.419-.019 1.467-.503 1.708-2.315 1.64-3.649-.052-1.055-.554-4.796-1.476-5.242a16.722 16.722 0 0 0 7.517 1.65c1.503-.022 5.087-.493 6.779-1.829" fill="#00B07E" mask="url(#d)"/></g><path d="M62.512 151.808a1.243 1.243 0 0 1-.001 0M62.599 151.785a.345.345 0 0 0-.002 0h.002M58.88 161.025c.02.013.032.021 0 0M59.096 161.129l.005-.002.017-.007-.006.001a.126.126 0 0 0-.016.007M59.055 161.136z" fill="#00B07E"/><path d="M112.887 148.346c-.726-1.067-2.016-1.88-3.093-2.272.205-.426-.112-.956-.542-1.15-1.337-.605-2.953-.33-4.359-.73a16.728 16.728 0 0 1-4.19-1.856c-.839-.517-2.034-1.999-3.076-1.929-1.03.068-.52 1.311-.139 1.832 1.004 1.375 3.41 4.59 2.472 6.397-.535 1.033-1.949 1.201-2.983 1.15-3.967-.197-7.598-2.513-10.209-5.388-.553-.609-1.326.091-1.15.758.077.293.26.545.434.794.465.668.89 1.378 1.113 2.16.597 2.081-.773 4.143-3.035 3.171-2.392-1.029-4.548-2.688-6.18-4.713-.305-.378-.699-.815-1.177-.727-2.143.397.835 5.04-1.169 5.664-.268.084-.554-.037-.805-.166-1.399-.72-2.45-1.802-3.599-2.846-1.627-1.479-2.995-3.134-4.31-4.888-.109-.157-.225-.323-.398-.403-1.335-.623-1.736 1.65-1.909 2.476a37.985 37.985 0 0 1-1.417 5.066c-.85 2.371-2.24-.338-2.383-1.64-.145-1.344.05-2.682.062-4.025.023-2.712.296-5.515 1.151-8.1.117-.354-.134-.792-.496-.874a.726.726 0 0 0-.873.496c-.503 1.52-.716 3.121-.993 4.691.06-.439-.552-.713-.953-.523-.4.19-.607.63-.777 1.038-1.59 3.82-2.705 7.944-2.732 12.105-.017 2.635.362 7.153 3.192 8.435 1.69.766 2.345-1.116 2.828-2.315-.34.845 1.843 2.24 2.423 2.525.83.408 1.87.508 2.652.017 1.002-.627 1.452-2.034 1.876-3.078a18.791 18.791 0 0 0 1.327-5.766c.092.161.186.321.282.48 2.598 4.318 6.862 7.777 12.066 8 .4.017.826.008 1.165-.206.716-.452.298-2.038.267-2.73a14.891 14.891 0 0 0 7.91 2.097c.475-.009.788-.444.684-.898-.146-.639-.29-1.276-.437-1.914.13.566 4.094.84 4.698.88a20.431 20.431 0 0 0 6.496-.62c.405-.108.702-.672.424-1.044a18.86 18.86 0 0 0-2.726-2.952c3.097.002 6.362-.236 9.365-1.036 1.607-.428 3.596-1.648 3.781-3.473.072-.715-.157-1.38-.558-1.97M111.888 149.489l-.001-.002.002.004-.001-.002" fill="#00B07E"/><path d="M70.164 30.363c2.003.473 4.44.862 6.381-.104l.123-.062c-.193-1.143-.68-2.355-.901-3.14-.257-.915-2.561-9.628-4.296-7.821-.292.305-.367.752-.427 1.17-.441 3.06-1.591 6.59-1.737 9.809.245.039.615.09.857.148" fill="#FF9200"/><g transform="translate(60 -.871)"><mask id="f" fill="#fff"><use xlink:href="#e"/></mask><path d="M23.355 10.58c.18-.233.27-.485.146-.775a.711.711 0 0 0-.648-.437c-2.094-.028-4.61.33-6.657-.083-.733-.148-.53-.09-.764-.726-.924-2.506-1.535-5.034-2.931-7.348-.317-.527-1.125-.418-1.298.17-.593 2.013-2.405 5.825-2.851 7.878-2.498-.032-4.813.22-7.311.189C-.412 9.43.558 11.124.94 11.55c2.049 2.282 4.204 3.343 5.388 4.55l-1.936 8.796a.721.721 0 0 0 .255.747c.215.166.55.21.788.055 1.09-.71 2.28-1.476 3.33-2.316 1.053-.841 2.56-2.654 3.405-2.656.844 0 2.6 1.548 3.598 2.426 1.053.925 2.138 1.749 3.45 2.279.515.208 1.01-.397.873-.874-.835-2.89-.98-5.402-1.458-8.528a66.49 66.49 0 0 0 4.722-5.45" fill="#FFB300" mask="url(#f)"/></g><path d="M24.787 164.896a4.175 4.175 0 1 1-8.35.001 4.175 4.175 0 0 1 8.35 0M66.775 149.658a4.324 4.324 0 1 1-8.648 0 4.324 4.324 0 0 1 8.648 0M81.561 201.448a4.323 4.323 0 1 1-8.646.001 4.323 4.323 0 0 1 8.646-.001" fill="#FF5151"/><path d="M53.023 128.002a3.046 3.046 0 1 1-6.093 0 3.047 3.047 0 1 1 6.093 0M94.563 174.62a4.64 4.64 0 1 1-9.278 0 4.64 4.64 0 0 1 9.278 0" fill="#1CF68B"/><path d="M47.445 169.07a3.332 3.332 0 1 1-6.665 0 3.332 3.332 0 0 1 6.665 0M100.05 139.648a3.56 3.56 0 1 1-7.122 0 3.561 3.561 0 1 1 7.122 0M66.894 102.983a3.561 3.561 0 1 1-7.122.001 3.561 3.561 0 0 1 7.122-.001" fill="#FFB300"/><path d="M106.144 121.074a3.046 3.046 0 1 1-6.094 0 3.047 3.047 0 1 1 6.094 0M66.38 60.664a3.047 3.047 0 1 1-6.093 0 3.047 3.047 0 0 1 6.093 0" fill="#FF5151"/><path d="M89.66 78.33a3.333 3.333 0 1 1-6.666.001 3.333 3.333 0 0 1 6.665 0" fill="#1CF68B"/><path d="M70.86 22.5h.003c1.137.498 2.317.343 3.44-.095-.844-2.185-1.905-4.112-2.812-3.17-.293.306-.366.753-.427 1.172a44.033 44.033 0 0 1-.35 2.03c.048.022.097.042.146.063" fill="#FF7E00"/><path d="M61.644 57.517c-1.352.834-1.935 2.316-1.59 3.854.191.853 1.223 1.434 2.052 1.167.894-.29 1.37-1.14 1.165-2.053.062.277-.002-.155-.013.014-.018.085-.015.08.009-.02.035-.119.024-.108-.031.034l.072-.125-.088.108c.122-.113.136-.133.043-.062-.097.066-.075.055.065-.035.743-.458 1.095-1.513.599-2.283-.48-.745-1.488-1.088-2.283-.599M101.303 118.483c-.778.714-1.252 1.84-1.122 2.899.106.864.69 1.713 1.668 1.669.813-.037 1.783-.741 1.669-1.669-.015-.122-.011-.244-.021-.366.006-.099.004-.098-.003.003-.015.124-.003.103.034-.065-.104.031-.026.22.016-.003a4.748 4.748 0 0 0-.04.045c.049-.055.102-.107.159-.154.644-.591.644-1.767 0-2.359-.69-.633-1.672-.632-2.36 0M62.184 145.488c-2.438-.174-4.618 1.997-4.361 4.453.09.865.702 1.712 1.669 1.669.826-.037 1.766-.74 1.668-1.67a3.22 3.22 0 0 1-.02-.427c.007-.12.004-.114-.008.019l.043-.166c.095-.254-.017-.014.066-.153.151-.26-.24.264.096-.143a.868.868 0 0 1 .314-.217c-.137.05.252-.057.293-.062-.282.032.197.03.24.034.873.062 1.708-.812 1.669-1.668-.043-.958-.733-1.603-1.669-1.67M19.038 161.237c-1.842 1.04-2.93 3.082-1.904 5.099.408.803 1.537 1.035 2.282.598.817-.477 1.01-1.476.6-2.282a.277.277 0 0 1 .033.189c.006-.207.001-.231-.012-.075a8.33 8.33 0 0 0 .047-.17c-.05.133-.03.11.062-.067-.174.174.203-.186.196-.18-.144.127.314-.193.381-.231.783-.443 1.048-1.513.598-2.282-.462-.79-1.496-1.044-2.283-.6M76.123 197.384c-1.911.564-3.085 2.57-2.445 4.508.273.828 1.165 1.453 2.052 1.166.825-.268 1.459-1.165 1.165-2.053a1.934 1.934 0 0 1-.084-.3c.027.185.037.177.029-.023-.029.184-.02.18.025-.017-.062.131-.066.147-.013.05.063-.102.043-.085-.057.048.062-.072.13-.139.202-.2-.15.117-.145.125.015.023-.184.07-.184.075-.002.016.836-.246 1.446-1.184 1.165-2.052-.274-.848-1.156-1.43-2.052-1.166" fill="#FF8678"/><path d="M85.468 75.01c-.83.324-1.496.782-1.98 1.546-.514.814-.562 1.731-.427 2.655.126.867 1.269 1.42 2.053 1.166.947-.306 1.3-1.124 1.165-2.053.046.32.095-.27.028.05a6.2 6.2 0 0 0 .05-.163c-.042.112-.037.122.013.03.053-.082.054-.086.005-.012-.067.092-.042.074.073-.052-.302.138.263-.089-.093.05.81-.318 1.463-1.132 1.165-2.052-.254-.787-1.182-1.507-2.052-1.166M48.812 124.91c-1.513.688-2.181 2.46-1.772 4.015.223.844 1.202 1.44 2.053 1.166.868-.282 1.404-1.15 1.165-2.053-.042-.178-.052-.21-.03-.095.017.114.021.08.015-.1-.02.149-.015.165.015.047.036-.12.031-.103-.016.044l.077-.121c-.111.15-.103.156.028.018l-.107.09a1.63 1.63 0 0 1 .257-.13c.797-.36 1.052-1.578.598-2.281-.531-.825-1.43-.987-2.283-.6M88.526 170.569c-1.84.912-2.634 2.95-2.218 4.903.188.881 1.22 1.394 2.052 1.165.913-.251 1.354-1.168 1.166-2.052-.11-.517.174-.881.684-1.135.807-.401 1.03-1.543.599-2.282-.481-.823-1.473-1.001-2.283-.599" fill="#76FFAA"/><path d="M62.334 99.527c-1.802.519-2.7 2.212-2.367 4.008.159.86 1.245 1.427 2.053 1.165.92-.298 1.335-1.131 1.165-2.052.058.316.087-.215.01.099-.065.262.08-.146-.029.015-.061.073-.061.075.004.005.085-.082.063-.07-.067.035l.121-.073c-.184.068-.185.072-.003.016.837-.242 1.444-1.189 1.164-2.053-.275-.852-1.154-1.425-2.052-1.165M96.776 135.936c-1.84.146-3.435 1.314-3.847 3.173-.188.85.257 1.845 1.166 2.052.845.192 1.85-.254 2.053-1.165.019-.105.045-.208.079-.31-.072.15-.062.137.028-.039.107-.163.113-.18.016-.053.052-.06.108-.118.168-.172.086-.077.078-.073-.024.014.09-.059.182-.11.278-.157-.35.151.508-.04.083-.006.868-.069 1.71-.718 1.669-1.668-.038-.845-.737-1.743-1.67-1.669M43.501 165.8c-1.42.233-2.717 1.528-2.918 2.961-.12.86.21 1.834 1.165 2.052.787.18 1.923-.24 2.052-1.165.016-.114.195-.587.02-.245a2.08 2.08 0 0 1 .133-.234c-.129.155-.13.163-.006.023.138-.125.13-.125-.029 0 .073-.052.15-.099.23-.14-.313.186.106-.012.24-.034.864-.143 1.423-1.258 1.166-2.053-.303-.935-1.127-1.317-2.053-1.165" fill="#FFD341"/><path d="M67.787 41.066a33.906 33.906 0 0 1-4.53 9.454c-.91 1.334 1.259 2.587 2.162 1.264A36.18 36.18 0 0 0 70.2 41.731c.463-1.546-1.951-2.206-2.414-.665M57.465 65.332a46.764 46.764 0 0 1-6.309 8.659c-1.09 1.184.676 2.958 1.77 1.77a49.702 49.702 0 0 0 6.7-9.166c.796-1.403-1.366-2.665-2.16-1.263M41.744 86.983A116.424 116.424 0 0 1 30.89 97.374c-.93.782-.069 2.021.884 2.136l7.003.844c1.596.192 1.582-2.312 0-2.503l-7.003-.844.885 2.136a116.171 116.171 0 0 0 10.856-10.39c1.087-1.185-.678-2.959-1.77-1.77M50.96 94.806c-2.434 4.191-4.331 8.76-5.537 13.456-.4 1.561 2.013 2.227 2.413.665a50.824 50.824 0 0 1 5.286-12.858c.81-1.396-1.351-2.657-2.161-1.263M19.631 140.238a46.163 46.163 0 0 1-10.674 10.415c-.605.424-.916 1.404-.254 1.966 1.625 1.376 3.388 2.045 5.532 1.93 1.602-.085 1.612-2.588 0-2.502-1.458.078-2.63-.24-3.762-1.2l-.253 1.967A49.81 49.81 0 0 0 21.792 141.5c.957-1.298-1.214-2.547-2.16-1.263M16.002 174.966c-4.149 4.237-8.34 8.437-12.449 12.712-.985 1.024-2.272 2.247-1.493 3.797.984 1.958 3.25 1.23 4.936 1.724 1.55.454 2.211-1.96.666-2.413-.923-.27-1.024-.129-1.955-.285-1.875-.313-.47-.965.307-1.76l3.804-3.883 7.954-8.12c1.127-1.154-.64-2.924-1.77-1.772M18.047 186.732c-2.834 4.535-3.836 9.668-3.082 14.945.227 1.588 2.639.912 2.414-.666-.66-4.607.372-9.084 2.829-13.015.857-1.37-1.308-2.628-2.161-1.264M30.283 192.922c-1.253 3.605-4.815 14.505 1.691 15.004 1.606.123 1.598-2.381 0-2.503-2.987-.23.218-10.386.723-11.835.53-1.524-1.888-2.18-2.414-.666M43.431 197.124l-.034 7.922c-.007 1.607-.352 3.623.375 5.113 1.272 2.606 4.117 1.375 5.543-.36 1.015-1.236-.745-3.016-1.769-1.77-.338.574-.866.877-1.587.91a11.865 11.865 0 0 1-.068-1.913c-.015-.99.01-1.98.013-2.97l.03-6.932c.007-1.61-2.496-1.612-2.503 0M56.288 196.008l-.488 6.563c-.12 1.62-.465 3.445.138 5.011.845 2.194 3.327 2.961 5.12 1.428 1.227-1.048-.55-2.81-1.77-1.77-1.345 1.151-1.137-2.572-1.125-2.794.054-.937.14-1.876.21-2.812l.418-5.626c.119-1.606-2.384-1.599-2.503 0M80.965 196.887c.412 5.554 1.426 11.942 7.097 14.497 1.456.656 2.73-1.5 1.263-2.16-4.842-2.183-5.508-7.624-5.857-12.337-.118-1.597-2.622-1.609-2.503 0M87.486 197.22c1.464 3.638 3.82 6.626 7.036 8.876 1.322.926 2.575-1.243 1.263-2.16a16.549 16.549 0 0 1-5.885-7.382c-.595-1.476-3.016-.83-2.414.665M51.406 164.086c.409 5.626 2.864 10.723 7.115 14.453 1.206 1.059 2.983-.705 1.77-1.77-3.74-3.282-6.02-7.706-6.382-12.683-.116-1.597-2.62-1.61-2.503 0M64.216 171.523a17.854 17.854 0 0 0 2.797-6.888l-2.09.553c1.633 1.887 3.817 2.53 6.24 2.08l-1.584-1.208c.24 4.406 2.271 8.122 5.783 10.77 1.287.968 2.536-1.203 1.263-2.16-2.763-2.084-4.357-5.168-4.543-8.61-.047-.86-.759-1.36-1.584-1.207-1.574.293-2.793-.266-3.806-1.434-.59-.68-1.928-.352-2.092.551a16.183 16.183 0 0 1-2.545 6.29c-.9 1.341 1.267 2.595 2.161 1.263M75.885 141.342c.825 4.302 3.956 7.736 8.083 9.12 1.53.514 2.187-1.903.665-2.413-3.337-1.119-5.677-3.94-6.335-7.372-.303-1.58-2.715-.91-2.413.665M82.93 140.663c2.292 3.816 4.936 7.737 9.542 8.81 1.566.366 2.235-2.047.665-2.413-3.95-.92-6.093-4.408-8.046-7.661-.828-1.38-2.993-.122-2.161 1.264M63.32 132.958c-2.292 3.21-3.372 7.002-3.136 10.938.096 1.6 2.599 1.612 2.503 0-.213-3.551.726-6.78 2.795-9.674.938-1.314-1.231-2.565-2.161-1.264M76.98 106.475c3.083 2.61 6.414 5.42 10.5 6.187 2.295.431 5.94-.864 4.112-3.792-.851-1.364-3.017-.109-2.161 1.263.166.265-2.862-.288-3.201-.414-.894-.332-1.75-.786-2.562-1.279-1.764-1.072-3.346-2.404-4.917-3.736-1.222-1.035-3.001.728-1.77 1.771" fill="#00D393"/><path d="M89.88 110.582c3.788 2.786 8.547 3.263 13.059 2.339 1.577-.322.91-2.735-.665-2.413-3.903.799-7.871.31-11.131-2.087-1.3-.955-2.55 1.216-1.263 2.16M67.36 103.162a29.897 29.897 0 0 0 3.859 10.42c.827 1.38 2.992.124 2.162-1.263-1.831-3.06-3.014-6.31-3.607-9.822-.268-1.585-2.681-.913-2.414.665M70.253 76.917c.482 4.147 2.557 7.667 5.989 10.058 1.324.92 2.577-1.246 1.263-2.162a11.206 11.206 0 0 1-4.75-7.896c-.183-1.581-2.688-1.6-2.502 0M76.388 78.347a17.378 17.378 0 0 0 6.93 7.09c1.406.785 2.67-1.375 1.262-2.162-2.607-1.455-4.64-3.55-6.03-6.192-.75-1.425-2.912-.162-2.162 1.264M58.232 77.724c-.703 1.312-1.222 2.698-1.45 4.173-.168 1.084-.385 2.431.25 3.408 1.488 2.284 5.564.565 7.245-.58 1.324-.902.073-3.072-1.263-2.162-.689.47-1.39.848-2.202 1.067-.392.106-.87.27-1.27.208-.516-.079-.232.318-.42-.242-.195-.582.155-1.584.3-2.153.22-.868.548-1.666.971-2.455.762-1.419-1.398-2.685-2.16-1.264M71.056 48.931c.131 3.863.095 7.721-.11 11.58-.086 1.61 2.417 1.606 2.503 0 .205-3.859.241-7.717.11-11.58-.055-1.606-2.558-1.613-2.503 0M35.395 120.004c-3.917 4.635-7.833 9.271-11.748 13.907-1.032 1.225.729 3.004 1.77 1.772l11.747-13.91c1.033-1.224-.729-3.002-1.77-1.77" fill="#00D393"/><path d="M70.892 2.131c-.752 2.232-1.577 4.438-2.33 6.668-.343 1.02 1.268 1.459 1.61.444.753-2.23 1.576-4.437 2.329-6.668.344-1.02-1.267-1.458-1.61-.444" fill="#FFDC79"/><path d="M61.823 10.338l7.544-.481c1.067-.07 1.074-1.739 0-1.67-2.514.162-5.03.322-7.544.482-1.066.069-1.074 1.737 0 1.67M66.562 16.852l-1.622 5.672c-.295 1.034 1.314 1.475 1.609.443l1.622-5.672c.295-1.034-1.314-1.475-1.609-.443" fill="#FFDC79"/><path d="M81.466 9.236a63.64 63.64 0 0 1-5.215 5.147c-.808.711.376 1.887 1.18 1.18a64.11 64.11 0 0 0 5.215-5.146c.718-.796-.458-1.98-1.18-1.181" fill="#FF9200"/><path d="M76.074 15.408c.627 2.498 1.103 5.03 1.761 7.52.274 1.039 1.884.598 1.61-.443-.659-2.49-1.135-5.023-1.762-7.52-.26-1.041-1.87-.6-1.609.443" fill="#FF9200"/><path d="M71.42 19.002c2.768-.057 4.928 2.367 6.63 4.296.711.807 1.887-.377 1.18-1.18-2.023-2.293-4.535-4.851-7.81-4.784-1.073.022-1.077 1.69 0 1.668" fill="#FF9200"/><path d="M73.21 25.43l.758 3.003c.262 1.041 1.87.6 1.609-.443l-.757-3.004c-.262-1.04-1.872-.6-1.61.443" fill="#FF7E00"/><path d="M70.605 23.825l-1.12 5.312c-.22 1.047 1.389 1.495 1.61.443l1.118-5.312c.222-1.047-1.386-1.495-1.608-.443M103.67 195.592a2.615 2.615 0 0 0-.405.11 5.345 5.345 0 0 1-.1-.426c-.049-.262.01-.455.242-.599.267-.165.446.03.547.273.075.181.137.368.2.553a2.708 2.708 0 0 0-.485.09m9.76 9.355c-.39-.169-.794-.313-1.189-.47-.759-.306-1.538-.653-2.139-1.226a3.289 3.289 0 0 1-.76-1.115c-.206-.487-.325-1.009-.464-1.518-.266-.972-.555-1.955-1.055-2.837-.435-.766-1.036-1.43-1.812-1.855a3.433 3.433 0 0 0-1.513-.434c-.175-.557-.442-1.463-1.146-1.156-.288.126-.51.378-.53.697-.018.263.062.537.138.798a3.39 3.39 0 0 0-1.239 1.1c-.507.725-.75 1.587-.799 2.468-.057 1.011.121 2.02.314 3.01.102.517.227 1.037.26 1.565.028.458-.03.906-.187 1.337-.284.781-.827 1.437-1.372 2.048-.284.317-.58.624-.855.95a1.314 1.314 0 0 0-.284.48c.26-.553 3.413-1.677 7.355-2.6 3.941-.924 7.266-1.318 7.744-.938a1.343 1.343 0 0 0-.467-.304" fill="#FFB300"/><path d="M111.63 204.217c-.553-.249-1.088-.545-1.528-.966a3.261 3.261 0 0 1-.761-1.114c-.205-.487-.324-1.009-.463-1.518-.266-.972-.556-1.955-1.056-2.837a5.575 5.575 0 0 0-.166-.275c.01 1.98-.372 5.713-2.934 7.995 2.138-.769 4.564-1.124 6.908-1.285" fill="#FFA200"/><path d="M102.822 193.276a1.143 1.143 0 0 1-.05-.418c.019-.14.1-.28.232-.33.146-.055.317.018.417.138.1.12.143.277.17.43.044.235.176 1.363-.167 1.44-.342.077-.544-1.025-.602-1.26z" stroke="#FFB300" stroke-width="2.457" stroke-linecap="round" stroke-linejoin="round"/><path d="M52.704 193.59c-2.565 3.672-5.406 7.823-6.528 12.206.08-.512-.087-1.165-.084-1.688.008-1.272.152-2.572.598-3.77-1.23.76-2.887 1.591-3.747 2.781.83-2.077 2.02-4.05 3.358-5.835 1.008-1.345 2.44-3.38 3.988-4.15.784-.391 1.55.143 2.415.456" fill="#FF5151"/><path d="M52.704 193.59s-5.345 7.584-6.528 12.206v-.006c-.01-.385.317-2.968 1.324-5.064 1.01-2.103 3.775-5.814 2.836-5.715-.742.073-1.257-.447-1.441-.667a19.045 19.045 0 0 1 1.766-1.495l2.043.74z" fill="#F72E2E"/><path d="M47.087 199.687l-.397.65-.001.001c-.096.06-3.131 1.923-3.748 2.786v-.005c1.71-2.778 4.072-3.413 4.146-3.432" fill="#E11A1A"/><path d="M40.803 187.04s-.751.788.834 1.63c1.585.844 9.473 3.763 9.473 3.763l-.408-1.9s-7.474-3.55-8.34-3.663c-.864-.114-1.56.17-1.56.17" fill="#F72E2E"/><path d="M51.11 192.432s-.398-.31-1.041-.779c-2.028-1.483-6.496-4.546-8.557-4.396-1.535.112.125 1.413.125 1.413-.713-.248-1.108-.552-1.318-.775a.673.673 0 0 1-.175-.575l.41-2.597c.026-.162.074-.354.148-.54.13-.334.343-.64.637-.68 2.7-.368 5.18 1.013 7.02 2.534a19.478 19.478 0 0 1 2.649 2.691c.35.433.54.708.54.708l-.354 2.417-.084.58z" fill="#FF3738"/><path d="M41.863 194.292s-.513.452-.48.689c.031.239.527.479 1.612.523 1.085.044 2.643-.708 4.258-1.08 1.615-.372 3.002-.478 4.064-.217l-.284-.486-3.303-.407s-1.679-.102-3.057.098c-1.379.2-2.81.88-2.81.88" fill="#F72E2E"/><path d="M41.756 194.75c-.455.45 1.239.754 1.239.754s-1.504.04-1.804-.041c-.301-.083-.884-.802-1.53-1.566-.347-.411-.472-.636-.513-.755v-.002c-.035-.102-.01-.126-.01-.126.017-.765.558-3.082 5.069-2.753.604.044 1.17.116 1.697.206 1.887.323 3.282.89 4.148 1.333.7.357 1.058.633 1.058.633l.207 1.774a15.304 15.304 0 0 0-1.898-.402c-4.03-.591-7.268.555-7.663.946" fill="#FF3738"/><path d="M53.027 193.64s2.745 8.864 2.445 13.624c0 0 0-.003.002-.005.059-.127 1.302-2.81 1.192-5.345v.001c.074.086 2.38 2.788 2.707 3.802v-.002c-.011-.18-.345-5.364-2.955-10.183a19.1 19.1 0 0 0-1.22-1.966l-2.171.074z" fill="#FF5151"/><path d="M53.027 193.64s2.745 8.864 2.445 13.624c0 0 0-.003.002-.005.127-.363.614-2.92.302-5.225-.313-2.312-1.798-6.694-.935-6.312.683.3 1.334-.037 1.577-.19a19.1 19.1 0 0 0-1.22-1.966l-2.171.074zM66.367 191.082s.472.98-1.296 1.293c-1.768.312-10.17.656-10.17.656l.973-1.68s8.204-1.072 9.062-.914c.857.16 1.431.645 1.431.645" fill="#F72E2E"/><path d="M54.9 193.03s.475-.172 1.23-.42c2.387-.783 7.582-2.32 9.496-1.541 1.426.579-.555 1.306-.555 1.306.755-.016 1.225-.184 1.494-.331a.677.677 0 0 0 .343-.493l.41-2.597c.026-.162.04-.36.026-.56-.021-.357-.128-.715-.396-.843-2.455-1.182-5.24-.633-7.46.247a19.473 19.473 0 0 0-3.35 1.74c-.465.305-.731.508-.731.508l-.41 2.409-.097.576z" fill="#FF3738"/><path d="M63.122 197.652s.348.589.245.805c-.104.216-.65.292-1.696-.001-1.045-.293-2.296-1.49-3.717-2.341-1.421-.852-2.708-1.381-3.798-1.46l.419-.375 3.267.633s1.629.42 2.879 1.035c1.25.616 2.401 1.704 2.401 1.704" fill="#F72E2E"/><path d="M63.083 198.122c.293.568-1.412.334-1.412.334s1.419.503 1.73.518c.311.013 1.088-.491 1.937-1.018.458-.283.646-.46.722-.561v-.002c.065-.084.048-.117.048-.117.22-.731.421-3.103-3.972-4.181a17.254 17.254 0 0 0-1.678-.327c-1.895-.275-3.396-.166-4.356-.012-.777.124-1.202.275-1.202.275l-.744 1.624c.67.029 1.315.1 1.929.203 4.016.68 6.743 2.77 6.998 3.264" fill="#FF3738"/><path d="M50.193 190.543c.142-.58.385-1.362.915-1.69l-.1-.124a19.536 19.536 0 0 0-2.65-2.691c-1.84-1.521-4.32-2.902-7.02-2.535-.293.04-.505.347-.636.68a2.6 2.6 0 0 0-.148.54l-.41 2.597a.676.676 0 0 0 .175.576c.21.222.605.527 1.318.775 0 0-1.66-1.302-.125-1.413 2.06-.151 6.529 2.913 8.557 4.395l.122.089c.003-.181-.052-.358-.065-.55a2.098 2.098 0 0 1 .067-.65" fill="#FF5151"/><path d="M49.846 192.594c.1-.209.23-.408.306-.628a.659.659 0 0 0 .027-.1c-.04-.023-.083-.044-.127-.067-.867-.442-2.26-1.01-4.148-1.333a17.761 17.761 0 0 0-1.697-.206c-4.51-.329-5.052 1.988-5.068 2.753 0 0-.026.024.01.126v.002c.04.12.164.345.512.756.645.763 1.228 1.482 1.53 1.565.3.082 1.804.041 1.804.041s-1.694-.303-1.239-.753c.394-.39 3.632-1.537 7.662-.946.053.008.106.017.16.024a1.798 1.798 0 0 1 .013-.47c.043-.266.14-.523.255-.764M56.537 190.534c.077.475-.095.937-.212 1.39a5.986 5.986 0 0 0-.14.67c2.412-.79 7.541-2.298 9.441-1.525 1.426.579-.555 1.306-.555 1.306.755-.016 1.225-.184 1.493-.331a.678.678 0 0 0 .344-.493l.411-2.597c.025-.162.04-.36.025-.56-.02-.357-.128-.714-.396-.843-2.455-1.182-5.239-.633-7.459.247a19.473 19.473 0 0 0-3.515 1.85c.118.106.244.205.34.333.121.16.191.356.223.553" fill="#FF5151"/><path d="M62.136 193.094a17.197 17.197 0 0 0-1.678-.327c-1.852-.269-3.328-.17-4.291-.023a3.117 3.117 0 0 0-.012.53c.014.223.068.446.044.672-.024.21-.115.402-.2.591-.042.095-.082.192-.123.287l.21.034c4.015.68 6.742 2.77 6.997 3.263.293.57-1.411.334-1.411.334s1.418.503 1.73.518c.31.014 1.087-.49 1.937-1.018.457-.283.645-.46.72-.56v-.002c.066-.085.049-.117.049-.117.22-.732.42-3.104-3.972-4.182" fill="#FF5151"/><path d="M54.807 193.6c.013-.14.022-.282.026-.424l-.677 1.48c.178.006.355.017.53.03.006-.148.036-.3.05-.44.026-.215.052-.43.07-.646" fill="#FF3738"/><path d="M55.407 190.046l-.41 2.409-.097.575.02-.006c.1-.036.547-.197 1.21-.413l.056-.017a6.03 6.03 0 0 1 .139-.67c.117-.453.289-.916.212-1.39a1.247 1.247 0 0 0-.222-.552c-.097-.129-.222-.228-.341-.333-.363.242-.567.397-.567.397M56.198 193.946c.025-.226-.029-.448-.044-.673a3.106 3.106 0 0 1 .013-.528l-.066.01a7.856 7.856 0 0 0-1.18.269l-.02.007-.068.145a7.42 7.42 0 0 1-.027.424c-.019.216-.045.43-.069.646-.016.14-.045.293-.052.44.408.03.805.078 1.19.139l.124-.287c.084-.19.176-.383.2-.592M54.9 193.03s.007-.001.02-.006l-.02.007M51.11 192.432l.084-.579.354-2.417s-.154-.224-.44-.584c-.53.328-.773 1.11-.915 1.69a2.101 2.101 0 0 0-.067.651c.013.19.068.367.065.55.496.362.824.616.9.675a.499.499 0 0 1 .019.014M51.317 194.207l-.207-1.774-.018-.014a7.344 7.344 0 0 0-.913-.554.67.67 0 0 1-.027.102c-.076.219-.206.419-.306.628a2.857 2.857 0 0 0-.255.763c-.024.153-.03.313-.014.47.568.09 1.149.214 1.74.379" fill="#F72E2E"/><path d="M51.11 192.432l-.018-.014a.499.499 0 0 1 .018.014" fill="#F72E2E"/><path d="M55.926 190.476c-.348-1.302-1.437-.563-2.22-.532-.575.023-.714-.394-1.224-.623-1.058-.478-1.67.335-1.773 1.301-.063.583-.018 1.144-.135 1.725-.085.423-.58 1.373-.402 1.794.374.893 1.439.24 2.076.178.582-.057.944.231 1.413.48 1.088.576 1.62.522 1.73-.777.052-.597.056-1.156.195-1.74.133-.566.5-1.209.34-1.806" fill="#FF5151"/><path d="M50.171 194.141c.375.893 1.44.24 2.076.178.583-.057.945.231 1.413.48 1.088.576 1.621.522 1.732-.777.03-.348.043-.683.077-1.017a.164.164 0 0 0-.063.065 3.68 3.68 0 0 1-.506.751c-.165.188-.354.438-.674.403-.305-.034-.589-.216-.879-.302a3.32 3.32 0 0 0-1.777-.042c-.288.073-.594.194-.907.156-.377-.045-.343-.308-.293-.55.064-.31.068-.829.198-1.118-.095.431-.57 1.36-.397 1.773" fill="#FF3738"/><path d="M66.46 190.172c.03-.258-.003-.51.005-.768.016-.477.308-.89.284-1.379-.011-.216-.348-.179-.337.04.022.444-.258.837-.283 1.278-.012.228.024.456.006.684a2.49 2.49 0 0 1-.162.706c-.078.202.23.343.309.138a2.87 2.87 0 0 0 .179-.7M41.899 183.792a.576.576 0 0 0-.618.085c-.202.178-.214.463-.243.71l-.232 1.95c-.026.216.309.27.335.053l.177-1.487c.028-.236.05-.473.085-.707.028-.19.134-.394.356-.295.2.088.34-.22.14-.31M42.47 190.551l-.78.227c-.234.068-.465.13-.667.27-.39.268-.77.615-1.074.98-.14.166.123.38.263.212.286-.34.642-.666 1.01-.918.185-.127.41-.175.622-.238l.75-.217c.208-.06.083-.377-.125-.316M65.581 195.771c-.11-.188-.384.013-.274.2.199.338.241.778.006 1.112-.119.168-.29.258-.472.347l-.624.303c-.195.095-.073.412.124.316.465-.226 1.045-.403 1.315-.878.253-.445.175-.974-.075-1.4" fill="#FF5151"/><path d="M64.336 186.888a8.674 8.674 0 0 0-1.922.095 10.323 10.323 0 0 0-.938.181c-.154.036-.307.076-.459.118l-.226.064a15.305 15.305 0 0 0-1.829.67c-.428.186-.83.382-1.199.574l-.218.115-.248.137a24.331 24.331 0 0 0-.705.411l-.23.143c1.164-.212 2.196-.355 2.776-.275 1.118.156 2.291.99 3.452 1.224.373.075 3.86.493 3.52-.126a12.767 12.767 0 0 1-1.25-3.28 6.514 6.514 0 0 0-.524-.051M43.505 187.28c1.477.174 2.966.227 4.45.156a38.196 38.196 0 0 1 1.849-.06 18.736 18.736 0 0 0-1.445-1.338 15.135 15.135 0 0 0-.671-.525l-.086-.063a12.74 12.74 0 0 0-1.561-.98 9.667 9.667 0 0 0-1.55-.657 8.019 8.019 0 0 0-.698-.191c-.08-.02-.158-.034-.237-.05a7.086 7.086 0 0 0-.97-.12 6.525 6.525 0 0 0-1.248.05l-.053.01a.451.451 0 0 0-.052.018.774.774 0 0 0-.356.313c-.02.029-.04.059-.057.09l-.008.015a2.407 2.407 0 0 0-.202.515l-.018.067a2.842 2.842 0 0 0-.038.193l-.17 1.075c.876.078 1.752.077 2.537.043-.904 1.102-1.138 1.24.584 1.44M81.171 127.901c-.793 4.409-1.634 9.369-.82 13.817-.14-.498-.566-1.02-.782-1.497-.525-1.157-.939-2.4-1.035-3.674-.798 1.204-1.956 2.654-2.239 4.095-.115-2.234.14-4.524.607-6.706.353-1.643.803-4.091 1.885-5.438.548-.684 1.468-.52 2.384-.597" fill="#FF5151"/><path d="M81.171 127.901s-1.679 9.126-.82 13.817c0-.001 0-.003-.002-.004-.17-.346-.954-2.828-.917-5.154.038-2.333.996-6.859.183-6.378-.642.379-1.329.12-1.588-.003.28-.705.603-1.408.978-2.095l2.166-.183z" fill="#F72E2E"/><path d="M78.623 135.79l-.089.757v.002c-.063.093-2.04 3.056-2.239 4.097v-.004c.39-3.24 2.269-4.804 2.328-4.852" fill="#E11A1A"/><path d="M67.623 126.935s-.354 1.028 1.438 1.131c1.793.101 10.178-.549 10.178-.549l-1.165-1.554s-8.275-.096-9.106.163c-.834.26-1.346.81-1.346.81" fill="#F72E2E"/><path d="M79.24 127.517s-.492-.116-1.271-.27c-2.463-.5-7.803-1.412-9.612-.413-1.347.745.705 1.232.705 1.232-.751.073-1.238-.038-1.522-.153a.68.68 0 0 1-.4-.449l-.713-2.53a2.532 2.532 0 0 1-.092-.552c-.021-.359.043-.725.294-.886 2.298-1.463 5.128-1.247 7.436-.635 1.49.395 2.763.955 3.532 1.334.499.247.787.418.787.418l.69 2.342.166.562z" fill="#FF3738"/><path d="M71.62 133.076s-.276.626-.148.828c.13.202.68.213 1.684-.201 1.003-.414 2.104-1.75 3.415-2.764 1.31-1.012 2.526-1.69 3.6-1.897l-.46-.323-3.17 1.014s-1.569.61-2.737 1.368c-1.169.759-2.184 1.975-2.184 1.975" fill="#F72E2E"/><path d="M71.715 133.538c-.224.6 1.44.165 1.44.165s-1.348.667-1.656.718c-.307.05-1.138-.36-2.044-.781-.487-.228-.695-.381-.782-.472v-.001c-.075-.078-.062-.111-.062-.111-.305-.702-.784-3.033 3.45-4.622a18.058 18.058 0 0 1 1.628-.523c1.849-.496 3.353-.564 4.325-.525.785.03 1.225.13 1.225.13l.932 1.526c-.663.106-1.294.254-1.893.43-3.907 1.15-6.368 3.546-6.563 4.066" fill="#FF3738"/><path d="M81.486 127.812s6.203 6.901 7.923 11.35v-.006c0-.14.005-3.098-1.155-5.353l.002.001c.102.047 3.326 1.535 4.048 2.32-.086-.162-2.559-4.73-6.946-8.013a19.028 19.028 0 0 0-1.93-1.276l-1.942.977z" fill="#FF5151"/><path d="M81.486 127.812s6.203 6.901 7.923 11.35v-.006c-.037-.383-.665-2.908-1.913-4.87-1.252-1.97-4.435-5.328-3.49-5.343.745-.013 1.195-.592 1.352-.832a19.028 19.028 0 0 0-1.93-1.276l-1.942.977z" fill="#F72E2E"/><path d="M87.783 133.204l.471.6h.002c.102.047 3.336 1.54 4.05 2.324a.01.01 0 0 1-.002-.005c-2.026-2.556-4.445-2.908-4.52-2.92" fill="#E11A1A"/><path d="M92.53 119.905s.84.692-.635 1.717c-1.474 1.023-8.962 4.853-8.962 4.853l.18-1.934s7.004-4.407 7.849-4.622c.845-.215 1.569-.014 1.569-.014" fill="#F72E2E"/><path d="M82.933 126.475s.358-.356.94-.896c1.84-1.712 5.915-5.283 7.98-5.375 1.537-.072.042 1.417.042 1.417.68-.33 1.036-.679 1.218-.925a.676.676 0 0 0 .106-.592l-.714-2.53a2.564 2.564 0 0 0-.211-.519c-.17-.316-.415-.596-.713-.6-2.724-.047-5.023 1.618-6.671 3.345a19.465 19.465 0 0 0-2.313 2.985c-.297.47-.454.766-.454.766l.638 2.36.152.564z" fill="#FF3738"/><path d="M92.334 127.23s.562.39.559.628c-.004.24-.468.537-1.54.71-1.072.17-2.709-.393-4.356-.57-1.647-.18-3.037-.122-4.061.263l.224-.516 3.232-.793s1.655-.3 3.048-.264c1.393.035 2.894.541 2.894.541" fill="#F72E2E"/><path d="M92.495 127.673c.504.393-1.142.894-1.142.894s1.499-.137 1.788-.254c.288-.117.782-.9 1.333-1.735.297-.449.394-.688.42-.81v-.002c.023-.106-.005-.128-.005-.128-.107-.757-.917-2.994-5.358-2.135-.594.115-1.15.254-1.661.404-1.835.544-3.153 1.273-3.961 1.815-.653.437-.977.753-.977.753l.004 1.787a15.15 15.15 0 0 1 1.838-.624c3.932-1.063 7.283-.306 7.72.035" fill="#FF3738"/><path d="M77.616 126.185c-.114-.587-.22-1.398.123-1.919l-.142-.07a19.471 19.471 0 0 0-3.532-1.335c-2.308-.612-5.138-.828-7.436.636-.251.16-.315.526-.294.885.01.2.047.395.092.552l.713 2.53a.684.684 0 0 0 .4.45c.284.114.77.225 1.522.152 0 0-2.052-.487-.705-1.232 1.809-.999 7.149-.087 9.612.412l.147.03c-.073-.168-.196-.306-.29-.473a2.113 2.113 0 0 1-.21-.618" fill="#FF5151"/><path d="M78.16 128.193c.003-.231.038-.467.016-.698a.833.833 0 0 0-.02-.104 54.282 54.282 0 0 0-.142-.006c-.972-.039-2.476.03-4.325.526-.516.138-1.06.31-1.627.523-4.235 1.589-3.756 3.92-3.451 4.621 0 0-.013.034.062.112v.001c.087.09.295.244.782.471.907.423 1.737.832 2.044.782.308-.051 1.657-.718 1.657-.718s-1.665.434-1.441-.165c.195-.52 2.656-2.916 6.564-4.067l.154-.044a1.789 1.789 0 0 1-.185-.433 2.88 2.88 0 0 1-.088-.801M83.374 123.522c.269.398.306.891.389 1.351.04.222.088.447.153.666 1.859-1.727 5.888-5.243 7.937-5.335 1.537-.072.042 1.418.042 1.418.679-.33 1.035-.68 1.218-.926a.683.683 0 0 0 .106-.592l-.715-2.53a2.58 2.58 0 0 0-.21-.519c-.17-.316-.416-.595-.713-.6-2.725-.047-5.023 1.618-6.671 3.345a19.467 19.467 0 0 0-2.418 3.153c.152.047.307.084.448.16.178.096.322.242.434.41" fill="#FF5151"/><path d="M89.53 123.504a17.99 17.99 0 0 0-1.66.403c-1.795.534-3.094 1.24-3.907 1.779.057.165.126.328.21.483.107.198.25.377.321.594.066.198.065.412.067.62.001.104.005.207.008.312.068-.02.136-.04.205-.056 3.931-1.063 7.282-.307 7.72.034.505.392-1.142.893-1.142.893s1.5-.136 1.788-.252c.288-.118.783-.901 1.333-1.736.297-.449.394-.688.421-.81v-.002c.023-.106-.006-.128-.006-.128-.107-.757-.917-2.994-5.358-2.135" fill="#FF5151"/><path d="M83.086 127.03a7.538 7.538 0 0 0-.153-.395l.003 1.626c.165-.068.33-.132.495-.193-.056-.138-.094-.288-.138-.422-.068-.205-.134-.411-.207-.615" fill="#FF3738"/><path d="M82.143 123.551l.637 2.358.152.565.016-.015a46.307 46.307 0 0 1 .968-.92 6.113 6.113 0 0 1-.153-.667c-.083-.46-.12-.952-.389-1.35a1.232 1.232 0 0 0-.434-.409c-.141-.077-.297-.114-.448-.16-.229.371-.349.598-.349.598M84.495 126.762c-.072-.216-.215-.396-.322-.593a3.184 3.184 0 0 1-.21-.484 7.788 7.788 0 0 0-1.031.79v.16c.056.13.106.262.154.396.073.204.139.41.207.615.045.134.082.284.138.422.383-.143.763-.266 1.138-.373-.003-.105-.006-.208-.007-.312-.003-.208-.001-.422-.067-.62" fill="#F72E2E"/><path d="M82.933 126.475l.016-.016-.016.015v.001zM79.24 127.517l-.166-.562-.69-2.342s-.235-.139-.645-.347c-.343.521-.238 1.332-.124 1.92.042.213.106.425.212.617.092.167.215.305.288.472.603.122 1.007.215 1.103.237l.021.005M80.17 129.042l-.93-1.524-.023-.005a7.358 7.358 0 0 0-1.06-.121.67.67 0 0 1 .018.103c.022.232-.013.467-.016.698-.003.268.016.542.09.8.04.15.102.298.183.435a15.302 15.302 0 0 1 1.738-.386" fill="#F72E2E"/><path d="M79.24 127.517l-.022-.005a.74.74 0 0 1 .022.005" fill="#F72E2E"/><path d="M82.794 123.724c-.86-1.036-1.54.091-2.238.446-.512.263-.814-.058-1.373-.053-1.16.01-1.375 1.003-1.065 1.924.187.556.462 1.047.598 1.623.1.42.05 1.49.386 1.798.714.654 1.407-.385 1.96-.708.505-.296.955-.185 1.484-.155 1.23.068 1.691-.204 1.248-1.43-.204-.563-.435-1.073-.554-1.663-.114-.569-.05-1.306-.446-1.782" fill="#FF5151"/><path d="M79.103 129.463c.714.653 1.407-.386 1.96-.708.504-.297.954-.186 1.483-.155 1.23.067 1.691-.204 1.248-1.431-.118-.328-.246-.638-.355-.956a.164.164 0 0 0-.03.086c-.013.3-.058.597-.146.892-.07.242-.139.547-.444.65-.29.097-.624.05-.925.093a3.302 3.302 0 0 0-1.63.707c-.231.185-.459.423-.76.52-.36.117-.439-.137-.496-.38-.07-.305-.284-.78-.286-1.096.093.433.049 1.474.38 1.778" fill="#FF3738"/><path d="M92.235 119.039c-.08-.246-.218-.461-.318-.698-.185-.441-.092-.94-.318-1.37-.1-.194-.39-.018-.29.174.205.395.115.87.278 1.28.084.213.212.404.291.619.084.228.133.465.148.708.014.218.353.216.34-.002a2.866 2.866 0 0 0-.13-.711M67.258 123.525a.575.575 0 0 0-.526.336c-.108.245 0 .51.077.747l.606 1.867c.067.207.393.116.326-.092l-.462-1.424c-.073-.226-.152-.451-.22-.678-.052-.184-.042-.413.2-.416.22-.003.217-.343-.001-.34M70.605 129.425c-.204.178-.41.354-.613.532-.184.16-.367.313-.493.525-.242.407-.441.88-.565 1.338-.057.21.27.295.329.084.116-.429.304-.874.532-1.257.115-.193.299-.33.466-.476l.589-.51c.164-.143-.081-.379-.245-.236M93.78 124.492c-.18-.124-.344.173-.166.296.323.225.545.606.472 1.008-.037.203-.156.356-.284.512l-.44.538c-.137.167.106.404.245.235.328-.401.78-.804.827-1.348.044-.511-.248-.96-.654-1.241" fill="#FF5151"/><path d="M88.931 116.946c-.15.059-.298.122-.445.188-.439.202-.86.439-1.26.703a11.979 11.979 0 0 0-.776.557c-.125.098-.248.198-.368.299-.06.05-.119.102-.178.153a15.33 15.33 0 0 0-1.38 1.373c-.312.349-.595.696-.85 1.025l-.149.195a22.02 22.02 0 0 0-.637.897 7.794 7.794 0 0 0-.148.225c.968-.68 1.845-1.241 2.405-1.41 1.081-.327 2.495-.06 3.647-.334.371-.088 3.712-1.168 3.144-1.588a12.687 12.687 0 0 1-2.507-2.457 7.817 7.817 0 0 0-.498.174M70.177 126.022a27.407 27.407 0 0 0 4.107-1.722 39.873 39.873 0 0 1 1.653-.829l-.23-.088a20.897 20.897 0 0 0-.829-.284 16.685 16.685 0 0 0-1.642-.433l-.105-.022a12.597 12.597 0 0 0-1.828-.236 9.646 9.646 0 0 0-1.68.051c-.24.03-.48.068-.717.12-.079.015-.157.034-.236.053a7.175 7.175 0 0 0-.422.12 6.379 6.379 0 0 0-.735.272 6.57 6.57 0 0 0-.885.473.473.473 0 0 0-.085.069c-.106.106-.165.261-.193.433-.006.035-.01.07-.013.106v.017a2.444 2.444 0 0 0 .031.551c.003.024.008.047.012.07.014.067.03.132.046.191l.295 1.046a19.273 19.273 0 0 0 2.322-1.02c-.359 1.377-.514 1.601 1.134 1.062M49.934 85.53c-2.804 3.494-5.914 7.448-7.325 11.745.115-.504-.01-1.167.028-1.688.093-1.268.323-2.557.848-3.723-1.277.677-2.987 1.396-3.925 2.527.968-2.017 2.287-3.907 3.74-5.6 1.095-1.275 2.66-3.21 4.255-3.876.808-.338 1.538.246 2.379.616" fill="#FF5151"/><path d="M49.934 85.53s-5.837 7.214-7.325 11.745v-.005c.017-.385.513-2.94 1.658-4.965 1.149-2.031 4.154-5.548 3.21-5.514-.745.025-1.225-.53-1.394-.761a19.084 19.084 0 0 1 1.862-1.374l1.989.875z" fill="#F72E2E"/><path d="M43.924 91.24l-.439.624h-.002c-.1.054-3.252 1.71-3.925 2.53a.01.01 0 0 0 .002-.004c1.891-2.658 4.29-3.134 4.364-3.15" fill="#E11A1A"/><path d="M38.495 78.206s-.802.734.724 1.682c1.526.946 9.201 4.382 9.201 4.382l-.28-1.921s-7.222-4.04-8.077-4.21c-.855-.171-1.568.067-1.568.067" fill="#F72E2E"/><path d="M48.42 84.27s-.376-.337-.986-.847c-1.926-1.614-6.18-4.968-8.246-4.955-1.539.01.03 1.42.03 1.42-.695-.296-1.069-.627-1.263-.863a.674.674 0 0 1-.137-.585l.582-2.564c.037-.16.098-.349.184-.529.153-.325.384-.616.681-.637 2.718-.187 5.1 1.357 6.835 2.997a19.57 19.57 0 0 1 2.466 2.86c.32.455.491.743.491.743l-.514 2.388-.123.572z" fill="#FF3738"/><path d="M39.07 85.51s-.541.418-.525.656c.017.24.496.513 1.575.63 1.079.114 2.684-.532 4.32-.796 1.636-.263 3.027-.277 4.069.054l-.25-.504-3.27-.625s-1.667-.214-3.056-.106c-1.39.108-2.862.691-2.862.691" fill="#F72E2E"/><path d="M38.933 85.96c-.483.42 1.187.836 1.187.836s-1.504-.06-1.799-.162c-.294-.102-.828-.86-1.42-1.663-.32-.433-.43-.667-.463-.788v-.002c-.028-.104 0-.127 0-.127.066-.761.76-3.038 5.24-2.41.6.085 1.16.194 1.68.319 1.86.448 3.214 1.106 4.05 1.605.674.404 1.012.703 1.012.703l.09 1.784a15.406 15.406 0 0 0-1.869-.528c-3.98-.857-7.288.07-7.708.434" fill="#FF3738"/><path d="M50.253 85.603s2.149 9.027 1.533 13.757c0-.002 0-.003.003-.005.068-.123 1.485-2.719 1.545-5.254v.001c.068.091 2.189 2.94 2.447 3.973.003-.183.014-5.377-2.271-10.359a19.126 19.126 0 0 0-1.085-2.043l-2.172-.07z" fill="#FF5151"/><path d="M50.253 85.603s2.149 9.027 1.533 13.757c0-.002 0-.003.003-.005.15-.355.806-2.873.649-5.193-.16-2.329-1.35-6.799-.513-6.36.66.344 1.333.05 1.585-.086a19.126 19.126 0 0 0-1.085-2.043l-2.172-.07z" fill="#F72E2E"/><path d="M53.206 93.35l.127.751.002.001c.066.091 2.194 2.947 2.447 3.977v-.005c-.557-3.213-2.513-4.68-2.575-4.725" fill="#E11A1A"/><path d="M63.734 83.937s.406 1.01-1.38 1.204c-1.784.194-10.192-.02-10.192-.02l1.084-1.614s8.258-.523 9.103-.307c.845.215 1.385.737 1.385.737" fill="#F72E2E"/><path d="M52.162 85.12s.485-.141 1.255-.337c2.434-.624 7.72-1.811 9.578-.907 1.384.673-.64 1.265-.64 1.265.754.036 1.234-.101 1.512-.23a.682.682 0 0 0 .376-.47l.582-2.563c.036-.16.063-.357.063-.556.002-.36-.08-.723-.339-.87-2.37-1.342-5.186-.98-7.459-.25a19.545 19.545 0 0 0-3.459 1.516c-.486.272-.764.458-.764.458l-.568 2.376-.137.568z" fill="#FF3738"/><path d="M60.06 90.277s.307.611.19.819c-.118.209-.669.248-1.692-.113-1.023-.362-2.192-1.639-3.553-2.583-1.362-.944-2.61-1.558-3.694-1.709l.444-.347 3.218.849s1.597.527 2.803 1.225c1.206.697 2.283 1.859 2.283 1.859" fill="#F72E2E"/><path d="M59.989 90.743c.255.588-1.431.24-1.431.24s1.382.596 1.692.63c.309.036 1.118-.415 2-.886.476-.252.675-.415.758-.51v-.001c.07-.082.055-.116.055-.116.269-.714.627-3.068-3.685-4.435a17.474 17.474 0 0 0-1.652-.44c-1.872-.4-3.378-.39-4.346-.3-.783.072-1.217.195-1.217.195l-.851 1.57a15.66 15.66 0 0 1 1.912.332c3.96.947 6.543 3.212 6.765 3.72" fill="#FF3738"/><path d="M47.631 82.324c.18-.57.475-1.333 1.025-1.626l-.09-.131a19.57 19.57 0 0 0-2.466-2.86c-1.735-1.64-4.116-3.184-6.835-2.996-.297.02-.528.31-.68.636-.087.18-.148.37-.184.53l-.583 2.563a.674.674 0 0 0 .137.585c.195.236.568.568 1.263.862 0 0-1.569-1.41-.03-1.418 2.066-.014 6.32 3.34 8.246 4.955l.115.096c.015-.181-.027-.361-.028-.551a2.11 2.11 0 0 1 .11-.645" fill="#FF5151"/><path d="M47.149 84.348c.113-.202.256-.393.347-.606a.687.687 0 0 0 .033-.1 9.681 9.681 0 0 0-.122-.074c-.835-.499-2.19-1.157-4.05-1.606a17.636 17.636 0 0 0-1.68-.318c-4.48-.629-5.173 1.648-5.24 2.41 0 0-.027.023.002.126l-.001.002c.033.121.143.355.462.788.593.805 1.127 1.562 1.42 1.663.296.103 1.8.162 1.8.162s-1.67-.415-1.187-.835c.42-.363 3.727-1.29 7.709-.433.052.01.104.023.156.035a1.827 1.827 0 0 1 .046-.469c.06-.263.174-.512.305-.745M53.962 82.737c.045.479-.157.929-.304 1.372a6.247 6.247 0 0 0-.184.659c2.459-.628 7.677-1.79 9.52-.892 1.385.673-.64 1.265-.64 1.265.755.035 1.235-.101 1.513-.23a.679.679 0 0 0 .376-.47l.582-2.563a2.6 2.6 0 0 0 .063-.556c.002-.36-.08-.723-.34-.87-2.37-1.342-5.185-.98-7.458-.25a19.588 19.588 0 0 0-3.46 1.515l-.171.098c.11.114.23.222.317.356.11.169.167.367.186.566" fill="#FF5151"/><path d="M59.378 85.665a17.236 17.236 0 0 0-1.652-.438c-1.83-.392-3.31-.391-4.28-.308a3.1 3.1 0 0 0-.048.526c0 .225.039.45-.001.674-.037.207-.141.395-.238.578-.05.092-.095.185-.142.278.069.015.138.03.207.047 3.96.947 6.543 3.212 6.765 3.72.255.589-1.431.24-1.431.24s1.382.597 1.692.632c.309.035 1.118-.416 2-.887.476-.251.675-.415.757-.51v-.001c.07-.082.056-.115.056-.115.269-.715.627-3.07-3.685-4.436" fill="#FF5151"/><path d="M52.031 85.681a7.42 7.42 0 0 0 .055-.42l-.775 1.43c.178.018.353.041.527.066.016-.147.056-.298.081-.436.038-.213.08-.426.112-.64" fill="#FF3738"/><path d="M52.867 82.175l-.568 2.376-.136.568.02-.006a44.083 44.083 0 0 1 1.29-.345c.049-.224.113-.444.185-.659.147-.444.349-.893.304-1.372a1.24 1.24 0 0 0-.185-.567c-.088-.134-.207-.24-.318-.355a10.8 10.8 0 0 0-.592.36M53.397 86.119c.04-.223 0-.45 0-.674 0-.177.019-.352.049-.526l-.067.006c-.682.063-1.1.164-1.195.189l-.022.006-.076.142c-.014.14-.033.28-.055.42-.033.213-.073.426-.112.639-.025.139-.064.289-.081.437.405.058.798.13 1.179.216.047-.092.093-.185.142-.277.097-.183.2-.371.238-.578" fill="#F72E2E"/><path d="M52.162 85.12l.021-.006-.02.006zM48.42 84.27l.123-.572.514-2.388s-.139-.233-.4-.612c-.55.293-.846 1.056-1.026 1.626a2.108 2.108 0 0 0-.11.644c.001.191.043.37.028.552.471.396.781.671.854.735l.017.015" fill="#F72E2E"/><path d="M48.51 86.054l-.09-1.784-.016-.015a7.564 7.564 0 0 0-.875-.613.639.639 0 0 1-.033.1c-.09.213-.234.404-.347.606a2.82 2.82 0 0 0-.306.745c-.034.15-.05.31-.045.47.56.126 1.132.287 1.711.491M48.42 84.27l-.017-.015.017.015" fill="#F72E2E"/><path d="M53.356 82.638c-.261-1.322-1.396-.657-2.18-.678-.575-.014-.686-.44-1.18-.704-1.023-.547-1.687.225-1.855 1.182-.102.578-.095 1.14-.25 1.712-.113.416-.67 1.332-.521 1.762.315.916 1.42.335 2.06.316.586-.018.927.294 1.378.573 1.048.648 1.583.63 1.78-.66.09-.592.13-1.149.308-1.725.17-.553.58-1.172.46-1.778" fill="#FF5151"/><path d="M47.37 85.913c.314.916 1.42.335 2.061.315.585-.017.926.294 1.377.574 1.047.647 1.583.629 1.78-.66.052-.345.088-.678.144-1.01a.17.17 0 0 0-.067.06 3.68 3.68 0 0 1-.555.716c-.177.178-.383.414-.699.358-.302-.055-.574-.254-.857-.36a3.315 3.315 0 0 0-1.77-.159c-.293.052-.605.152-.916.094-.373-.07-.32-.33-.255-.57.084-.302.122-.822.272-1.101-.124.425-.66 1.318-.515 1.743" fill="#FF3738"/><path d="M63.888 83.036c.047-.255.03-.51.055-.766.048-.475.367-.868.375-1.355.004-.22-.335-.203-.339.016-.008.444-.313.818-.367 1.255-.027.228-.007.456-.04.683a2.465 2.465 0 0 1-.208.693c-.092.198.207.359.3.16a2.91 2.91 0 0 0 .224-.686M39.805 75.036a.58.58 0 0 0-.623.044c-.212.164-.243.447-.29.692l-.36 1.93c-.04.215.29.29.33.075.093-.49.185-.98.276-1.471.044-.234.082-.47.132-.701.04-.186.16-.382.375-.27.193.102.353-.196.16-.3M39.924 81.819l-.793.174c-.238.053-.472.098-.684.224a5.643 5.643 0 0 0-1.135.906c-.152.158.096.389.247.232a5.113 5.113 0 0 1 1.07-.85c.192-.115.42-.148.636-.195l.761-.168c.213-.047.11-.37-.102-.323M62.638 88.564c-.098-.195-.384-.013-.287.181.177.351.189.793-.067 1.11-.13.161-.307.24-.495.315l-.642.261c-.201.081-.101.405.102.323.479-.194 1.07-.332 1.37-.788.283-.427.24-.96.019-1.402" fill="#FF5151"/><path d="M61.986 79.619a8.604 8.604 0 0 0-.48-.048 9.651 9.651 0 0 0-1.92.064 11.907 11.907 0 0 0-1.167.205 15 15 0 0 0-1.869.547c-.44.157-.855.326-1.236.493l-.224.1-.257.12c-.18.085-.35.168-.509.248l-.222.115-.239.127c1.176-.133 2.215-.207 2.788-.088 1.106.229 2.22 1.139 3.363 1.45.368.1 3.82.748 3.52.108a12.687 12.687 0 0 1-1.027-3.356 7.237 7.237 0 0 0-.52-.085M41.175 78.625c1.462.27 2.944.422 4.43.45a39.42 39.42 0 0 1 1.85.063 17.67 17.67 0 0 0-1.988-1.999c-.028-.023-.055-.045-.083-.07a14.088 14.088 0 0 0-1.09-.821 10.574 10.574 0 0 0-.402-.26 9.646 9.646 0 0 0-1.5-.758 8.547 8.547 0 0 0-.92-.302 7.562 7.562 0 0 0-.427-.1 7.754 7.754 0 0 0-.777-.11 6.448 6.448 0 0 0-1.003-.007c-.019 0-.037.004-.055.007-.018.003-.035.008-.053.012a.784.784 0 0 0-.376.289 1.378 1.378 0 0 0-.072.1 2.506 2.506 0 0 0-.236.5l-.02.068a2.006 2.006 0 0 0-.052.19l-.242 1.06c.87.136 1.744.194 2.53.21-.976 1.04-1.219 1.164.486 1.478" fill="#FF5151"/></g></svg>