<?xml version="1.0" encoding="utf-8"?>
<!-- Generator: Adobe Illustrator 24.0.1, SVG Export Plug-In . SVG Version: 6.00 Build 0)  -->
<svg version="1.1" id="레이어_1" xmlns="http://www.w3.org/2000/svg" xmlns:xlink="http://www.w3.org/1999/xlink" x="0px"
	 y="0px" viewBox="0 0 1560 70" style="enable-background:new 0 0 1560 70;" xml:space="preserve">
<style type="text/css">
	.st0{fill:#FFFFFF;}
	.st1{fill:#E8F7FF;}
</style>
<title>snow</title>
<desc>Created with Sketch.</desc>
<g id="diseños">
	<g id="Artboard" transform="translate(-1.000000, 0.000000)">
		<g id="promo-bar-navidad">
			<g id="background" transform="translate(1.000000, -43.000000)">
				<g id="snow" transform="translate(0.000000, 40.000000)">
					<path id="Path" class="st0" d="M867.3,35.7c-3,0-3,4.7,0,4.7C870.3,40.3,870.3,35.7,867.3,35.7z"/>
					<path id="Path_1_" class="st1" d="M903.7,26.3c-1.8,0-1.8,2.8,0,2.8C905.5,29.1,905.5,26.3,903.7,26.3z"/>
					<path id="Path_2_" class="st0" d="M932.6,27.3c-3,0-3,4.7,0,4.7C935.6,31.9,935.6,27.3,932.6,27.3z"/>
					<path id="Path_3_" class="st0" d="M791.7,17c-1.8,0-1.8,2.8,0,2.8C793.5,19.8,793.5,17,791.7,17z"/>
					<path id="Path_4_" class="st0" d="M726.4,35.7c-1.8,0-1.8,2.8,0,2.8S728.2,35.7,726.4,35.7z"/>
					<path id="Path_5_" class="st1" d="M811.3,38.5c-1.8,0-1.8,2.8,0,2.8C813.1,41.3,813.1,38.5,811.3,38.5z"/>
					<path id="Path_6_" class="st0" d="M764.6,54.3c-3,0-3,4.7,0,4.7C767.6,59,767.6,54.3,764.6,54.3z"/>
					<path id="Path_7_" class="st1" d="M681.1,54.3c-3.6,0-3.6,5.6,0,5.6C684.7,59.9,684.7,54.3,681.1,54.3z"/>
					<path id="Path_8_" class="st0" d="M651.7,17c-1.8,0-1.8,2.8,0,2.8C653.5,19.8,653.5,17,651.7,17z"/>
					<path id="Path_9_" class="st1" d="M559.3,35.7c-3,0-3,4.7,0,4.7C562.3,40.3,562.3,35.7,559.3,35.7z"/>
					<path id="Path_10_" class="st0" d="M597.1,26.3c-3.6,0-3.6,5.6,0,5.6C600.7,31.9,600.7,26.3,597.1,26.3z"/>
					<path id="Path_11_" class="st0" d="M547.2,53.4c-1.8,0-1.8,2.8,0,2.8C549,56.2,549,53.4,547.2,53.4z"/>
					<path id="Path_12_" class="st0" d="M484.6,17c-3,0-3,4.7,0,4.7C487.6,21.7,487.6,17,484.6,17z"/>
					<path id="Path_13_" class="st0" d="M419.8,35.7c-3.6,0-3.6,5.6,0,5.6C423.3,41.3,423.3,35.7,419.8,35.7z"/>
					<path id="Path_14_" class="st1" d="M503.3,38.5c-1.8,0-1.8,2.8,0,2.8C505.1,41.3,505.1,38.5,503.3,38.5z"/>
					<path id="Path_15_" class="st0" d="M455.7,54.3c-1.8,0-1.8,2.8,0,2.8S457.5,54.3,455.7,54.3z"/>
					<path id="Path_16_" class="st1" d="M373.1,54.3c-3.6,0-3.6,5.6,0,5.6C376.7,59.9,376.7,54.3,373.1,54.3z"/>
					<path id="Path_17_" class="st0" d="M345.1,17c-3.6,0-3.6,5.6,0,5.6C348.7,22.6,348.7,17,345.1,17z"/>
					<path id="Path_18_" class="st0" d="M1342.4,35.7c-1.8,0-1.8,2.8,0,2.8C1344.2,38.5,1344.2,35.7,1342.4,35.7z"/>
					<path id="Path_19_" class="st0" d="M1379.7,54.3c-1.8,0-1.8,2.8,0,2.8S1381.5,54.3,1379.7,54.3z"/>
					<path id="Path_20_" class="st0" d="M1161.3,16.1c-3,0-3,4.7,0,4.7C1164.3,20.7,1164.3,16.1,1161.3,16.1z"/>
					<path id="Path_21_" class="st0" d="M1007.8,54.3c-3.6,0-3.6,5.6,0,5.6S1011.3,54.3,1007.8,54.3z"/>
					<path id="Path_22_" class="st0" d="M1129.1,17c-3.6,0-3.6,5.6,0,5.6C1132.7,22.6,1132.7,17,1129.1,17z"/>
					<path id="Path_23_" class="st1" d="M1034.4,35.7c-1.8,0-1.8,2.8,0,2.8C1036.2,38.5,1036.2,35.7,1034.4,35.7z"/>
					<path id="Path_24_" class="st0" d="M1073.1,26.3c-3.6,0-3.6,5.6,0,5.6C1076.7,31.9,1076.7,26.3,1073.1,26.3z"/>
					<path id="Path_25_" class="st0" d="M1071.7,54.3c-1.8,0-1.8,2.8,0,2.8S1073.5,54.3,1071.7,54.3z"/>
					<path id="Path_26_" class="st0" d="M960.6,17c-3,0-3,4.7,0,4.7C963.6,21.7,963.6,17,960.6,17z"/>
					<path id="Path_27_" class="st0" d="M440.8,11.4c-1.8,0-1.8,2.8,0,2.8C442.6,14.2,442.6,11.4,440.8,11.4z"/>
					<path id="Path_28_" class="st1" d="M979.3,38.5c-1.8,0-1.8,2.8,0,2.8C981.1,41.3,981.1,38.5,979.3,38.5z"/>
					<path id="Path_29_" class="st0" d="M933.1,54.3c-3.6,0-3.6,5.6,0,5.6C936.7,59.9,936.7,54.3,933.1,54.3z"/>
					<path id="Path_30_" class="st0" d="M805.7,59c-1.8,0-1.8,2.8,0,2.8C807.5,61.8,807.5,59,805.7,59z"/>
					<path id="Path_31_" class="st1" d="M503.3,38.5c-1.8,0-1.8,2.8,0,2.8C505.1,41.3,505.1,38.5,503.3,38.5z"/>
					<path id="Path_32_" class="st0" d="M455.7,54.3c-1.8,0-1.8,2.8,0,2.8S457.5,54.3,455.7,54.3z"/>
					<path id="Path_33_" class="st1" d="M373.1,54.3c-3.6,0-3.6,5.6,0,5.6C376.7,59.9,376.7,54.3,373.1,54.3z"/>
					<path id="Path_34_" class="st0" d="M343.7,17c-1.8,0-1.8,2.8,0,2.8S345.5,17,343.7,17z"/>
					<path id="Path_35_" class="st1" d="M251.8,35.7c-3.6,0-3.6,5.6,0,5.6C255.3,41.3,255.3,35.7,251.8,35.7z"/>
					<path id="Path_54_" class="st1" d="M18.6,15.6c-3.6,0-3.6,5.6,0,5.6C22.2,21.2,22.2,15.6,18.6,15.6z"/>
					<path id="Path_36_" class="st0" d="M288.6,26.3c-3,0-3,4.7,0,4.7C291.6,31,291.6,26.3,288.6,26.3z"/>
					<path id="Path_37_" class="st0" d="M289.1,54.3c-3.6,0-3.6,5.6,0,5.6C292.7,59.9,292.7,54.3,289.1,54.3z"/>
					<path id="Path_38_" class="st0" d="M38.8,32.8c-3.6,0-3.6,5.6,0,5.6S42.4,32.8,38.8,32.8z"/>
					<path id="Path_53_" class="st0" d="M91.1,18.9c-3.6,0-3.6,5.6,0,5.6S94.7,18.9,91.1,18.9z"/>
					<path id="Path_39_" class="st0" d="M175.7,17c-1.8,0-1.8,2.8,0,2.8S177.5,17,175.7,17z"/>
					<path id="Path_40_" class="st1" d="M195.3,38.5c-1.8,0-1.8,2.8,0,2.8C197.1,41.3,197.1,38.5,195.3,38.5z"/>
					<path id="Path_41_" class="st0" d="M147.7,54.3c-1.8,0-1.8,2.8,0,2.8S149.5,54.3,147.7,54.3z"/>
					<path id="Path_42_" class="st1" d="M63.7,54.3c-1.8,0-1.8,2.8,0,2.8C65.5,57.1,65.5,54.3,63.7,54.3z"/>
					<path id="Path_43_" class="st1" d="M1385.3,11.4c-1.8,0-1.8,2.8,0,2.8C1387.1,14.2,1387.1,11.4,1385.3,11.4z"/>
					<path id="Path_44_" class="st0" d="M1515.5,48.7c-3.6,0-3.6,5.6,0,5.6C1519.1,54.3,1519.1,48.7,1515.5,48.7z"/>
					<path id="Path_55_" class="st0" d="M1546.2,17.9c-3.6,0-3.6,5.6,0,5.6C1549.8,23.5,1549.8,17.9,1546.2,17.9z"/>
					<path id="Path_45_" class="st1" d="M1059.6,3c-3,0-3,4.7,0,4.7C1062.6,7.7,1062.6,3,1059.6,3z"/>
					<path id="Path_46_" class="st0" d="M1460.4,31.9c-3.6,0-3.6,5.6,0,5.6C1464,37.5,1464,31.9,1460.4,31.9z"/>
					<path id="Path_47_" class="st0" d="M297.1,19.8c-1.8,0-1.8,2.8,0,2.8C298.9,22.6,298.9,19.8,297.1,19.8z"/>
					<path id="Path_48_" class="st1" d="M316.7,41.3c-1.8,0-1.8,2.8,0,2.8C318.5,44.1,318.5,41.3,316.7,41.3z"/>
					<path id="Path_49_" class="st0" d="M269.1,57.1c-1.8,0-1.8,2.8,0,2.8C270.9,59.9,270.9,57.1,269.1,57.1z"/>
					<path id="Path_50_" class="st1" d="M185.1,57.1c-1.8,0-1.8,2.8,0,2.8C186.9,59.9,186.9,57.1,185.1,57.1z"/>
					<path id="Path_51_" class="st0" d="M1227.1,67.4c-3.6,0-3.6,5.6,0,5.6C1230.7,73,1230.7,67.4,1227.1,67.4z"/>
					<path id="Path_52_" class="st1" d="M1180.9,5.8c-3,0-3,4.7,0,4.7C1183.9,10.5,1183.9,5.8,1180.9,5.8z"/>
				</g>
			</g>
		</g>
	</g>
</g>
</svg>
